<?xml version="1.0" encoding="utf-8"?>
<!-- Generator: Adobe Illustrator 19.2.1, SVG Export Plug-In . SVG Version: 6.00 Build 0)  -->
<svg version="1.1" id="Layer_1" xmlns="http://www.w3.org/2000/svg" xmlns:xlink="http://www.w3.org/1999/xlink" x="0px" y="0px"
	 viewBox="0 0 231 539" style="enable-background:new 0 0 231 539;" xml:space="preserve">
<style type="text/css">
	.st0{fill:#FFFFFF;}
	.st1{fill:#E0E0E0;}
	.st2{fill:#78B9EB;}
	.st3{fill:#78909C;}
	.st4{fill:#4E8EB5;}
	.st5{fill:#4A6068;}
</style>
<path class="st0" d="M185.9,390.6c11.2,0,20.3,9.1,20.3,20.3v92.3c0,11.2-9.1,20.3-20.3,20.3h-144c-11.2,0-20.3-9.1-20.3-20.3v-92.3
	c0-11.2,9.1-20.3,20.3-20.3c-11.2,0-20.3-9.1-20.3-20.3v-35.5c0-11.2,9.1-20.3,20.3-20.3c-11.2,0-20.3-9.1-20.3-20.3v-35.5
	c0-11.2,9.1-20.3,20.3-20.3c-11.2,0-20.3-9.1-20.3-20.3v-39.5c0-34.2,27.7-61.8,61.8-61.8l0,0V87.4h60.8v29.4l0,0
	c34.2,0,61.8,27.7,61.8,61.8v39.5c0,11.2-9.1,20.3-20.3,20.3c11.2,0,20.3,9.1,20.3,20.3v35.5c0,11.2-9.1,20.3-20.3,20.3
	c11.2,0,20.3,9.1,20.3,20.3v35.5C206.1,381.5,197,390.6,185.9,390.6z"/>
<path class="st1" d="M144.3,87.4H83.4v29.4c-34.2,0-61.8,27.7-61.8,61.8v39.5c0,11.2,9.1,20.3,20.3,20.3c-11.2,0-20.3,9.1-20.3,20.3
	v35.5c0,11.2,9.1,20.3,20.3,20.3c-11.2,0-20.3,9.1-20.3,20.3v35.5c0,11.2,9.1,20.3,20.3,20.3c-11.2,0-20.3,9.1-20.3,20.3v92.3
	c0,11.2,9.1,20.3,20.3,20.3h22.3c-11.2,0-20.3-9.1-20.3-20.3v-92.3c0-11.2,9.1-20.3,20.3-20.3c-11.2,0-20.3-9.1-20.3-20.3v-35.5
	c0-11.2,9.1-20.3,20.3-20.3c-11.2,0-20.3-9.1-20.3-20.3v-35.5c0-11.2,9.1-20.3,20.3-20.3c-11.2,0-20.3-9.1-20.3-20.3v-38.5
	c0-34.2,27.7-52.7,61.8-52.7v-9.1c0-5.6,4.5-10.1,10.1-10.1h8.1C135.2,107.7,144.3,98.6,144.3,87.4L144.3,87.4z"/>
<path class="st2" d="M21.6,437.2v65.9c0,11.2,9.1,20.3,20.3,20.3h144c11.2,0,20.3-9.1,20.3-20.3v-65.9H21.6z"/>
<path class="st3" d="M159.5,87.4H68.2V42.8c0-9,7.3-16.2,16.2-16.2h58.8c9,0,16.2,7.3,16.2,16.2L159.5,87.4L159.5,87.4z"/>
<path class="st4" d="M185.9,501.1h-144c-11.2,0-20.3-9.1-20.3-20.3v22.3c0,11.2,9.1,20.3,20.3,20.3h144c11.2,0,20.3-9.1,20.3-20.3
	v-22.3C206.1,492,197,501.1,185.9,501.1z"/>
<path class="st2" d="M90.5,178.1c-8.7,14.2-8.3,32.9,3.5,44.7s30.8,11.8,42.6,0c11.8-11.8,11.8-30.8,0-42.6c0,0-16.6-16.8-21.3-28.9
	C98.5,166,95.1,170.4,90.5,178.1z"/>
<path class="st4" d="M112.2,206.5c-11.8-11.7-12.2-30.5-3.5-44.7c2.1-3.5,4-6.2,6.9-9.6c-0.1-0.3-0.3-0.6-0.4-0.9
	c-16.7,14.7-20.1,19.1-24.7,26.8c-8.7,14.2-8.3,32.9,3.5,44.7s30.8,11.8,42.6,0c2.6-2.6,4.7-5.6,6.1-8.8
	C132.2,217.2,120.4,214.8,112.2,206.5z"/>
<rect x="68.2" y="67.2" class="st5" width="91.2" height="20.3"/>
<g>
	<rect x="35.8" y="230.9" class="st1" width="158.2" height="15.2"/>
	<rect x="35.8" y="303.9" class="st1" width="158.2" height="15.2"/>
	<rect x="35.8" y="383" class="st1" width="158.2" height="15.2"/>
</g>
<path class="st2" d="M75.3,331.8c-13.1,21.5-12.6,49.9,5.3,67.7c17.8,17.8,46.7,17.8,64.5,0s17.8-46.7,0-64.5
	c0,0-25.2-25.5-32.3-43.8C87.5,313.5,82.4,320.2,75.3,331.8z"/>
<path class="st4" d="M98.8,383.3c-17.8-17.8-18.4-46.2-5.3-67.7c4.9-8.1,8.9-13.8,19.4-24c0-0.1-0.1-0.2-0.1-0.3
	c-25.3,22.3-30.4,29-37.5,40.6c-13.1,21.5-12.6,49.9,5.3,67.7c17.8,17.8,46.7,17.8,64.5,0c2.3-2.3,4.4-4.9,6.1-7.5
	C134.1,400.4,113,397.5,98.8,383.3z"/>
<path class="st0" d="M117.5,390.1c3.5,0,10.3-0.9,16.1-6.7c10.7-10.7,9-28.1,1.9-39.7l-13,7.9c3.9,6.4,5.4,16,0.3,21
	c-1.8,1.8-3.9,2.2-5.4,2.2L117.5,390.1L117.5,390.1z"/>
<path d="M213.7,218.2v-39.5c0-35.7-27.1-65.2-61.8-69V95h15.2V42.8c0-13.1-10.7-23.8-23.8-23.8H84.5c-13.2,0-23.9,10.7-23.9,23.8V95
	h15.2v14.6C41.1,113.4,14,143,14,178.7v39.5c0,8,3.4,15.2,8.8,20.3c-5.4,5.1-8.8,12.3-8.8,20.3v35.5c0,8,3.4,15.2,8.8,20.3
	c-5.4,5-8.8,12.2-8.8,20.2v35.5c0,8,3.4,15.2,8.8,20.3c-5.4,5.1-8.8,12.3-8.8,20.3v92.3c0,15.3,12.5,27.8,27.9,27.8h144
	c15.4,0,27.9-12.5,27.9-27.9v-92.3c0-8-3.4-15.2-8.8-20.3c5.4-5.1,8.8-12.3,8.8-20.3v-35.5c0-8-3.4-15.2-8.8-20.3
	c5.4-5.1,8.8-12.3,8.8-20.3v-35.5c0-8-3.4-15.2-8.8-20.3C210.4,233.4,213.7,226.2,213.7,218.2z M75.8,42.8c0-4.8,3.9-8.6,8.6-8.6
	h58.8c4.8,0,8.6,3.9,8.6,8.6v37h-76V42.8L75.8,42.8z M29.2,370.3v-35.5c0-7,5.7-12.7,12.7-12.7v-15.2c-7,0-12.7-5.7-12.7-12.7v-35.5
	c0-7,5.7-12.7,12.7-12.7v-15.2c-7,0-12.7-5.7-12.7-12.7v-39.5c0-29.9,24.3-54.2,54.2-54.2H91V95h45.6v29.4h7.6
	c29.9,0,54.2,24.3,54.2,54.2v39.5c0,7-5.7,12.7-12.7,12.7V246c7,0,12.7,5.7,12.7,12.7v35.5c0,7-5.7,12.7-12.7,12.7v15.2
	c7,0,12.7,5.7,12.7,12.7v35.5c0,7-5.7,12.7-12.7,12.7v15.2c7,0,12.7,5.7,12.7,12.7v18.8H29.2v-18.8c0-7,5.7-12.7,12.7-12.7V383
	C34.9,383,29.2,377.3,29.2,370.3z M185.9,515.8h-144c-7,0-12.7-5.7-12.7-12.7v-58.3h169.3v58.3C198.5,510.1,192.8,515.8,185.9,515.8
	z"/>
<path d="M112.8,420.5c14.2,0,27.6-5.5,37.6-15.6c10.1-10.1,15.6-23.4,15.6-37.6s-5.5-27.6-15.6-37.6c-0.2-0.2-24.1-24.6-30.6-41.2
	l-3.9-10.1l-8.2,7.2c-25.8,22.7-31.5,30-39,42.3c-15.8,25.8-13.2,57.5,6.4,77.1C85.2,415,98.6,420.5,112.8,420.5z M81.8,335.7
	c5.7-9.3,9.6-15,28.7-32.2c10.2,17.5,28.3,35.9,29.3,36.9c7.2,7.2,11.1,16.7,11.1,26.9s-4,19.7-11.1,26.9
	c-7.2,7.2-16.7,11.1-26.9,11.1s-19.7-4-26.9-11.1C71.4,379.6,69.7,355.6,81.8,335.7z"/>
<path d="M115.2,239.1c9.7,0,19.3-3.7,26.7-11c7.1-7.1,11-16.6,11-26.7s-3.9-19.5-11-26.6c-4.3-4.4-16.2-17.6-19.6-26.3l-3.9-10.1
	l-8.2,7.2c-17.3,15.2-21.1,20.1-26.2,28.5l0,0c-11,18.1-9.2,40.3,4.6,54C95.9,235.5,105.5,239.1,115.2,239.1z M96.9,182L96.9,182
	c3.4-5.5,5.8-9.1,16.1-18.6c6.8,10.6,16.6,20.7,18,22.1c4.2,4.2,6.6,9.9,6.6,15.9s-2.3,11.7-6.6,15.9c-8.8,8.8-23,8.8-31.8,0
	C90.7,208.8,89.7,193.9,96.9,182z"/>
</svg>
