<?xml version="1.0" encoding="iso-8859-1"?>
<!-- Generator: Adobe Illustrator 19.0.0, SVG Export Plug-In . SVG Version: 6.00 Build 0)  -->
<svg version="1.1" id="Layer_1" xmlns="http://www.w3.org/2000/svg" xmlns:xlink="http://www.w3.org/1999/xlink" x="0px" y="0px"
	 viewBox="0 0 511.844 511.844" style="enable-background:new 0 0 511.844 511.844;" xml:space="preserve">
<path style="fill:#8CC153;" d="M166.742,37.379c0,0-4.733,74.478,30.186,110.232c21.408,21.915,56.515,22.337,78.453,0.984l0,0
	c21.868-21.447,22.273-56.546,0.859-78.461C241.321,34.38,166.742,37.379,166.742,37.379z"/>
<path style="fill:#79AA41;" d="M270.546,138.661c-3.421-5.124-8.419-11.747-14.847-19.666
	c-10.763-13.277-21.79-25.633-22.251-26.148l0,0c-1.819-2.03-4.413-3.374-7.35-3.53c-5.881-0.344-10.918,4.155-11.246,10.044
	c-0.172,2.937,0.875,5.67,2.694,7.701l0,0c17.112,19.15,36.755,43.564,38.715,49.375c-0.281-0.812-0.609-3.827,1.397-6.779
	l17.644,11.98C280.645,153.766,274.568,144.675,270.546,138.661z"/>
<path style="fill:#A0D468;" d="M387.861,0c0,0-95.705,7.482-134.872,58.436c-24.017,31.225-18.197,76.008,12.987,100.062l0,0
	c31.272,23.962,76.04,18.089,100.049-13.151C405.2,94.408,387.861,0,387.861,0z"/>
<path style="fill:#8CC153;" d="M336.393,74.525c-0.983-5.811-6.482-9.731-12.277-8.764c-1.593,0.266-3.029,0.891-4.279,1.734l0,0
	c-1.047,0.703-25.742,17.838-47.393,48.688c-29.021,41.315-38.628,87.629-27.795,133.912l20.767-4.874
	c-5.218-22.274-5.062-44.439,0.452-65.87c4.461-17.292,12.403-34.224,23.635-50.344c19.431-27.883,42.189-43.784,42.424-43.94
	l-0.016-0.016C335.206,82.787,337.08,78.741,336.393,74.525z"/>
<path style="fill:#5D9CEC;" d="M404.841,362.921c0,82.24-66.667,148.923-148.923,148.923c-82.248,0-148.915-66.683-148.915-148.923
	c0-82.241,66.667-148.924,148.915-148.924C338.174,213.997,404.841,280.68,404.841,362.921z"/>
<g>
	<path style="fill:#8CC153;" d="M377.053,346.254c-29.319,2.219-38.723-14.965-34.864-20.213
		c6.685-9.091,38.488,13.012,40.597-3.373c0.344-2.703,6.779-9.529,12.809-11.466c-14.434-39.004-44.752-70.307-83.1-86.067
		c-1.188,3.967-2.218,7.091-2.812,7.388c-22.353,10.872-48.767,15.917-64.621,36.817c-2.226,2.937-5.162,8.467-1.983,11.965
		c3.937,4.343,14.449-0.109,19.627,0.25c14.362,1.031,54.85,10.466,56.162,17.026s-15.37,18.979-31.678,9.966
		c-4.779-2.641-23.961-5.936-30.482-7.107c-4.554-0.812-43.862,4.108-42.112,50.844c0.711,18.947,12.559,31.146,31.678,31.365
		c15.854,0.188,31.904-1.671,37.105,17.089c4.39,15.917,2.718,32.381,6.639,48.204c1.577,6.373,4.937,15.323,13.012,16.011
		c12.23,1.062,20.462-7.17,27.804-15.698c5.857-6.826,13.277-12.73,17.62-20.713c6.935-12.652,5.03-27.71,12.371-40.394
		C366.728,377.932,386.316,345.551,377.053,346.254z"/>
	<path style="fill:#8CC153;" d="M154.785,391.928c-4.663-6.779-9.997-13.34-14.793-20.01c-4.467-6.232-21.907-34.536-29.99-38.895
		c-1.969,9.653-2.999,19.666-2.999,29.897c0,36.255,12.949,69.463,34.474,95.283c0.555,0.672,13.488-8.95,14.628-9.919
		c4.772-4.045,8.778-9.013,10.567-15.089C170.851,418.983,162.642,403.346,154.785,391.928z"/>
</g>
<g style="opacity:0.2;">
	<path style="fill:#FFFFFF;" d="M255.918,213.997c-3.585,0-7.139,0.141-10.661,0.391c77.266,5.467,138.247,69.886,138.247,148.533
		c0,78.663-60.981,143.065-138.247,148.532c3.522,0.25,7.076,0.391,10.661,0.391c82.256,0,148.923-66.683,148.923-148.923
		C404.841,280.68,338.174,213.997,255.918,213.997z"/>
</g>
<g>
</g>
<g>
</g>
<g>
</g>
<g>
</g>
<g>
</g>
<g>
</g>
<g>
</g>
<g>
</g>
<g>
</g>
<g>
</g>
<g>
</g>
<g>
</g>
<g>
</g>
<g>
</g>
<g>
</g>
</svg>
