<?xml version="1.0" encoding="iso-8859-1"?>
<!-- Generator: Adobe Illustrator 19.0.0, SVG Export Plug-In . SVG Version: 6.00 Build 0)  -->
<svg version="1.1" id="Layer_1" xmlns="http://www.w3.org/2000/svg" xmlns:xlink="http://www.w3.org/1999/xlink" x="0px" y="0px"
	 viewBox="0 0 512 512" style="enable-background:new 0 0 512 512;" xml:space="preserve">
<path style="fill:#FFFFFF;" d="M327.984,371.58c11.199,0,20.277,9.078,20.277,20.277v92.261c0,11.199-9.078,20.277-20.277,20.277
	H184.016c-11.199,0-20.277-9.078-20.277-20.277v-92.261c0-11.199,9.078-20.277,20.277-20.277c-11.199,0-20.277-9.078-20.277-20.277
	v-35.485c0-11.199,9.078-20.277,20.277-20.277c-11.199,0-20.277-9.078-20.277-20.277v-35.485c0-11.199,9.078-20.277,20.277-20.277
	c-11.199,0-20.277-9.078-20.277-20.277v-39.541c0-34.156,27.69-61.846,61.846-61.846l0,0V68.436h60.832v29.402l0,0
	c34.156,0,61.846,27.69,61.846,61.846v39.541c0,11.199-9.078,20.277-20.277,20.277c11.199,0,20.277,9.078,20.277,20.277v35.485
	c0,11.199-9.078,20.277-20.277,20.277c11.199,0,20.277,9.078,20.277,20.277v35.485C348.261,362.502,339.183,371.58,327.984,371.58z"
	/>
<path style="fill:#E0E0E0;" d="M286.416,68.436h-60.832v29.402c-34.156,0-61.846,27.69-61.846,61.846v39.541
	c0,11.199,9.078,20.277,20.277,20.277c-11.199,0-20.277,9.078-20.277,20.277v35.485c0,11.199,9.078,20.277,20.277,20.277
	c-11.199,0-20.277,9.078-20.277,20.277v35.485c0,11.199,9.078,20.277,20.277,20.277c-11.199,0-20.277,9.078-20.277,20.277v92.261
	c0,11.199,9.078,20.277,20.277,20.277h22.305c-11.199,0-20.277-9.078-20.277-20.277v-92.261c0-11.199,9.078-20.277,20.277-20.277
	c-11.199,0-20.277-9.078-20.277-20.277v-35.485c0-11.199,9.078-20.277,20.277-20.277c-11.199,0-20.277-9.078-20.277-20.277v-35.485
	c0-11.199,9.078-20.277,20.277-20.277c-11.199,0-20.277-9.078-20.277-20.277v-38.527c0-34.156,27.69-52.721,61.846-52.721v-9.125
	c0-5.6,4.539-10.139,10.139-10.139h8.111C277.338,88.713,286.416,79.635,286.416,68.436L286.416,68.436z"/>
<path style="fill:#78B9EB;" d="M163.739,418.218v65.901c0,11.199,9.078,20.277,20.277,20.277h143.968
	c11.199,0,20.277-9.078,20.277-20.277v-65.901H163.739z"/>
<path style="fill:#78909C;" d="M301.624,68.436h-91.248v-44.61c0-8.959,7.262-16.222,16.222-16.222h58.804
	c8.96,0,16.222,7.262,16.222,16.222V68.436z"/>
<path style="fill:#4E8EB5;" d="M327.984,482.091H184.016c-11.199,0-20.277-9.078-20.277-20.277v22.305
	c0,11.199,9.078,20.277,20.277,20.277h143.968c11.199,0,20.277-9.078,20.277-20.277v-22.305
	C348.261,473.013,339.183,482.091,327.984,482.091z"/>
<path style="fill:#78B9EB;" d="M232.591,159.06c-8.665,14.183-8.288,32.934,3.464,44.687c11.753,11.753,30.807,11.753,42.56,0
	c11.753-11.753,11.753-30.807,0-42.56c0,0-16.599-16.839-21.28-28.878C240.616,147.022,237.266,151.407,232.591,159.06z"/>
<path style="fill:#4E8EB5;" d="M254.305,187.525c-11.753-11.753-12.13-30.504-3.464-44.687c2.11-3.453,3.954-6.243,6.874-9.614
	c-0.132-0.306-0.262-0.612-0.378-0.914c-16.72,14.713-20.069,19.098-24.744,26.751c-8.665,14.183-8.288,32.934,3.464,44.687
	c11.753,11.753,30.807,11.753,42.56,0c2.633-2.633,4.672-5.634,6.125-8.836C274.358,198.216,262.539,195.76,254.305,187.525z"/>
<rect x="210.376" y="48.158" style="fill:#4A6068;" width="91.248" height="20.277"/>
<g>
	<rect x="177.933" y="211.897" style="fill:#E0E0E0;" width="158.162" height="15.208"/>
	<rect x="177.933" y="284.895" style="fill:#E0E0E0;" width="158.162" height="15.208"/>
	<rect x="177.933" y="363.976" style="fill:#E0E0E0;" width="158.162" height="15.208"/>
</g>
<path style="fill:#78B9EB;" d="M217.434,312.776c-13.137,21.502-12.565,49.929,5.252,67.746c17.818,17.818,46.705,17.818,64.522,0
	c17.818-17.818,17.818-46.705,0-64.522c0,0-25.164-25.529-32.261-43.779C229.6,294.527,224.522,301.175,217.434,312.776z"/>
<path style="fill:#4E8EB5;" d="M240.935,364.301c-17.817-17.818-18.389-46.244-5.252-67.746c4.934-8.076,8.903-13.758,19.406-23.988
	c-0.046-0.115-0.098-0.231-0.143-0.345c-25.347,22.305-30.425,28.953-37.513,40.554c-13.137,21.502-12.565,49.929,5.252,67.746
	c17.818,17.817,46.705,17.817,64.522,0c2.332-2.332,4.35-4.857,6.072-7.519C276.248,381.355,255.097,378.462,240.935,364.301z"/>
<path style="fill:#FFFFFF;" d="M259.612,371.073c3.528,0,10.317-0.868,16.13-6.682c10.671-10.67,9.042-28.06,1.917-39.722
	l-12.978,7.928c3.925,6.424,5.366,15.982,0.308,21.04c-1.841,1.841-3.94,2.227-5.376,2.227L259.612,371.073L259.612,371.073z"/>
<path d="M355.865,199.224v-39.541c0-35.725-27.114-65.238-61.846-69.036V76.04h15.208V23.826C309.228,10.688,298.54,0,285.402,0
	h-58.804c-13.138,0-23.826,10.688-23.826,23.826V76.04h15.208v14.608c-34.732,3.798-61.846,33.309-61.846,69.036v39.541
	c0,7.981,3.37,15.19,8.764,20.277c-5.393,5.088-8.764,12.296-8.764,20.277v35.485c0,7.981,3.37,15.19,8.764,20.277
	c-5.393,5.088-8.764,12.296-8.764,20.277v35.485c0,7.981,3.37,15.19,8.764,20.277c-5.393,5.088-8.764,12.296-8.764,20.277v92.261
	c0,15.373,12.508,27.881,27.881,27.881h143.968c15.373,0,27.881-12.508,27.881-27.881v-92.261c0-7.981-3.37-15.19-8.764-20.277
	c5.393-5.088,8.764-12.296,8.764-20.277v-35.485c0-7.981-3.37-15.19-8.764-20.277c5.393-5.088,8.764-12.296,8.764-20.277v-35.485
	c0-7.981-3.37-15.19-8.764-20.277C352.495,214.413,355.865,207.205,355.865,199.224z M217.98,23.826
	c0-4.752,3.866-8.618,8.618-8.618h58.804c4.752,0,8.618,3.866,8.618,8.618v37.006h-76.04V23.826z M171.343,351.303v-35.485
	c0-6.989,5.685-12.673,12.673-12.673v-15.208c-6.989,0-12.673-5.685-12.673-12.673v-35.485c0-6.989,5.685-12.673,12.673-12.673
	v-15.208c-6.989,0-12.673-5.685-12.673-12.673v-39.541c0-29.909,24.333-54.242,54.242-54.242h7.604V76.04h45.624v29.402h7.604
	c29.909,0,54.242,24.333,54.242,54.242v39.541c0,6.989-5.685,12.673-12.673,12.673v15.208c6.989,0,12.673,5.685,12.673,12.673
	v35.485c0,6.989-5.685,12.673-12.673,12.673v15.208c6.989,0,12.673,5.685,12.673,12.673v35.485c0,6.989-5.685,12.673-12.673,12.673
	v15.208c6.989,0,12.673,5.685,12.673,12.673v18.756H171.343v-18.756c0-6.989,5.685-12.673,12.673-12.673v-15.208
	C177.027,363.976,171.343,358.292,171.343,351.303z M327.984,496.792H184.016c-6.989,0-12.673-5.685-12.673-12.673v-58.297h169.315
	v58.297C340.657,491.107,334.973,496.792,327.984,496.792z"/>
<path d="M254.947,401.489c14.217,0,27.584-5.537,37.637-15.59c10.054-10.053,15.591-23.42,15.591-37.638
	c0-14.217-5.537-27.584-15.551-37.597c-0.24-0.244-24.15-24.638-30.59-41.199l-3.944-10.139l-8.168,7.187
	c-25.839,22.739-31.467,30.006-38.978,42.298c-15.792,25.847-13.176,57.548,6.363,77.087
	C227.362,395.952,240.729,401.489,254.947,401.489z M223.922,316.74c5.66-9.265,9.598-15.022,28.658-32.231
	c10.206,17.451,28.313,35.918,29.251,36.868c7.181,7.18,11.135,16.728,11.135,26.884c0,10.156-3.954,19.703-11.136,26.885
	c-7.18,7.181-16.728,11.135-26.884,11.135c-10.156,0-19.703-3.954-26.885-11.136C213.507,360.59,211.805,336.574,223.922,316.74z"/>
<path d="M257.335,220.148c9.653-0.001,19.308-3.675,26.655-11.024c7.12-7.12,11.043-16.587,11.043-26.657
	c0-10.07-3.922-19.537-11.002-26.616c-4.314-4.383-16.246-17.65-19.61-26.298l-3.944-10.139l-8.168,7.187
	c-17.312,15.234-21.11,20.148-26.209,28.494h0.001c-11.045,18.074-9.162,40.291,4.576,54.029
	C238.028,216.474,247.68,220.149,257.335,220.148z M239.08,163.024L239.08,163.024c3.367-5.511,5.786-9.083,16.12-18.586
	c6.78,10.566,16.613,20.68,18.038,22.125c4.248,4.247,6.588,9.896,6.588,15.903c0,6.008-2.34,11.655-6.588,15.903
	c-8.769,8.771-23.037,8.769-31.806,0C232.818,189.756,231.829,174.891,239.08,163.024z"/>
<g>
</g>
<g>
</g>
<g>
</g>
<g>
</g>
<g>
</g>
<g>
</g>
<g>
</g>
<g>
</g>
<g>
</g>
<g>
</g>
<g>
</g>
<g>
</g>
<g>
</g>
<g>
</g>
<g>
</g>
</svg>
