<?xml version="1.0" encoding="utf-8"?>
<!-- Generator: Adobe Illustrator 19.2.1, SVG Export Plug-In . SVG Version: 6.00 Build 0)  -->
<svg version="1.1" id="Layer_1" xmlns="http://www.w3.org/2000/svg" xmlns:xlink="http://www.w3.org/1999/xlink" x="0px" y="0px"
	 viewBox="0 0 323 544" style="enable-background:new 0 0 323 544;" xml:space="preserve">
<style type="text/css">
	.st0{fill:#8CC153;}
	.st1{fill:#79AA41;}
	.st2{fill:#A0D468;}
	.st3{fill:#5D9CEC;}
	.st4{opacity:0.2;}
	.st5{fill:#FFFFFF;}
</style>
<path class="st0" d="M70.7,52.4c0,0-4.7,74.5,30.2,110.2c21.4,21.9,56.5,22.3,78.5,1l0,0c21.9-21.4,22.3-56.5,0.9-78.5
	C145.3,49.4,70.7,52.4,70.7,52.4z"/>
<path class="st1" d="M174.5,153.7c-3.4-5.1-8.4-11.7-14.8-19.7c-10.8-13.3-21.8-25.6-22.3-26.1l0,0c-1.8-2-4.4-3.4-7.4-3.5
	c-5.9-0.3-10.9,4.2-11.2,10c-0.2,2.9,0.9,5.7,2.7,7.7l0,0c17.1,19.2,36.8,43.6,38.7,49.4c-0.3-0.8-0.6-3.8,1.4-6.8l17.6,12
	C184.6,168.8,178.6,159.7,174.5,153.7z"/>
<path class="st2" d="M291.9,15c0,0-95.7,7.5-134.9,58.4c-24,31.2-18.2,76,13,100.1l0,0c31.3,24,76,18.1,100-13.2
	C309.2,109.4,291.9,15,291.9,15z"/>
<path class="st0" d="M240.4,89.5c-1-5.8-6.5-9.7-12.3-8.8c-1.6,0.3-3,0.9-4.3,1.7l0,0c-1,0.7-25.7,17.8-47.4,48.7
	c-29,41.3-38.6,87.6-27.8,133.9l20.8-4.9c-5.2-22.3-5.1-44.4,0.5-65.9c4.5-17.3,12.4-34.2,23.6-50.3c19.4-27.9,42.2-43.8,42.4-43.9
	l0,0C239.2,97.8,241.1,93.7,240.4,89.5z"/>
<path class="st3" d="M308.8,377.9c0,82.2-66.7,148.9-148.9,148.9C77.7,526.8,11,460.2,11,377.9C11,295.7,77.7,229,159.9,229
	C242.2,229,308.8,295.7,308.8,377.9z"/>
<g>
	<path class="st0" d="M281.1,361.3c-29.3,2.2-38.7-15-34.9-20.2c6.7-9.1,38.5,13,40.6-3.4c0.3-2.7,6.8-9.5,12.8-11.5
		c-14.4-39-44.8-70.3-83.1-86.1c-1.2,4-2.2,7.1-2.8,7.4c-22.4,10.9-48.8,15.9-64.6,36.8c-2.2,2.9-5.2,8.5-2,12
		c3.9,4.3,14.4-0.1,19.6,0.2c14.4,1,54.9,10.5,56.2,17s-15.4,19-31.7,10c-4.8-2.6-24-5.9-30.5-7.1c-4.6-0.8-43.9,4.1-42.1,50.8
		c0.7,18.9,12.6,31.1,31.7,31.4c15.9,0.2,31.9-1.7,37.1,17.1c4.4,15.9,2.7,32.4,6.6,48.2c1.6,6.4,4.9,15.3,13,16
		c12.2,1.1,20.5-7.2,27.8-15.7c5.9-6.8,13.3-12.7,17.6-20.7c6.9-12.7,5-27.7,12.4-40.4C270.7,392.9,290.3,360.6,281.1,361.3z"/>
	<path class="st0" d="M58.8,406.9c-4.7-6.8-10-13.3-14.8-20c-4.5-6.2-21.9-34.5-30-38.9c-2,9.7-3,19.7-3,29.9
		c0,36.3,12.9,69.5,34.5,95.3c0.6,0.7,13.5-9,14.6-9.9c4.8-4,8.8-9,10.6-15.1C74.9,434,66.6,418.3,58.8,406.9z"/>
</g>
<g class="st4">
	<path class="st5" d="M159.9,229c-3.6,0-7.1,0.1-10.7,0.4c77.3,5.5,138.2,69.9,138.2,148.5c0,78.7-61,143.1-138.2,148.5
		c3.5,0.2,7.1,0.4,10.7,0.4c82.3,0,148.9-66.7,148.9-148.9C308.8,295.7,242.2,229,159.9,229z"/>
</g>
</svg>
