<?xml version="1.0" encoding="utf-8"?>
<!-- Generator: Adobe Illustrator 19.2.1, SVG Export Plug-In . SVG Version: 6.00 Build 0)  -->
<svg version="1.1" id="Capa_1" xmlns="http://www.w3.org/2000/svg" xmlns:xlink="http://www.w3.org/1999/xlink" x="0px" y="0px"
	 viewBox="0 0 223.3 561.3" style="enable-background:new 0 0 223.3 561.3;" xml:space="preserve">
<style type="text/css">
	.st0{fill:#BFC7C8;}
	.st1{opacity:0.8;fill:#BFC7C8;}
	.st2{opacity:0.8;fill:#FFFFFF;}
	.st3{opacity:0.7;fill:#8BBDBE;}
	.st4{opacity:0.4;}
	.st5{fill:#8E9696;}
	.st6{opacity:0.4;fill:#7CB8CE;}
	.st7{opacity:0.7;}
	.st8{opacity:0.5;fill:#FFFFFF;}
	.st9{fill:#2F2F2D;}
	.st10{opacity:0.7;fill:#3B3B3A;}
	.st11{fill:#3B3B3A;}
	.st12{opacity:0.5;fill:#3B3B3A;}
	.st13{fill:#535352;}
	.st14{opacity:0.2;fill:#BFC7C8;}
	.st15{opacity:0.5;fill:#BFC7C8;}
	.st16{fill:#FFFFFF;}
	.st17{opacity:0.5;fill:#878C83;}
	.st18{fill:#010002;}
	.st19{fill:#15773E;}
	.st20{fill:#106335;}
	.st21{fill:#0E5C32;}
	.st22{fill:#76B1D7;}
	.st23{fill:#1D67AB;}
	.st24{fill:#B1B1B0;}
	.st25{fill:#F3DB3B;}
	.st26{fill:#828281;}
	.st27{fill:#C02C2C;}
	.st28{fill:#9D151B;}
	.st29{fill:#6B191B;}
	.st30{fill:#252524;}
	.st31{opacity:0.5;}
	.st32{fill:#DBEAE2;}
	.st33{opacity:0.9;fill:#75B5C7;}
	.st34{opacity:0.9;fill:#5EAAB6;}
	.st35{opacity:0.9;fill:#43A2AE;}
	.st36{fill:#ADC3B7;}
	.st37{fill:#BFBFBE;}
	.st38{fill:#EBC42C;}
	.st39{fill:#C7C6C6;}
	.st40{opacity:0.9;}
	.st41{fill:#43A2AE;}
	.st42{fill:#C7542E;}
	.st43{fill:#5BA053;}
	.st44{fill:#A2ADA8;}
	.st45{fill:#7D8581;}
	.st46{fill:#EDEDED;}
	.st47{fill:#F7F7F7;}
	.st48{fill:#DBDBDB;}
	.st49{fill:none;}
	.st50{fill:#E0E0E0;}
	.st51{fill:#EBEBEB;}
	.st52{fill:#D1D1D1;}
	.st53{fill:#A4A69E;}
	.st54{fill:#BD9297;}
	.st55{fill:#C2B48C;}
	.st56{fill:#92C0C1;}
	.st57{fill:#A6A7AA;}
	.st58{fill:#D6D6D6;}
	.st59{opacity:0.3;fill:#B2BCAF;}
	.st60{fill:#BDBDBD;}
	.st61{fill:#5CA263;}
	.st62{opacity:0.7;fill:#A6A6A6;}
	.st63{opacity:0.3;fill:#5BA053;}
	.st64{fill:#7C1D1D;}
	.st65{fill:#B12516;}
	.st66{fill:#C1302E;}
</style>
<g>
	<g>
		<path class="st0" d="M56,523c0,0-18.6,2.3-25,4.2c-6.4,1.9-6.8,6.1,0,6.9c6.8,0.9,23.6,1.6,19.3,2.9c-4.3,1.4-11.1,3.8-6.1,6.8
			c5,2.9,25.8,4.7,40.4,4.3c14.6-0.3,33.3-0.9,36.4-3.6c3.1-2.8-6.4-8.5,5.4-10.8c11.8-2.3,12-7.3,3.6-10.9
			C121.8,519.1,79.1,520.3,56,523z"/>
		<path class="st1" d="M58,523.1c0,0-17.5,2-23.6,3.8c-6.1,1.7-6.4,5.5,0,6.3c6.4,0.8,22.3,1.4,18.2,2.7c-4.1,1.3-10.5,3.5-5.7,6.1
			c4.7,2.7,24.4,4.2,38.1,3.9s31.4-0.8,34.4-3.3c2.9-2.5-6.1-7.7,5.1-9.7c11.1-2,11.3-6.6,3.4-9.9C120,519.6,79.7,520.7,58,523.1z"
			/>
		<g>
			<path class="st2" d="M42.8,526.6c1.2-0.2,2.3-0.5,3.5-0.7c0.8-0.2,1.5-0.5,2.2-0.7c-2.6,0.2-5.1,0.3-7.7,0.7
				c-1.4,0.3-2.7,0.6-4,1.1c-1.8,0.6-5.2,1.3-5.2,3.7c1.5-2.5,6.2-3.2,8.6-3.6C41.1,526.8,41.9,526.7,42.8,526.6z"/>
			<path class="st2" d="M56.2,535.1c-1.3,0.8-2.7,1.3-4,2.2c1.6-0.3,3.2-0.6,4.6-1.4c0.6-0.3,1.2-1,1.4-1.6c0-0.5-0.4-0.9-1-1.2
				c-0.6-0.2-1.2-0.2-1.7-0.4c-0.7-0.1-1.3-0.3-2-0.4c-0.7-0.1-1.4-0.1-2-0.1c-0.3,0-0.6,0.1-0.8,0.1c0,0,0,0,0,0
				c1.1,0.2,2.2,0.5,3.3,1C54.5,533.5,57.3,534.5,56.2,535.1z"/>
			<path class="st2" d="M102.8,544.5c2.3-0.2,4.6-0.5,6.9-0.8c1.9-0.3,7.5-0.6,7.4-3.6c0-0.1-0.1,0-0.1,0c-1,2.6-9.6,2.6-11.8,2.9
				c-4.5,0.6-9,1-13.5,1.5c0,0-0.1,0-0.1,0.1C95.3,544.5,99,544.5,102.8,544.5z"/>
		</g>
	</g>
	<g>
		<path class="st3" d="M59.9,497.1c0,0-1.9-3-4.4,0.7c-2.5,3.7-3.7,25.9-0.2,28.8c0,0,1.5,2.4,4-1.3h3.9c0,0,0.5,1.9,2,1.4
			c1.5-0.5,2-2.2,2-2.2l5.8,0.7c0,0,19.4,14,22.3,14.7c2.9,0.7,6.1,0.5,9.3-1c3.1-1.5,10.1-5.3,10.1-5.3s3.1-2.4,3.6-4.4
			c0.5-2,0.9-2.3,0.9-2.3l6.4-6.4c0,0,0.5-0.6,1.2,0.2c0.7,0.8,3,2.8,4.2,2.7c1.2-0.1,5.3-1.8,5.3-1.8s2.2-1.4,2.2-3.6
			c0-2.2,0.5-6.2,0.5-6.2s3.9,5.2,5.3,5c1.4-0.2,3.7-2.8,5.6-1.8c1.9,0.9,7.2,6.5,12.1,8.1c5,1.6,12.3,2.3,15.2,1
			c2.9-1.3,5.2-5,5.2-5s4.7-17.1,1.6-27.8c-3.1-10.6-9.5-25-12.5-25.2c-3-0.2-5.9-2.9-14.2,0.9c-8.3,3.8-6.2,3.7-7.2,4.5
			c-0.9,0.8-7.9,12.4-8.2,12.8c-0.3,0.5-2-1.6-3-0.8c-1,0.8-1,0.8-1,0.8s-0.5-1.4-1.4-0.2c-0.9,1.2-3.4,4.6-5.2,4.5
			c-1.9-0.1-10.3-5.3-10.9-5.4c-0.6-0.1-5.9,4.5-5.9,4.5s-10.5-9.4-12.6-9c-2.1,0.3-12.3,5.3-13.4,5c-1.2-0.3-2.1-2.2-3.7-0.6
			c-1.6,1.6-11.7,14.6-11.7,14.6s-4.2,0.5-3.8,0.3c0.3-0.1-1-2.1-2.8-1.8c-1.7,0.2-2.1,1.4-2.1,1.4L59.9,497.1z"/>
		<g class="st4">
			
				<ellipse transform="matrix(5.356547e-02 -0.9986 0.9986 5.356547e-02 -456.9798 540.6818)" class="st5" cx="56.7" cy="511.4" rx="14.3" ry="3.1"/>
			<path class="st0" d="M60.5,498.1c0,0,3.9,11.9-0.9,26.7C59.6,524.8,65.8,510.8,60.5,498.1z"/>
			<path class="st0" d="M65,497.9c0,0,3.2,3,2.4,13.1c-0.8,10.1-4.2,14.3-4.2,14.3s5.4-6.5,4.9-17.5C68.1,507.9,68.1,499.2,65,497.9
				z"/>
			<path class="st0" d="M68.8,497.7c0,0,3.2,2.9,2.4,12.8c-0.8,9.8-4.1,14-4.1,14s5.3-6.3,4.7-17.1
				C71.8,507.4,71.8,498.9,68.8,497.7z"/>
			<path class="st0" d="M73.7,498.1c0,0,3.3,2.8,2.9,12.6c-0.4,9.8-3.5,14.2-3.5,14.2s5-6.5,4-17.2
				C77.1,507.6,76.7,499.2,73.7,498.1z"/>
			<path class="st0" d="M90.5,489.2c0,0,15.5,19.1,8.4,47C98.9,536.1,108.7,510.5,90.5,489.2z"/>
			<path class="st0" d="M114.3,487.7c0,0,3.8,5.2,4.3,8.8c0.5,3.6,0.3,29.8,0.3,29.8s1.3-25.2,1-28.7
				C119.7,494.1,114.3,487.7,114.3,487.7z"/>
			<path class="st0" d="M137.6,484.3c0,0-12,35.9-12.1,36.2C125.4,520.8,135.4,499.1,137.6,484.3z"/>
			<path class="st0" d="M141.8,502.3c0,0-3.8-0.3-3.4,8.9l0.3,1.3l1.6-6.9c0,0,1.6-1.8,2-1.8c0.3,0,2.9,0.3,2.9,0.3
				S143.9,501.5,141.8,502.3z"/>
			<path class="st0" d="M141.7,484.3c0,0,3,3.1,3.2,5c0.2,1.9,1.2,8.1,2.9,11.7c0,0,5.2,6.6,8.3,9.9c0,0-7.3-9.4-8.3-13.4
				c-1-4-2-9.1-2-9.1L141.7,484.3z"/>
			<path class="st0" d="M167.5,468.2c0,0,3.4,4.4,3.4,9.8c0,5.4-5.4,12.7-2.3,19.4c3.1,6.7,8.3,9.4,6.7,18.3c0,0,3.2-5.4-0.7-11.6
				c-3.9-6.1-6.4-7.7-5.7-13.4c0.7-5.7,4.2-9.7,2.4-15.3C169.6,470,167.5,468.2,167.5,468.2z"/>
			<path class="st0" d="M165,467.5c0,0-3.3-0.7-5.2,12.5c-1.9,13.2,3.8,28.6,4.3,29.1C164.1,509.2,156.1,482.4,165,467.5z"/>
		</g>
		<path class="st6" d="M183.8,491.2c-3.1-10.6-9.5-25-12.5-25.2c-3-0.2-5.9-2.9-14.2,0.9c-8.3,3.8-6.2,3.7-7.2,4.5
			c-0.9,0.8-7.9,12.4-8.2,12.8c-0.3,0.5-2-1.6-3-0.8c-1,0.8-1,0.8-1,0.8s-0.5-1.4-1.4-0.2c-0.9,1.2-3.4,4.6-5.2,4.5
			c-1.9-0.1-10.3-5.3-10.9-5.4c-0.6-0.1-5.9,4.5-5.9,4.5s-10.5-9.4-12.6-9c-2.1,0.3-12.3,5.3-13.4,5c-1.2-0.3-2.1-2.2-3.7-0.6
			c-1.6,1.6-11.7,14.6-11.7,14.6s-4.2,0.5-3.8,0.3c0.3-0.1-1-2.1-2.8-1.8c-1.7,0.2-2.1,1.4-2.1,1.4l-4.3-0.3c0,0-1.9-3-4.4,0.7
			c-2.5,3.7-3.7,25.9-0.2,28.8c0,0,1.5,2.4,4-1.3h3.9c0,0,0.5,1.9,2,1.4c1.5-0.5,2-2.2,2-2.2l5.8,0.7c0,0,19.4,14,22.3,14.7
			c2.9,0.7,6.1,0.5,9.3-1c3.1-1.5,10.1-5.3,10.1-5.3s3.1-2.4,3.6-4.4c0.5-2,0.9-2.3,0.9-2.3l6.4-6.4c0,0,0.5-0.6,1.2,0.2
			c0.7,0.8,3,2.8,4.2,2.7c1.2-0.1,5.3-1.8,5.3-1.8s2.2-1.4,2.2-3.6c0-2.2,0.5-6.2,0.5-6.2s3.9,5.2,5.3,5c1.4-0.2,3.7-2.8,5.6-1.8
			c1.9,0.9,7.2,6.5,12.1,8.1c5,1.6,12.3,2.3,15.2,1c2.9-1.3,5.2-5,5.2-5S186.9,501.9,183.8,491.2z M61.3,513.4c-0.1,0.6-1,0.4-1-0.1
			c0-4.4,0.5-8.9-1-13.1c-0.1-0.3,0-0.5,0.2-0.6c0-0.1,0-0.2,0-0.3c0-0.5,0.7-0.7,1-0.3C62.9,502.8,62.4,509.2,61.3,513.4z
			 M67.8,508.4c-0.1,2.2-1.3,6.1-4,3.4c-0.9-0.8-0.7-2.9-0.8-3.9c-0.1-2.5,0-5.1-1.3-7.3c-0.2-0.3,0-0.5,0.2-0.7
			c0.1-1.4,1.6-1.7,3.4-0.8C67.8,500.3,68,506.1,67.8,508.4z M69.9,509.9c-0.2,0.3-0.7,0.3-0.9,0c-0.8-1.2-0.7-2.5-0.7-3.9
			c-0.1-2-0.6-4-1.3-5.8c-0.1-0.2,0-0.3,0.1-0.4c0-0.3,0-0.6,0-1c0.1-0.3,0.4-0.4,0.6-0.4C71.3,499.4,71.8,507.3,69.9,509.9z
			 M76,514.1c-0.3,1.6-0.8,2.8-2.3,3.7c-0.8,0.5-1.4-0.1-1.6-0.8c-0.4-1.1-0.1-2.8-0.2-4c-0.1-1.4-0.2-2.8-0.2-4.2
			c0-3-0.1-6-1.2-8.9c-0.1-0.2,0-0.4,0.2-0.5c0.9-3,3.9,0.9,4.4,2.4C76.2,505.5,76.7,510.3,76,514.1z M96.9,524.8
			c-2.3,3.1-5.8,1.1-8.5-0.4c-2.7-1.4-5.5-2.9-8.1-4.6c-1.6-1-2.8-2.1-3.3-4c-0.6-2.6,0.4-5.5,0.1-8.2c-0.3-2.9-1.7-6.1-1.4-9
			c0.2-2,2.3-4,3.5-5.5c1.9-2.4,4-4.6,5.7-7.2c0,0,0,0,0,0c0.1-0.1,0.1-0.2,0.2-0.3c0.2-0.3,0.5-0.3,0.7-0.2
			c3.6-0.5,8.7,12.7,9.3,14.4c1.9,5.2,3.1,10.4,3.2,16C98.4,518.5,98.6,522.4,96.9,524.8z M111.1,508c-1.4,2-3,3.9-4.6,5.7
			c-0.8,0.9-2.1,3.3-3.5,3.4c-0.8,0.1-1.2-0.5-1.4-1.2c-0.5-2.3-0.9-4.7-1.5-6.9c-1.5-5.7-3.5-11.2-6.3-16.4
			c-1.3-2.3-3.4-5.8-0.7-7.9c1.9-1.5,4.2-2.2,6.3-3.3c0.7-0.8,1.7-1.6,2.5-1.3c1.6,0.6,2.4,2.2,3.5,3.5c3,3.6,5.7,7.5,7.4,11.9
			C115,500.4,114.2,503.7,111.1,508z M130.4,493.9c-0.4,1.5-1.4,2.7-2,4c-0.8,1.8-1.6,3.6-2.4,5.3c-1.1,2.2-1.4,5.4-3.4,7.1
			c-0.3,0.2-0.8,0.2-0.9-0.2c-0.6-2.8-0.3-5.6-0.1-8.5c0.1-3.3-0.5-5.7-2.2-8.4c-1-1.5-2.1-3.2-2.2-5c0-1.5,1.8-3,2.8-3.9
			c0.2-0.2,0.4-0.2,0.6-0.1c0.9,0,1.3,0.7,2,1.3c1.3,1.3,2.8,2.2,4.2,3.3C128.2,489.9,131.1,491.7,130.4,493.9z M141.1,497.9
			c-2.2,2.2-2.2,5.2-3.6,7.8c-1.2,2.2-3.3,3.7-4.9,5.6c-0.3,0.3-0.9,0.1-0.9-0.4c0.2-3.6,1.6-7.4,2.6-10.9c1-3.5,2-6.9,3.1-10.4
			c0.3-1.2,0.7-2.5,1-3.7c0.1-0.5,0.8-0.5,1,0c0.6,1.7,1.1,3.4,1.8,5c0.5,1.2,1.5,2.6,1.7,3.9C143,496.5,142.1,496.8,141.1,497.9z
			 M168.6,509.6c0,0.2-0.2,0.5-0.4,0.5c-5.1,0.8-11.5-3-14.7-6.7c-2-2.3-4.6-5.3-5.5-8.3c-0.1-0.4-0.2-0.7-0.3-1.1
			c-0.4-0.7-0.6-1.4-0.5-2.3c0-0.4,0.1-0.8,0.1-1.1c0-0.2,0-0.4-0.1-0.6c-0.1-1.5-0.7-2.7-1.4-3.9c-1.6-1.4-2.3-2.8-0.8-4.8
			c1.6-2.2,3.3-4.4,5-6.5c0.7-1.3,1.6-2.5,2.7-3.3c2.1-1.4,4.6-1.9,6.8-3.1c0.1-0.1,0.3-0.1,0.4-0.1c0.1,0,0.2-0.1,0.2-0.1
			c0.3-0.1,0.7-0.1,0.8,0.3c0.4,2.7-0.1,5.3-0.1,8c0.6-1.7,1.3-3.4,2.2-5c0-0.1,0.1-0.2,0.1-0.3c0-0.1,0.1-0.2,0.2-0.3
			c0.1-0.1,0.1-0.2,0.1-0.3c0.2-0.3,0.7-0.4,0.9,0c1.4,2.9,2.9,6,3.4,9.2c0.5,3-0.4,5.5-1.1,8.3c-0.6,2.3-1.2,5,0.1,7.2
			c0.7,1.3,1.7,2.5,2.3,3.9c0.2,0.6,0.4,1.2,0.5,1.8c0.3,0.8,0.3,1.6,0,2.3C169.4,505.5,168.7,507.5,168.6,509.6z M180.8,505.4
			c-0.1,0.3-0.4,0.4-0.6,0.4c-2.6-0.7-4.4-2.9-6.3-4.7c-2-2-3.7-4.4-4.3-7.3c-0.7-3.2,0.4-6.5,1.1-9.6c0.1-0.6,0.3-1.1,0.5-1.7
			c0.1-2.5,0.3-5.2-0.3-7.6c-0.5-1.9-1.4-3.6-1.9-5.6c-0.1-0.5,0.5-0.9,0.9-0.5c4.9,4.4,7.6,10.7,9.2,16.9c0.9,3.3,1.4,6.7,1.8,10.1
			C181.1,499.1,181.5,502.3,180.8,505.4z"/>
		<g class="st7">
			<path class="st2" d="M87.9,489.3c-1.4,1.2-2.7,2.3-4.1,3.5c-2.1,2-3.8,4.2-5.8,6.3c0.3,1.3,0.7,2.5,1.1,3.8
				c3.4-2.6,6.7-5.2,9.7-8.2c0.1-0.1,0.1-0.2,0.1-0.3C88.7,492.8,88.3,491.1,87.9,489.3z"/>
			<path class="st2" d="M95.4,491.7c0.1,0.2,0.3,0.4,0.4,0.7c0,0,0.1,0.1,0.1,0.1c3.6-1.1,6.9-2.8,10.3-4.5c0,0,0,0,0,0
				c-1.2-2.1-2.5-4.1-4.1-5.9c-3,2-5.9,4.1-9,5.7c0,0.1,0,0.2,0,0.3C93.8,489.2,94.6,490.5,95.4,491.7
				C95.4,491.7,95.4,491.7,95.4,491.7z"/>
			<path class="st2" d="M127.2,491.7c-1.8-2-3.5-3.9-5.7-5.4c-1,1-2.1,1.9-3.2,2.8c0,0.1,0.1,0.2,0.1,0.3c1.1,1.3,2.3,2.5,3.2,3.9
				c0.2,0.3,0.4,0.6,0.6,0.9C123.8,493.1,125.5,492.3,127.2,491.7z"/>
			<path class="st2" d="M138.5,497.8c0.5-0.6,1-1.2,1.5-1.7c0.1-0.1,0.1-0.2,0.2-0.3c0.6-0.8,0.7-1.2,0.4-2.1
				c-0.6-1.7-1-3.6-1.7-5.4c0-0.1-0.1-0.2-0.2-0.2c-0.6,2.1-1.2,4.2-1.9,6.3c-0.1,0.4-0.1,0.8-0.2,1.2c-0.3,0.8-0.5,1.5-0.8,2.3
				c-0.1,0.3-0.3,0.7-0.4,1c-0.4,1.4-0.9,2.9-1.3,4.4c0,0,0,0.1,0,0.1c0,0.1,0,0.1,0,0.2C135.6,501.6,137,499.7,138.5,497.8z"/>
			<path class="st2" d="M154.7,473.5c-1.1,1.5-2.2,3-3.3,4.5c-1.5,2.1-2.9,4.1-4.2,6.3c0.2,0.3,0.5,0.6,1.1,1
				c2.4,1.3,0.1,3.1-0.1,5.1c1.7,2,3.2,4.2,5,6c1.1-3.1,2.4-6.2,3.8-9.2c0.2-2.6,0.2-5.3,0.5-7.9c0.4-2.8,1.2-5.5,1.7-8.2
				C157.7,471.9,156.2,472.7,154.7,473.5z"/>
			<path class="st2" d="M164.5,474.7c-1.3,1.9-1.9,4.7-2.2,6.8c-0.1,0.8-0.1,1.5-0.1,2.2c-0.1,0.8-0.2,1.6-0.2,2.5
				c0.1,3.6,0.3,7.2,0.7,10.8c0,0.1,0.1,0.2,0.1,0.3c0.6-1.1,1.1-2.3,1.5-3.5c0.1-1.2,0.2-2.4,0.4-3.6c0.4-2.2,1.2-4.4,1.4-6.6
				c0-0.5,0.1-1,0-1.5C165.7,479.6,165.2,477.1,164.5,474.7z"/>
			<path class="st2" d="M176.9,488.2c0.1-0.7,0.2-1.3,0.3-1.9c0.2-1.1-0.6-2.2-1-3.2c-0.8-1.6-1.3-3.3-1.9-4.9
				c-0.1-0.3-0.3-0.3-0.5-0.3c-0.3,2.7-0.6,5.5-1.4,8.1c-0.5,1.7-1.1,3.4-1.7,5.2c1.1,1.4,2.4,2.6,3.7,3.8
				C174.9,492.6,175.9,490.4,176.9,488.2z"/>
			<path class="st2" d="M65.9,501.6c-0.2-0.6-0.7-1.5-1.5-1.1c-0.7,0.3-0.9,1.1-0.8,1.8c0,0.6,0.3,1.9,0.9,2.4
				c0.1,0.3,0.3,0.5,0.5,0.5c0.7,0.1,1.1-0.6,1.2-1.2C66.3,503.2,66.2,502.3,65.9,501.6z"/>
			<path class="st2" d="M70,501.6c-0.1-0.7-0.5-1.5-1.2-1c-0.6,0.4-0.7,1.1-0.5,1.8c0.2,0.6,0.5,1.2,1.1,1.3c0.3,0,0.6-0.2,0.8-0.5
				C70.4,502.7,70.5,501.9,70,501.6z"/>
			<path class="st2" d="M75.2,506.2c-0.1-0.6-0.1-1.3-0.3-1.9c-0.2-1.2-0.8-2.1-1.3-3.1c-0.1-0.4-0.3-0.6-0.5-0.9
				c-0.4-0.6-1.5,0.5-1.2,1.1c0.6,1.2,1.2,2.2,1.5,3.6c0.3,1.7,0.4,3.4,0.8,5C74.6,508.7,75,507.4,75.2,506.2z"/>
			<path class="st8" d="M60.8,501.8c0-0.1-0.2,0-0.2,0.1c0.2,0.8,0.1,1.6,0.3,2.3c0,0.2,0.3,0,0.3-0.1
				C61.2,503.3,61.1,502.5,60.8,501.8z"/>
		</g>
		<path class="st6" d="M183.8,491.2c-3.1-10.6-9.5-25-12.5-25.2c-0.1,0-0.2,0-0.3,0c1.1,1.6,2.2,3.3,3.1,5.1c2,3.7,3.8,7.5,5.2,11.5
			c2.7,7.5,4.2,15.6,3.3,23.6c-0.4,3.2-1,6.2-3.1,8.8c-1.5,1.8-4,5.6-6.9,5.1c-2.1-0.3-4.6-0.8-6.7-1.7c-0.6-0.1-1.3-0.2-1.9-0.4
			c-2.2-0.8-3.9-3.8-5.4-5.5c-2.9-3.5-5.8-7.1-8.5-10.7c0.4,0.7,0.7,1.5,1.1,2.2c1.4,2.9,3.5,6.1,3.3,9.5c0,0.4-0.4,0.7-0.8,0.5
			c-1.9-1.1-3.9-2.4-5.5-4c-0.8-0.8-0.7-1.4-0.3-2.3c-1.1-0.3-2.1-0.5-3.2-0.6c-0.2,0-0.4-0.3-0.4-0.5c0.1-1.6,0.5-3.1,1-4.6
			c-3-0.1-6.2,0.4-7.3,3.7c-0.9,2.7-2.1,5.4-2.7,8.2c-0.2,0.9-0.2,2.7-1.3,3c-1.5,0.5-3.1,0.4-4.6,0.6c-0.4,0-0.6-0.4-0.5-0.7
			c1.1-4.6,1.8-9.3,3.1-13.8c0.3-1.2,0.7-2.3,1.1-3.5c-0.8,1.8-1.7,3.5-2.5,5.3c-1.4,3-2.4,6.3-4.4,8.9c-1.6,2.1-3.7,3.7-5.8,5.2
			c-0.3,0.2-0.8-0.1-0.8-0.5c-0.1-3.8-0.3-7.6-0.7-11.4c-0.2,5.3-1,10.6-2.1,15.9c-0.7,3.3-1.7,5.8-4.9,7.3c-3.5,1.6-7,3.4-10.7,4.7
			c-0.2,0.1-0.6-0.1-0.6-0.4c-0.3-2.2,0.5-4.4,0.5-6.6c0-1-0.1-2-0.2-3c-0.5,1.4-1,2.8-1.6,4.2c-0.5,1.1-1,2.7-2.3,3.1
			c-1.4,0.5-3.6,1.5-5.2,0.9c-2.4-0.9-4.4-2.6-6.6-3.9c-2.5-1.4-4.9-2.7-7.3-4.2c-0.7-0.5-2.5-1.2-2.5-2.4c0.1-1.2,0.4-2.5,0.7-3.7
			c-0.9,1.1-1.9,2.1-3.2,2.3c-1.2,0.1-2.6-0.7-3.6-0.3c-1.2,0.5-1.2,1.1-2.5,1c-0.5,0-1-0.5-1.2-1c-0.4-1.3-1.9-1.2-3.2-1.2
			c-1.2,0-2.3,0.9-3.1,0.5c-0.5,2.5-1.4,5-3.8,6.1c-0.2,0.1-0.4,0.2-0.7,0.2c0.1,0.1,0.2,0.3,0.3,0.4c0,0,1.5,2.4,4-1.3h3.9
			c0,0,0.5,1.9,2,1.4c1.5-0.5,2-2.2,2-2.2l5.8,0.7c0,0,19.4,14,22.3,14.7c2.9,0.7,6.1,0.5,9.3-1c3.1-1.5,10.1-5.3,10.1-5.3
			s3.1-2.4,3.6-4.4c0.5-2,0.9-2.3,0.9-2.3l6.4-6.4c0,0,0.5-0.6,1.2,0.2c0.7,0.8,3,2.8,4.2,2.7c1.2-0.1,5.3-1.8,5.3-1.8
			s2.2-1.4,2.2-3.6c0-2.2,0.5-6.2,0.5-6.2s3.9,5.2,5.3,5c1.4-0.2,3.7-2.8,5.6-1.8c1.9,0.9,7.2,6.5,12.1,8.1c5,1.6,12.3,2.3,15.2,1
			c2.9-1.3,5.2-5,5.2-5S186.9,501.9,183.8,491.2z"/>
	</g>
</g>
<g>
	<path class="st9" d="M175,39.9c0,0-29.2,9.3-33.6,31.6l9.1,16.6c0,0,4.2-3,7.7-0.3c3.4,2.8,23.8,12.3,24.4,11.8
		c0.6-0.5,2.2-4.3,2.2-4.3l-4.2-19.1c0,0,3.4-4.5,4-5c0.6-0.5-7.3-15.3-7.3-15.3l1.2-6.5L175,39.9z"/>
	<path class="st10" d="M180.5,76.3c0,0,3.4-4.5,4-5c0.6-0.5-7.3-15.3-7.3-15.3l1.2-6.5l-3.4-9.5c0,0-29.2,9.3-33.6,31.6l9.1,16.6
		c0,0,4.2-3,7.7-0.3c3.4,2.8,23.8,12.3,24.4,11.8c0.6-0.5,2.2-4.3,2.2-4.3L180.5,76.3z M152.9,70.2c-0.3,0.1-0.7-0.3-0.6-0.7
		c0.9-2.7,2.5-4.8,4-6.9c0.7-1,1.5-2,2.2-2.9c-0.9,0.8-1.8,1.5-2.7,2.1c-2.7,1.8-5.7,2.9-8.6,4.2c-0.3,0.1-0.7-0.3-0.6-0.7
		c1.6-5.9,4.9-10.1,8.8-13.3c5.1-5.5,11.7-8.6,18.3-10.1c0.2-0.1,0.5,0.1,0.6,0.4c0.2,1.5-1,9.5-2.3,11.7c-0.6,1.1-1.7,1.6-2.8,2
		c1.8,0.4,3.7,0.7,5.3,1.9c0.3,0.2-5.1,6.7-9,8.2C161.4,67.6,157.1,68.9,152.9,70.2z M155.4,74.7c-0.1-0.1-0.2-0.3-0.1-0.5
		c0-0.3,0.1-0.5,0.3-0.6c0.4-0.1,0.7-0.2,1.1-0.4c0.7-0.3,1.4-0.6,2.1-0.9c2.3-1.1,4.6-2.4,7-3.1c0.3-0.1,0.6-0.2,0.9-0.2
		c4-1.7,8.2-2.7,12.3-2.6c0.3,0-3.4,5.5-5.2,8c-1.5,2.2-3.1,4.6-5.5,5.1c-2.2,0.6-5-0.4-7.1-1.2C159.1,77.5,157.1,76.4,155.4,74.7z
		 M179.7,81.4c-0.2,2-0.6,4.1-1,6c-0.3,1.6-0.7,2.9-2,3.6c-1.5,0.8-4.9-1-6.3-1.6c-2.5-1.1-5-2.3-7.3-4c-0.3-0.2-0.3-0.9,0.1-1
		c2.5-0.7,4.8-0.2,7.3-0.2c0.6,0,1.2-0.1,1.7-0.1c2-2.7,4.6-4.4,7.1-6.4c0.2-0.2,0.6,0,0.7,0.3C180.2,79.3,180,80.3,179.7,81.4z"/>
	<g>
		<path d="M149.6,68c1.5-1.4,3-2.7,4.6-3.9c0.6-0.5,1.1-0.9,1.7-1.4c2.3-2,4.6-4.1,6.9-6.2c-3.3,2-6.4,4.2-9.4,6.7
			c-0.7,0.6-7,5.9-7.1,7.7C147.4,69.9,148.5,68.9,149.6,68z"/>
		<path d="M157.1,70.1c-2.3,0.8-4.5,1.9-6.6,3.1c3,0.2,6.1-1,8.9-2.2c1.6-0.7,3.1-1.4,4.6-2.2c-2,0.3-4,0.5-6,1
			C157.7,69.9,157.4,70,157.1,70.1z"/>
		<path d="M154.4,81c0.8,0.3,1.6,0.6,2.4,0.8c1.2,0.2,2.5,0,3.7-0.3c0,0-0.1-0.1-0.1-0.1c-2.4-0.6-4.7-0.8-7.1-1.3
			C153.6,80.5,154,80.8,154.4,81z"/>
		<path d="M182.6,73.1c-1.1,0.9-2.2,1.8-3.3,2.7c-0.4,0.5-0.9,1-1.3,1.4c-0.8,0.7-1.5,1.5-2.3,2.2c-1.1,1.4-2.1,2.9-3.1,4.4
			c2.3-1.8,4.3-4,6.4-6.2C180.1,76.3,181.7,74.7,182.6,73.1C182.6,73.1,182.6,73.1,182.6,73.1z"/>
		<path d="M170.8,55.9c0.4,0.3,0.9,0.3,1.3,0.6c1.1,0.6,2.3,0.7,3.5,0.5c0.2,0,0.3-0.2,0.4-0.5C174.3,55.9,172.5,55.5,170.8,55.9z"
			/>
	</g>
	<path class="st11" d="M143,69.3c0,0-11.9-3.5-13.7-1.8c-1.8,1.8-10.9,13.3-14.1,14.6c-3.2,1.3-30.8,10.5-34.2,12.8
		c-3.4,2.3-24.4,12.8-28.4,16.6c-4,3.8-7.3,13.8-7.3,13.8s-20.1,47.2-28.6,59.8C8.2,197.6,4,207.2,6,213.2c2,6,11.9,19.8,14.5,22.9
		c2.6,3,18.3,15.8,21.2,16.3c2.8,0.5,16.3,0.5,23.8,1.3c7.5,0.8,45.9,6,51.6,6.3c5.6,0.3,17.5,2,25,0c7.5-2,37.7-10.8,43.7-12.3
		c6-1.5,18.1-4.5,18.3-9.5c0.2-5-1.4-71.3-1.4-71.3s-0.4-8.5-3-11.8c-2.6-3.3-13.7-24.1-19.7-31.6c-6-7.5-19.5-25.1-20.1-26.1
		c-0.6-1-4.4-5.3-4.4-6.5c0-1.3-2.2-7.5-2.2-7.5S147,71,143,69.3z"/>
	<g>
		<path d="M46.9,126.7c0-0.3,0.1-0.6,0.1-1c-0.9,3.6-2.6,7.2-3.5,10.5c-1.3,4.3-2.2,8.8-3.1,13.2c-1.8,8.6-2.1,17.5-1.7,26.3
			c0,0.5,0.7,0.1,0.7-0.3c0-9.2,0.7-18.5,2.4-27.5c0.9-4.9,1.9-9.8,3.1-14.5C45.4,131.3,46.3,129,46.9,126.7z"/>
		<path d="M59.9,139.3c-0.8,2.3-1.6,4.5-2.3,6.8c0.5-0.9,1-1.9,1.6-2.8c0.5-1.3,1-2.6,1.6-4c0.7-1.8,1.7-4.1,1.2-6.2
			c-0.4-1.5-0.9-3-1.4-4.5c-1.7-3.1-3.7-6.1-5.8-8.9c0.9,3.7,2.2,8.2,4.3,11.1C61,133.7,61.1,135.9,59.9,139.3z"/>
		<path d="M58.6,157.8c-0.3-0.3-0.7-0.6-1-0.9c1.5,4.3,3.7,11.2,4,12.3c1.3,5.5,2.4,11,3.6,16.5C64.4,175.8,63.1,165.8,58.6,157.8z"
			/>
		<path d="M83.5,144.5c-0.1-1.4-0.1-2.7-0.2-4.1c-0.4-4-0.7-8.1-1-12.2c-0.2-3.3-0.5-6.6-0.4-9.9c0-0.1,0-0.2,0-0.4
			c-0.1-1-0.2-1.9-0.4-2.8c-0.2,2-0.5,4-0.6,5.9c-0.2,3.1,0,6.3,0.1,9.4c0.3,6.6,1.4,13,3,19.3C83.8,148,83.6,146.3,83.5,144.5z"/>
		<path d="M115,136.8c3.2-2.7,6.5-5.4,9.6-8.4c-0.4,0.2-0.7,0.4-1.1,0.6c-3.4,1.8-6.6,4.2-9.8,6.6c-1.8,1.3-3.6,2.7-5.3,4.1
			c-2.3,2.2-4.5,4.5-6.6,6.9c-0.2,0.2-0.3,0.4-0.5,0.6C106.3,145.1,110.7,140.4,115,136.8z"/>
		<path d="M132.3,75.5c1.2-1.2,2.3-2.3,3.5-3.5c-5.5,2.8-11.5,6.9-16,12c0.9-0.2,1.8-0.5,2.7-0.9c1.1-0.8,2.1-1.6,3.1-2.4
			C127.8,78.9,130.1,77.2,132.3,75.5z"/>
		<path d="M122.3,99.3c1.3-1.7,2.3-3.7,3.6-5.5c1.8-2.6,3.7-5.1,5.5-7.8c1.8-2.6,3.6-5.1,5.5-7.6c0.7-1,1.5-1.9,2.2-2.8
			c-0.9,0.8-1.9,1.6-2.7,2.4c-1.7,1.8-3.3,3.7-4.8,5.6c-3.6,4.5-6.7,9.4-9.3,14.9C122.2,98.9,122.2,99.1,122.3,99.3z"/>
		<path d="M138.7,97c0.3-1.2,0.6-2.5,0.9-3.7c0.6-2.6,1.4-5,2.3-7.4c0.4-1.7,0.8-3.5,1.1-5.2c-1.8,4.1-3.6,8.1-4.8,12.6
			c-1.4,5.2-2.2,10.6-2.8,16c0,0.1,0,0.2,0,0.3C136.4,105.3,137.6,101.2,138.7,97z"/>
		<path d="M185.6,167.2c-2.5,2.9-5,5.7-7.5,8.7c-4.7,5.6-9.2,11.5-13.7,17.3c-7.3,9.5-14.5,19.3-21.3,29.5c4.1-4.8,8.3-9.3,12.4-14
			c0.5-0.6,1-1.2,1.6-1.8c2.9-4,5.8-8.1,8.8-12c7.6-10.1,15.9-19.8,22.8-30.7C187.7,165.2,186.6,166.2,185.6,167.2z"/>
		<path d="M187.8,188c-2.2,4.9-4.2,10-6,15.1c-2.8,7.8-5.9,15.5-7.7,23.7c0.1-0.1,0.2-0.2,0.3-0.3c4-8.4,6.8-17.6,10-26.5
			c1.6-4.5,3.4-9,4.9-13.6c0.7-1.9,1.4-3.8,2.1-5.7C190.1,183.1,188.9,185.5,187.8,188z"/>
		<path d="M72.4,226.8c2.3,0.9,4.6,1.6,6.9,2c-0.2-0.1-0.4-0.2-0.6-0.3c-2.5-1.1-4.8-2.9-7.1-4.9c-2.5-1.9-4.9-4.1-7.2-6.4
			c-3.4-3.4-6.7-6.9-9.9-10.5c-2.9-3.3-6-6.1-9.2-9c1.2,1.5,2.4,3.3,2.6,3.6c2,2.7,4.2,5.2,6.4,7.7c4.5,5.1,9.2,9.8,14.1,14.2
			C69.7,224.4,71,225.6,72.4,226.8z"/>
		<path d="M154.2,104.2c-0.1-2.2,0-4.6-0.3-6.9c-0.8,14.6-1.1,29.7-7.9,42.2c-5.8,10.6-13.6,19.7-21.9,27.3c4.3-3.4,8.4-7,12.5-10.8
			c0.8-0.8,1.6-1.5,2.5-2.3c3.2-4.1,6.3-8.5,9-13.2c4.7-8.3,6.2-17.5,6.5-27C154.5,110.4,154.4,107.3,154.2,104.2z"/>
	</g>
	<path class="st10" d="M142,81.1c0.1,0.1,0.1,0.3,0,0.5c-3.7,8.5-7.2,17.1-10.3,25.9c-1.6,4.6-3.4,8.8-6,12.2
		c-2.4,3.9-5.3,7.3-8.3,10.5c-5.6,6-11.3,11.8-16.8,17.9c9.6-6.5,19.2-13.1,28.8-19.6c2.9-3.3,5.7-6.6,6.3-8.3
		c1.6-4.2,1.7-9.3,2.5-13.9c1.5-9.1,4.8-18.1,4.5-27.5C142.5,79.7,142.3,80.4,142,81.1z"/>
	<path class="st12" d="M202.6,166.7c0,0-0.4-8.5-3-11.8c-2.6-3.3-13.7-24.1-19.7-31.6c-6-7.5-19.5-25.1-20.1-26.1
		c-0.6-1-4.4-5.3-4.4-6.5c0-1.3-2.2-7.5-2.2-7.5S147,71,143,69.3c0,0-11.9-3.5-13.7-1.8c-1.8,1.8-10.9,13.3-14.1,14.6
		c-3.2,1.3-30.8,10.5-34.2,12.8c-3.4,2.3-24.4,12.8-28.4,16.6c-4,3.8-7.3,13.8-7.3,13.8s-20.1,47.2-28.6,59.8
		C8.2,197.6,4,207.2,6,213.2c2,6,11.9,19.8,14.5,22.9c2.6,3,18.3,15.8,21.2,16.3c2.8,0.5,16.3,0.5,23.8,1.3c7.5,0.8,45.9,6,51.6,6.3
		c5.6,0.3,17.5,2,25,0c7.5-2,37.7-10.8,43.7-12.3c6-1.5,18.1-4.5,18.3-9.5C204.2,233,202.6,166.7,202.6,166.7z M162.6,160.4
		c3.4-10.3,7.8-20,11.8-29.9c0.2-0.5-1.1,32.8-4,37.6c-5.4,8.9-22,19.5-21.7,18.9C153.1,178.1,162.4,160.9,162.6,160.4z M103,227.3
		c-2.9,1.8-5.9,3.4-8.9,5c-6.6,3.5-12.9,6-20.2,5c-8.2-1.1-16.4-3.3-24.4-5.9c-4.5-1.5-10.3-2.8-14.3-6.4c0.5,8.9,0.8,14.9,0.7,14.7
		c-3.2-5.2-7.9-8.3-12-12.1c-4.6-4.2-7.7-9.5-9.9-16.1c-1.3-3.9-2.5-7.4-1.4-11.6c1.6-5.9,6.1-11.2,9.1-16.1
		c3.5-5.8,6.9-11.8,9.7-18.2c0.2-0.5,0.8-0.3,0.9,0.3c0.1,3.3,0.3,7,0.4,10.9c1.2,5.4,1.7,11.3,3.9,16.2c2.5,5.4,6.6,8.9,10.6,12.4
		c4.7,4.1,9.7,7.8,14.9,11.1c-3-2.9-5.7-6.2-8.4-9.6c-0.3-0.4-0.6-0.7-0.8-1.1c-5.5-7.2-10.7-15.2-12.2-25.2c-1.3-8.9-0.2-18,0.4-27
		c0.5-6.8,1.8-15.2,4.1-20.4c0.1-0.3,0.5-0.2,0.6,0c3.4,4,4.2,10.5,6.1,15.7c3,8,5.8,16.1,8.9,24.1c2.4,6.2,3.7,12.8,4.6,19.4
		c-0.2-2.6-0.4-5.2-0.6-7.8c-0.6-7.3-0.8-15.4-3.2-22.2c-1.7-4.9-3.8-9.7-2.5-15.2c1-4.6,15.2,7.9,17.2,3.9
		c0-0.3-13.5-23.8-15.1-26.7c-1.9-3.3-4.8-7.2-2.9-11.3c0.8-1.7,2.6-2.8,3.9-3.8c1.5-1.1,2.9-2.2,4.3-3.3c2.9-2.3,5.8-4.5,8.9-6.3
		c2.4-1.4,5.2-2.9,7.9-2.5c0.3,0,0.5,0.3,0.4,0.7c-1,4.3-4,25.4-3.4,31.7c0.4,4.4,2.5,15.2,3.2,19.5c0.1,0.8-0.6-13.1-0.1-17.7
		c0.7-6.5,1-13.3,2.4-19.6c0.3-3.9,1.3-7.4,4.3-9.8c11-8.8,23-15.5,33.5-25.4c-0.1-0.2-0.1-0.4,0.1-0.6c1.8-2.3,3.5-5.4,5.9-6.9
		c1.2-0.7,2.3-0.6,3.5-0.2c1.9,0.3,3.8,0.7,5.8,0.9c1.2,0.1,2.3,0.4,3.1,1c0.2-0.3,0.7-0.3,0.8,0.2c1.9,6.8,5.6,12.6,7.2,19.5
		c0.7,3,0.8,5.8,1,8.9c0.2,2.9,0.5,5.7-0.3,8.5c-0.1,0.5-0.6,0.6-0.8,0.1c-1.4-2.7-2.1-5.7-3.4-8.4c-0.3,3.9-0.2,29.2-1.3,31.8
		c-0.8,1.9-21.6,17.3-25,19.9c-4.9,3.7-9.7,7.8-14.7,11.3c-0.3,0.2-0.6,0.4-1,0.7c8-0.9,16.1-5,22.8-9.2c0.4-0.3,0.8,0.3,0.6,0.8
		c-4.1,9.7-13,16.1-20.5,21.1c-9.3,6.2-19.3,8-29.8,7.8c-0.3,1.5-0.6,3-0.9,4.5c0,2.2-0.1,4.4,0.1,6.6c0.3,4,1.3,7.5,2.8,10.9
		c7.4,6.4,16.8,10.6,25.5,9.4c12-1.7,21.8-11.7,33.2-16c0.5-0.2,0.8,0.7,0.4,1C127.5,210.3,116.4,222.1,103,227.3z M135.1,236.1
		c-0.4,0.2-0.8-0.6-0.4-1c4.1-3.9,7.4-8.8,10.7-13.6c3.3-4.9,6.8-9.4,10.5-13.9c0.2-0.3,0.5-0.6,0.7-0.9c0-0.1,0-0.2,0.1-0.3
		c10.4-13.8,20.7-27.7,32-40.3c0.3-0.4,0.9,0,0.8,0.6c-0.8,4.4-2.5,8.4-4.2,12.4c-1.9,4.3-3.5,8.6-5.2,13c-3,8-6.3,16-11.2,22.5
		C160,226.3,146.9,231.2,135.1,236.1z M193.8,208.1c-0.1,2.8-0.1,5.6-1.1,8.3c-3.7,10.2-21.8,18.8-21.7,18.3
		c3.9-13.2,8.7-25.9,13.8-38.4c0.5-1.6,0.7-3.4,1.5-4.9c5.4-10.8,8.7-21.9,8.8-21.3C196.4,177.7,193.9,203.2,193.8,208.1z"/>
	<g>
		<path class="st13" d="M116,85.9c-4.5,3.7-9.9,6.1-14.6,9.6c-2.5,1.9-4.9,4.4-7.2,6.6c-1.9,1.8-4,3.8-5.4,6.2
			c-3.1,5.2-2.9,12.6-3.1,18.8c-0.3,7.6-1.2,15.4-0.6,23c0,0.2,0.3,0,0.3-0.1c-0.2-4.9,0.2-10,0.7-15c0.7-4,1.2-8.3,2.6-12
			c1.8-4.8,3.9-9.5,6.6-13.6c1.9-2.9,3.8-5.8,5.9-8.5c1-1.3,2.6-2.8,3.7-4.4c3.8-3.4,7.6-6.7,11.2-10.4
			C116.2,86,116.1,85.8,116,85.9z"/>
		<path class="st13" d="M133.7,127c-9,6.4-18.3,12.1-27.1,19.2c1.6-0.5,3.2-1.5,4.5-2.2c1.6-0.9,3.2-2,4.8-2.8
			c0.4-0.2,0.8-0.4,1.2-0.5C122.8,136.4,128.5,131.9,133.7,127C133.8,127.1,133.8,127,133.7,127z"/>
		<path class="st13" d="M70.7,177.1c4.4,2.1,9.2,2.8,14,3c0,0,0,0,0,0c-10.5-6.9-20.8-16.7-24.1-30.8c0.1,0.8,0.2,1.6,0.4,2.5
			c0.1,0.7,0.2,1.4,0.3,2.1c0,0.1,0,0.1,0,0.2c0.2,2.2,0.7,4.2,1.2,6.3c1.1,4.4,2.7,8.8,4.7,12.6C68.2,174.6,69.4,176,70.7,177.1z"
			/>
		<path class="st13" d="M47.9,190.8c-0.8-2.3-1.5-4.6-2.1-7c-0.2-0.8-0.5-1.7-0.7-2.5c-0.5-1.8-0.9-3.6-1.3-5.4
			c-1.1-4.4-1.4-9.1-2.1-13.6c0,0,0,0,0,0c-0.6,8.6-0.2,18.6,2.4,26.6c2.2,6.8,6.9,12.5,11.6,17.3C52.6,201.4,49.9,196.3,47.9,190.8
			z"/>
		<path class="st13" d="M182,176.7c-4.3,6.2-9.7,11.1-14.2,17.1c-4.8,6.4-9.6,12.9-13.5,20.3c-0.1,0.2-0.1,0.3-0.1,0.5
			c1.3-1,2.6-2,3.8-3.1c1.3-1.3,2.5-2.7,3.7-4.1c2.7-3.7,5.3-7.6,7.9-11.4C173.9,189.7,178.5,183.7,182,176.7
			C182.2,176.7,182.1,176.7,182,176.7z"/>
		<path class="st13" d="M130.8,91.9c1.7-2.3,3.3-4.8,5-7.1c1.9-2.6,4-5.3,5.7-8.2c-3,3.3-6.6,5.8-9.2,9.8c-1.6,2.5-2.9,5.2-4,8.1
			C129.2,93.6,130,92.7,130.8,91.9z"/>
		<path class="st13" d="M163.2,49.7c0.9-1,1.8-2,2.7-2.9c-1.2,0.5-2.4,0.9-3.4,1.4c-1.9,0.9-3.7,2.2-5.5,3.4
			c-3.3,2.3-5.7,5.8-8.1,9.4c-0.1,0.2-0.2,0.4-0.2,0.5c1.1-0.6,2.1-1.1,3.2-1.7c2.5-2.4,4.9-4.8,7.5-7
			C160.7,51.9,161.9,50.8,163.2,49.7z"/>
		<path class="st13" d="M159.5,63.3c0.7-0.6,1.3-1.1,1.9-1.8c0.3-0.9,0.7-1.9,0.9-2.9c0,0,0,0,0,0c-3,1-5.8,4.2-7.3,7.5
			C156.5,65.2,158,64.2,159.5,63.3z"/>
		<path class="st13" d="M129.5,73.7c1-0.9,2-1.6,2.9-2.7c0.1-0.1,0.2-0.3,0.3-0.4c0-0.1-0.1-0.1-0.2-0.1c-1.1,0.5-2.2,0.7-3.2,1.4
			c-1.3,1-2.5,2-3.6,3.3c0.9-0.1,1.8-0.3,2.6-0.5C128.7,74.5,129.1,74.1,129.5,73.7z"/>
		<path class="st13" d="M19.5,202.5c0.3-4.6,1.1-9.1,1.7-13.6c-2.9,4.8-5.8,9.7-5.6,15.6c0.2,6.1,2.8,11.3,5.6,16.2
			C19.9,214.8,19.1,208.7,19.5,202.5z"/>
	</g>
</g>
<g>
	<g>
		<g>
			<g>
				<path class="st0" d="M214.2,299.4c-5.7-3.4-12.6-4.3-18.7-4.9c-3.6-0.4-7.1-1.1-10.6-2.1c-2-0.6-6-2.7-3.8-6.1
					c0.3-0.5,0.3-0.6,0.3-0.9c0-0.1,0.1-0.2,0.1-0.2c0.2-0.5,0.3-1.4,0.1-1.9c-1.3-3.4-3.3-4.8-6.1-6c-7.5-3-15.6-2.5-23.4-2.3
					c-9.1,0.2-18.1,1.4-27.2,2c-1.9,0.1-3.9,0-5.8-0.4c-3-0.5-3.9-2.6-5-5.7c-1.2-3.3-4.7-5-7.3-6c-7.3-2.9-15.8-2.2-23.3-1.8
					c-7.2,0.5-15.2,0-22.1,3c-3.2,1.4-5.4,5.5-8.4,6.9c-0.6,0.2-1.2,0.3-1.8,0.5c-2.4,0.4-4.8,0.6-7.2,1c-2.9,0.3-5.8,0.5-8.7,1.2
					c-3.6,0.9-7.3,2.2-10.5,4.7c-2.2,1.7-3.5,4.2-4.7,7c-1.3,3.1-2.1,6-4.5,7.9c-4.2,3.2-15,7.3-12.9,16c1.7,7,9.3,6.8,13.9,7.9
					c2.1,0.5,4.3,1.2,6.3,2.5c3.1,2,2.8,8,3.6,11.9c0.9,4.7,3.7,7.7,7.3,9.8c3.8,2.2,8.3,2.5,12.4,2.7c4.4,0.2,8.7-0.7,12.8-2.3
					c3.7-1.5,6.9-4.2,10.7-5.4c5-1.6,10.1-0.6,15.1,0.4c4.9,1,9.7,1.9,14.6,2.6c6.3,0.9,12.6,1.6,18.7-0.7c4.3-1.6,8.3-4.3,12.8-5.5
					c4.4-1.1,8.6,1.2,12.8,2.4c6.9,1.9,13-1.3,18.9-5.6c2.9-2.1,5.6-4.9,8.7-6.5c3.9-2.1,8-1.7,12.1-2.5c3.6-0.8,7-2.8,10.6-3.8
					c6.7-1.8,21.9,0.9,25.3-9.2C220.7,306.1,216.8,301,214.2,299.4z"/>
				<path class="st14" d="M212.2,299.2c-5.6-3.2-12.4-4.1-18.4-4.6c-3.6-0.3-6.9-1-10.4-2c-2-0.6-5.9-2.6-3.7-5.8
					c0.3-0.4,0.3-0.6,0.3-0.9c0-0.1,0.1-0.1,0.1-0.2c0.2-0.4,0.3-1.3,0.1-1.8c-1.3-3.3-3.3-4.6-6-5.6c-7.4-2.8-15.4-2.3-23.1-2.2
					c-9,0.2-17.8,1.3-26.7,1.9c-1.9,0.1-3.8,0-5.7-0.3c-3-0.5-3.8-2.5-4.9-5.4c-1.2-3.1-4.6-4.7-7.1-5.7c-7.2-2.8-15.5-2.1-22.9-1.7
					c-7.1,0.4-15,0-21.8,2.8c-3.2,1.3-5.3,5.2-8.3,6.5c-0.6,0.2-1.2,0.3-1.7,0.4c-2.3,0.4-4.7,0.6-7,1c-2.9,0.3-5.7,0.5-8.5,1.2
					c-3.6,0.9-7.2,2.1-10.4,4.4c-2.1,1.6-3.5,4-4.6,6.6c-1.2,3-2,5.7-4.5,7.5c-4.1,3-14.8,6.9-12.7,15.1c1.7,6.7,9.1,6.5,13.7,7.5
					c2.1,0.5,4.2,1.2,6.2,2.4c3.1,1.9,2.8,7.6,3.5,11.2c0.9,4.4,3.6,7.3,7.2,9.2c3.7,2.1,8.2,2.3,12.2,2.5c4.3,0.2,8.5-0.6,12.6-2.2
					c3.6-1.4,6.8-4,10.5-5.1c4.9-1.5,10-0.6,14.9,0.3c4.8,0.9,9.6,1.8,14.4,2.5c6.2,0.9,12.4,1.5,18.4-0.7c4.3-1.6,8.2-4.1,12.6-5.2
					c4.3-1,8.4,1.1,12.6,2.2c6.8,1.8,12.8-1.2,18.6-5.3c2.9-2,5.5-4.6,8.6-6.2c3.8-1.9,7.9-1.6,11.9-2.4c3.6-0.7,6.9-2.6,10.4-3.6
					c6.6-1.7,22.9,0.8,26.3-8.7C220,305.5,214.7,300.7,212.2,299.2z"/>
				<path class="st0" d="M11.3,322.4c-2.3-0.1-4.3,0.8-3.5,3c1,2.7,6.3,3.8,8,1.9C18.3,324.5,14.5,322.5,11.3,322.4z"/>
				<path class="st15" d="M11,322.7c-2-0.1-3.7,0.7-3,2.6c0.8,2.3,5.3,3.2,6.7,1.6C16.9,324.4,13.7,322.8,11,322.7z"/>
				<path class="st0" d="M189.8,338.1c0,0,4.7-1.5,4.9-6c0.2-4.5-7.1-6-14.7-3.4c-7.6,2.6-14.5,7-9.6,11.1
					C175.2,343.8,184.9,341,189.8,338.1z"/>
				<path class="st15" d="M189.3,337.3c0,0,4.3-1.4,4.5-5.6c0.2-4.1-6.6-5.6-13.6-3.2c-7.1,2.4-13.5,6.5-8.9,10.3
					C175.7,342.7,184.6,340.1,189.3,337.3z"/>
				<path class="st0" d="M205.3,327.2c0,0,6.3-2.6,2.5-4.6c-3.7-2-10.2-0.4-9.3,2.3C199.5,327.6,202.5,328,205.3,327.2z"/>
				<path class="st15" d="M205.1,326.4c0,0,5.3-2.2,2.1-3.9c-3.2-1.7-8.7-0.3-7.9,1.9C200.1,326.7,202.7,327.1,205.1,326.4z"/>
			</g>
			<path class="st16" d="M27,281.9c-2.5,1.9-4.2,4-5.6,7.3c-1.8,4.4-3.3,7-6.9,9.3c-3.7,2.4-10.8,4.9-9.7,11.7c0,0.1,0.1,0,0.1-0.1
				c-0.1-2.2,0.7-3.9,2-5.2c1.2-1,2.9-1.7,4.1-2.2c2-1,3.8-2,5.7-3.5c1.2-1,2.3-2.3,3.2-3.8c0.8-1.2,1.4-2.6,2-3.9
				C23.4,287.8,24.2,284.6,27,281.9C27.1,281.9,27,281.8,27,281.9z"/>
			<path class="st16" d="M31.9,336.8c-2.3-2.9-3.2-6-3.7-10c-0.3-2.3-0.8-4.5-2.4-6c0,0,0,0,0,0c1.8,2.6,1.6,6.3,2.2,9.4
				c0.5,2.8,2,5,3.8,6.7C31.9,337.1,32,336.9,31.9,336.8z"/>
			<path class="st16" d="M132.3,332.1c-4.1,0-7.8,1.8-11.5,3.7c-4.5,2.3-10.2,3.5-15.1,2.5c0,0-0.1,0.1,0,0.1
				c3.9,1.2,7.9,0.8,11.7-0.4c5-1.6,9.6-5.3,14.9-5.7C132.3,332.3,132.4,332.1,132.3,332.1z"/>
			<path class="st16" d="M217.3,304.7C217.3,304.6,217.2,304.7,217.3,304.7c1.3,4.6-1.5,8-4.6,9.7c-0.1,0-0.1,0.2,0,0.2
				C216.1,313.1,219.4,309.4,217.3,304.7z"/>
			<path class="st16" d="M203,325.7c-0.7-0.2-1.5-0.5-2.2-1c-0.4-0.3-0.6-0.7-0.7-1.3c0-0.2,0.3-0.5,0.3-0.7c0-0.1,0-0.1-0.1,0
				c-0.2,0.2-0.3,0.2-0.5,0.4c-0.1,0.1-0.2,0.4-0.2,0.5c-0.1,0.5,0,0.9,0.2,1.3c0.7,1,2,1.3,3,1.2
				C203.1,325.9,203.1,325.7,203,325.7z"/>
			<path class="st16" d="M173.3,333.4c1.3-1.4,2.9-2.2,4.4-3.3c0,0,0-0.1,0-0.1c-2.4,1.2-5.1,1.8-6.3,5c-1.3,3.5,3.2,4.5,4.9,4.5
				c0.1,0,0.2-0.2,0.1-0.2C174,338.8,170.5,336.6,173.3,333.4z"/>
			<path class="st16" d="M204.7,325.7c0,0-0.1,0-0.1,0c0,0-0.1,0-0.1,0c-0.1,0-0.2,0.1-0.2,0.2c0,0.1,0,0.1,0,0.2
				c0.1,0.1,0.1,0.1,0.3,0.1C204.8,326.1,204.9,325.7,204.7,325.7z"/>
			<path class="st16" d="M178.1,339.3C178.1,339.3,178.1,339.3,178.1,339.3C178.1,339.3,178.1,339.3,178.1,339.3
				C178.1,339.3,178.1,339.3,178.1,339.3c-0.1,0-0.2,0-0.3,0c-0.1,0-0.2,0.1-0.1,0.2c0,0,0,0,0,0c-0.1,0.1,0,0.3,0.1,0.2
				c0,0,0.1,0,0.2-0.1C178.1,339.6,178.2,339.4,178.1,339.3z"/>
			<path class="st16" d="M33.6,338.4c-0.2-0.1-0.4-0.2-0.5-0.4c0,0-0.1,0-0.1,0c0,0,0,0,0,0c0,0-0.1,0-0.1,0.1c0,0,0,0,0,0
				c-0.1,0.1-0.1,0.2-0.1,0.2c0.1,0.3,0.4,0.3,0.6,0.4C33.6,338.8,33.8,338.4,33.6,338.4z"/>
			<path class="st16" d="M10.7,323C10.7,323,10.7,323,10.7,323c-0.7-0.1-1.9-0.1-2.3,0.8c-0.5,1.1,0.4,2.2,1.2,2.6
				c0.1,0,0.1-0.1,0.1-0.1c-0.5-0.6-1.7-1.5-0.9-2.5C9.3,323.3,10.1,323.3,10.7,323z"/>
			<path class="st16" d="M10.2,326.5c-0.1-0.1-0.1-0.1-0.2-0.1c-0.1,0-0.2,0.2-0.1,0.3c0,0,0.1,0.1,0.1,0.1c0,0,0,0,0,0
				C10.1,326.8,10.3,326.6,10.2,326.5z"/>
		</g>
		<path class="st17" d="M183,290.1c-2.4-1.5-4.9-2.2-7.5-2.9c-4.5-1.2-8.5-2.9-12.7-5.2c-5.4-2.9-10.8-3.3-16.5-3.5
			c-6.2-0.3-12.5-0.4-18.7-0.7c-12.5-0.7-25-1.9-37.5-2.3c-6.3-0.2-12.6-0.4-18.8-0.5c-6.2-0.1-12.5-0.5-18.7-0.4
			c-6.2,0.1-12.2,1.1-18.2,2.8c-3.9,1.1-7.6,2.5-11.1,4.8c6.3,9.3,23.9,34,40.5,44c0,0,32.7,12.2,69.5,9.6c0,0,8.5-2.3,18.1-9
			c7.4-5.1,23.6-21.7,32.6-34.3C183.4,292.2,183.5,290.4,183,290.1z"/>
		<path class="st0" d="M104.3,184.2c0,0.2,0,0.3,0,0.4c0,0.6,1.3,0.8,2.8-0.1c4.5,0.9,10.2,3.6,15.2,6.5l-12.9,1.4c0,0,0,0,0,0
			c0-0.1-0.1-0.1-0.1-0.2c-0.1-0.1-0.1-0.2-0.2-0.4c0-0.1-0.1-0.1-0.1-0.2c-0.1-0.1-0.2-0.3-0.3-0.4c0,0-0.1-0.1-0.1-0.1
			c-0.9-1.2-2.2-2.4-3.8-3.5c0,0,0,0,0,0l0,0c-0.3-0.2-0.7-0.4-1.1-0.6c-0.8-0.4-1.5-0.7-2.2-1C103,185,104.1,184.3,104.3,184.2z"/>
		<g>
			<path class="st18" d="M95.3,185.9l13.6,4.7l15.4-1.7c0,0,19.5,14,19.7,14.3c0.2,0.3-0.6,8.3-0.6,8.6c0,0.3-32.9,10.1-33.3,10.5
				c-0.4,0.3-27.1-9-27.1-9l-11.9-9.4l-0.1-2.6L95.3,185.9z"/>
			<g>
				<g>
					<g>
						<polygon class="st19" points="93.7,208.8 87.6,222.4 89.7,226.4 103.7,228.1 118.8,223.5 113.4,197.1 						"/>
						<polygon class="st20" points="126,201 113.4,197.1 118.8,223.5 128.5,220.5 						"/>
					</g>
					<polygon class="st21" points="113.4,197.3 118.5,223 116.3,198 					"/>
				</g>
				<g>
					<path class="st22" d="M129.7,195c-0.9-2.6-5.1-2.8-9.4-0.4c-4.3,2.3-7.2,6.2-6.3,8.8l4.8,20.2l17.8-8.5L129.7,195z"/>
					<path class="st23" d="M114.7,206.3c4-5.9,9.8-8.2,16-8.4l-1-2.9c-0.9-2.6-5.1-2.8-9.4-0.4c-4.3,2.3-7.2,6.2-6.3,8.8
						L114.7,206.3z"/>
					<path class="st23" d="M133.3,205.4l-0.7-2.1c-6.1-0.6-13,3.6-16.2,9.9l0.6,2.6C120.8,209.5,127,205.4,133.3,205.4z"/>
					<path class="st24" d="M128.8,218.8l7.8-3.8l-6.9-20c-0.8-2.3-4.4-2.7-8.3-1C123.1,199.3,127.4,213.2,128.8,218.8z"/>
				</g>
				<g>
					<path class="st25" d="M110.1,193.9c0.9-2.5-1.9-6.5-6.3-8.8c-4.3-2.3-8.5-2.1-9.4,0.4l-8.2,18.4l17.3,10.2L110.1,193.9z"/>
					<path class="st26" d="M93.2,188.2c6.2-0.4,11.5,3.2,15.9,8.7l1-2.9c0.9-2.5-1.9-6.5-6.3-8.8c-4.3-2.3-8.5-2.1-9.4,0.4
						L93.2,188.2z"/>
					<path class="st26" d="M106.7,204.4l0.7-2.1c-3.9-5.9-11.1-9.2-16.9-7.8l-1,2.3C95.7,195.9,102.3,198.7,106.7,204.4z"/>
					<path class="st24" d="M95.9,209.6l7.6,4.5l6.6-20.2c0.8-2.3-1.5-5.8-5.2-8.2C103.1,190.9,98.1,204.4,95.9,209.6z"/>
				</g>
				<g>
					<g>
						<polygon class="st27" points="81.3,193.6 70.2,200.8 70.3,205.6 81.3,216.5 96,222.9 102.8,197.1 						"/>
						<polygon class="st28" points="111.7,208.9 102.8,197.1 96,222.9 105.5,227.1 						"/>
					</g>
					<polygon class="st29" points="102.7,197.2 96,222.4 104.9,199.8 					"/>
				</g>
			</g>
			<path class="st11" d="M178.7,197.2c0,0-0.5-5.3-5.1-6c-4.6-0.6-62.9-14.3-62.9-14.3s-3.6-0.6-5.1-0.4c0,0-60.9,12.6-75.8,19.9
				c0,0-10,53.4-8.8,80.3c0,0,22.2,35.2,42.9,47.6c0,0,32.7,12.2,69.5,9.6c0,0,8.5-2.3,18.1-9c9.7-6.6,35.3-35.2,38.7-45
				C190.2,279.8,182.9,209.4,178.7,197.2z M142.4,208.7L113.6,220c0,0-7.5-0.4-8-0.6c-0.5-0.2-14.8-6-15.9-6.6
				c-1.2-0.6-11.9-4.9-11.9-4.9l-5.3-4.7c4.1-3.2,32.1-20.9,32.1-20.9c10.5,0.2,31.2,15.4,31.2,15.4s5.4,5.3,6.3,7.5
				C142.9,207.2,142.4,208.7,142.4,208.7z"/>
			<path class="st12" d="M178.7,197.2c0,0-0.5-5.3-5.1-6c-4.6-0.6-62.9-14.3-62.9-14.3s-3.6-0.6-5.1-0.4c0,0-1.1,0.2-3,0.6
				c0.1,0.2,0,0.5-0.3,0.6c-13.2,2.8-25.8,8.5-38.7,12.8c-6.5,2.1-13,3.8-19.7,4.7c-4.6,0.6-9.5,1.9-14.2,1.6
				c-1,5.2-9.9,54.4-8.7,79.8c0,0,22.2,35.2,42.9,47.6c0,0,32.7,12.2,69.5,9.6c0,0,8.5-2.3,18.1-9c9.7-6.6,35.3-35.2,38.7-45
				C190.2,279.8,182.9,209.4,178.7,197.2z M150.5,212.9c-6.6,7.6-13.3,14.7-20.7,21c-3,2.6-6.2,6-9.5,8.2c-3.9,2.6-5.8,3.5-9.4,2.4
				c-15.6-4.9-31.9-21.4-43.5-35.2c-0.3-0.3,0-0.9,0.4-0.8c7.7,2.6,14.9,6.7,22.6,9.4c3.8,1.3,7.5,2.6,11.3,3.9
				c1.7,0.6,3.5,1.5,5.3,2.1c0.9,0.2,1.8,0.3,2.7,0.3c6.9,0.4,13.5-2.6,20.1-4.7c6.9-2.2,13.5-5.5,20.4-7.4
				C150.5,212,150.8,212.6,150.5,212.9z M90.9,242.1c-5.6-1.9-11.6-2.7-16.7-6.5c-5.4-4.1-9.8-10.5-14-16.4
				c-0.3-0.4,0.1-1.1,0.5-0.8c7.4,5.5,14.8,11.1,22.2,16.6c2.9,1.8,5.8,3.5,8.4,6.2C91.6,241.6,91.3,242.2,90.9,242.1z M104.6,182.2
				c10.5,0.2,31.2,15.4,31.2,15.4s5.4,5.3,6.3,7.5c0.8,2.1,0.3,3.6,0.3,3.6L113.6,220c0,0-7.5-0.4-8-0.6c-0.5-0.2-14.8-6-15.9-6.6
				c-1.2-0.6-11.9-4.9-11.9-4.9l-5.3-4.7C76.6,200,104.6,182.2,104.6,182.2z M43.1,197.1c4.3-1.8,8.9-1.8,13.3-3.3
				c4.7-1.6,9.6-2.4,14.4-3.9c0.1,0,0.2,0,0.3,0.1c4.8-1.6,9.7-3.3,14.6-4.7c0.4-0.1,0.7,0.6,0.3,0.9c-8.1,5.6-16.2,11.3-24.6,16.1
				c-6.1,3.5-12.9-0.7-18.4-4.3C42.7,197.8,42.8,197.2,43.1,197.1z M31.9,236.8c-0.2,9.3-3.7,16.9-7.7,24.4
				c-0.2,0.4-0.7,0.3-0.7-0.2c0.7-15.1,2.7-29.9,4.7-44.8c0.2-3,0.5-6,1-8.9C29.1,206.9,32.1,227,31.9,236.8z M64.4,294.3
				c-5.1-3.9-8.3-10.3-12.3-15.8c-4.5-6.3-9.2-12.5-13.2-19.3c-1.6-2.6-3.1-5.5-3.6-8.8c-0.6-4.1-0.6-8.3-1-12.3
				c-0.8-8.5-1.8-17-2.1-25.6c-0.2-2.4-0.3-4.8-0.4-7.2c0-0.5,5.3,15.4,7.9,23c2.7,7.9,5.6,15.7,8.3,23.7c2.6,7.7,5.3,15.6,8.7,22.8
				c2.9,6.2,6.7,11.9,8.2,19C65,294.2,64.7,294.6,64.4,294.3z M81,291.1c-2.2-1.8-9.7-14.1-12-17.5c-4.9-7.1-9.3-14.7-13.9-22.1
				c-2-3.2-4.1-6.3-5.7-9.8c-1.5-3.3-2.8-6.7-3.9-10.1c-2.5-7.7-4.7-14.7-7.7-22.1c-0.1-0.3-5.1-10.5-4.8-10.4
				c3.1,1,9.9,5.4,12.1,8.2c2.9,3.5,5.9,6.8,8.9,10.3c5.7,6.6,11.6,13.5,16,21.6c3.9,7.2,6,15.1,7.2,23.6c0.7,5.2,4.6,23.7,4.5,28
				C81.6,291.1,81.2,291.3,81,291.1z M122.1,324.6c-10.2-5.5-19.7-12.8-25.8-24.8c-3.5-7-6-14.9-8.2-22.7
				c-2.4-8.5-4.5-17.1-6.4-25.8c-0.1-0.4,0.4-0.9,0.6-0.5c10.3,16.6,17.8,35.5,27.8,52.3c0.1,0.2,0.1,0.3,0,0.4
				c4.3,6.7,8.6,13.4,12.4,20.4C122.9,324.4,122.4,324.8,122.1,324.6z M132.3,262.5c-3.3,3.9-6.6,7.7-10.2,11.3
				c-2.2,2.3-4.7,5.8-7.7,6.3c-3.2,0.5-6.5-2.1-9.3-3.7c-3.1-1.7-6.1-3.5-8.8-6.2c-0.2-0.2-0.1-0.7,0.2-0.8
				c6.1-2.4,12.4-4.2,18.4-7.3c6.4-3.3,11.4-9.2,16.8-14.5c5.5-5.4,10-10.8,15.4-16.3c1.7-1.7,4.8-5.5,6.5-7.2
				c4.2-4.6,14.9-19.9,19.2-24.3c0.3-0.3-5.4,13.7-5.6,14.2c-4.7,9.1-10.6,16.9-16.5,24.9C144.8,246.9,138.7,254.9,132.3,262.5z
				 M136.4,298.5c-0.2,0.4-0.8,0.3-0.7-0.2c2.6-24.6,12.6-46.1,25.8-64.1c0.2-0.3,0.8,0,0.6,0.5c-1.1,3.4-2.4,6.6-3.8,9.8
				c0,0.1,0,0.2,0,0.2c-3.2,9.4-7.8,17.9-11.3,27.1C143.5,280.8,140.3,289.9,136.4,298.5z M178.5,263.6
				c-0.7,7.6-21.9,25.3-28.6,28.7c-0.3,0.1-0.6-0.3-0.5-0.6c6.5-24.3,14.7-47.7,21.7-71.7c0.1-0.4,2-6.5,2.5-9.6
				c0.1-0.6,2.1,21.4,3.3,32C177.8,249.3,179.1,256.4,178.5,263.6z"/>
			<g>
				<path class="st30" d="M109.4,175.9c-0.1-0.3-1.8-7.6-1-11.1c0.8-3.5,3.8-10,3.8-10s4.7,5.3,3.6,10.9
					C114.8,171.3,109.4,175.9,109.4,175.9z"/>
				<path class="st10" d="M113.7,156.8c0.6,1.6,1.1,3.3,0.8,4.9c-0.7,3.1-2.4,5.6-3.8,8.3c-0.2,0.4-0.6,0.3-0.7-0.1
					c-0.6-1.9-1.1-3.8-1.4-5.8c-0.1,0.3-0.1,0.5-0.2,0.8c-0.8,3.5,0.9,10.8,1,11.1c0,0,5.4-4.7,6.4-10.2
					C116.5,162.3,114.9,158.9,113.7,156.8z"/>
				<path class="st30" d="M127.8,163.5c0,0-11.7,1.9-14.8,6.5c-3.1,4.6-3.8,8.2-3.8,8.2s9.1,0,13.8-5.9
					C127.7,166.4,127.8,163.5,127.8,163.5z"/>
				<path class="st10" d="M120.9,171.5c-2.5,2.8-5.8,3.2-8.9,4c-0.3,0.1-0.6-0.3-0.4-0.7c1.3-3.2,3.3-6.1,5.7-8.1
					c-1.8,0.9-3.4,2-4.3,3.3c-3.1,4.6-3.8,8.2-3.8,8.2s9.1,0,13.8-5.9c4.7-5.9,4.8-8.9,4.8-8.9s-0.3,0-0.8,0.1
					C125.1,166.3,123.1,169.1,120.9,171.5z"/>
				<path class="st30" d="M106.5,171.4c0,0-3,1.9-3,5.3c0,0,0.8-0.4,1.5,0.1c0.8,0.5-0.6,5-0.6,5.9c0,0.9,2.7,1,5-2.2
					C111.8,177.2,109.6,171.5,106.5,171.4z"/>
				<path class="st10" d="M106.9,171.4c0.9,1.3,1.9,2.5,1.8,4.4c-0.2,1.9-1.2,3.6-1.7,5.3c-0.2,0.5-0.7,0.2-0.7-0.2
					c-0.1-1.2,0-2.7-0.3-3.8c-0.3-1.1-1.4-1-2.3-0.7c0,0.1,0,0.3,0,0.4c0,0,0.8-0.4,1.5,0.1c0.8,0.5-0.6,5-0.6,5.9
					c0,0.9,2.7,1,5-2.2C111.7,177.4,109.8,172,106.9,171.4z"/>
				<path d="M110.6,166.5c-0.2,1.3-0.3,2.6-0.3,3.9c0.4-1.5,0.7-3.1,0.9-4.7c0.1-0.9,0.4-2.1,0.4-3.1
					C111.3,163.8,110.8,165.1,110.6,166.5z"/>
				<path d="M112.9,174.3c1.8-1.2,3.6-2.2,5.3-3.6c0.9-0.7,1.7-1.5,2.6-2.4C118,170.1,115.2,171.8,112.9,174.3z"/>
			</g>
			<g>
				<path d="M32,217.3c0.2,4.9,0.6,9.8,0.9,14.7c0.6,8.1,1.4,16.2,2.5,24.2c-0.4-9.6-1.2-19.1-2.2-28.7c-0.5-5-1.1-10.1-1.3-15.1
					C32,214,32,215.6,32,217.3z"/>
				<path d="M39.6,216.8c-0.8-2.8-1.7-5.6-2.8-8.3c-0.5-1-1-1.9-1.6-2.9c1.8,4.9,3.3,10,4.9,15C39.9,219.4,39.8,218.1,39.6,216.8z"
					/>
				<path d="M47,240.2c1.1,3.4,2.1,6.9,3.3,10.1c2.3,6.4,4.8,12.7,7.3,19c3.2,8,6.8,15.9,10.7,23.5c1.3,2.2,2.7,4.3,4.1,6.4
					c-4.7-9.8-9.4-19.5-13.6-29.6c-2.5-6.2-4.9-12.5-7.4-18.8c-1.7-4.2-3.1-8.9-4.9-13.2C46.7,238.5,46.8,239.3,47,240.2z"/>
				<path d="M95.9,274.3c0.5,1.2,0.9,2.5,1.4,3.7c0.4,0.8,0.7,1.5,1.1,2.3c2.1,4.6,4.6,8.9,7,13.3c4.9,8.9,10,17.6,14.9,26.5
					c0,0.1,0.1,0,0.2,0c-1.3-2.5-2.6-4.9-3.9-7.4c-2.2-4.1-4.2-8.5-6.2-12.8c-1.2-2.1-2.4-4.3-3.5-6.4c-2.7-4.9-5.5-9.8-8.1-14.8
					c-1-1.8-2-3.9-3.2-5.8C95.6,273.4,95.8,273.9,95.9,274.3z"/>
				<path d="M170.8,218.8c-1.4,4.4-3,8.7-4.5,13c-2.1,6.5-4.2,13.1-6.2,19.6c-4,12.7-8.5,25.8-10.8,39.2c0.2-0.4,0.3-0.7,0.5-1.1
					c0.8-1.6,1.5-3.3,2.3-4.9c0.2-0.3,0.3-0.7,0.5-1c3.3-10.6,6.2-21.5,9.4-32.1c3.5-11.6,7.7-23.3,10-35.5
					C171.6,217,171.2,217.9,170.8,218.8z"/>
				<path d="M170.5,201.4c-1.8,2-3.6,4.1-5.4,6.2c-3.6,4.2-7.1,8.3-10.8,12.4c-7.2,8.2-15,16.3-21.2,25.7c4.7-4.4,9.2-9.4,13.7-14.1
					c3.1-3.7,6.3-7.4,9.4-11c2.3-2.7,4.6-5.3,6.8-8c0.7-1,1.3-2,2-3c2.5-3.5,5.5-6.6,7.8-10.4C172,200,171,200.8,170.5,201.4z"/>
				<path d="M103.9,242.8c-5.3-3.9-10.6-7.9-16-11.8c-5.9-4.3-12-8.1-18-12.2c-5.8-3.9-11.5-7.7-17.3-11.6c-1.9-1.2-3.8-2.3-5.7-3.5
					c-1.5-0.9-3-2-4.4-3.1c-1.3-0.9-2.8-2.1-4.4-2.2c1,1.1,3.3,2.7,3.8,3.1c2.9,2.3,5.9,4.3,8.9,6.4c5.8,4,11.6,8,17.4,12
					c6,4.2,12.3,7.6,18.2,11.8c5.6,4,11.3,8.2,17.2,11.4C103.8,243.4,104.1,243,103.9,242.8z"/>
				<path d="M66,191.1c0.1,0,0.1-0.1,0.2-0.1c1.7-0.6,3.5-1,5.2-1.5c3.4-1.1,6.8-2.1,10.2-3.2c3.5-1.1,7.1-2.3,10.6-3.5
					c1.6-0.5,3.1-0.9,4.7-1.3c1.7-0.6,3.4-1.3,5.1-2c0-0.1-0.1-0.3-0.2-0.2c-6.8,1.7-13.4,3.6-20.1,5.9c-3.1,1.1-6.3,2-9.4,3.1
					c-1.5,0.6-3.1,1.1-4.6,1.7c-0.7,0.3-1.6,0.8-2.5,1.2C65.5,191.2,65.8,191.1,66,191.1z"/>
				<path d="M69.6,197.9c0.9-0.5,1.8-1,2.7-1.5c2-1.1,4.1-2.2,6.1-3.4c2.8-1.6,5.5-3.3,8.2-5c-3,1.5-5.9,2.9-8.8,4.6
					c-1.9,1.1-3.7,2.1-5.5,3.3c-1.4,0.9-3.2,1.8-4.4,3.1c0,0,0,0,0,0c-0.2,0.1-0.3,0.2-0.5,0.3c0,0,0,0,0,0.1
					C68.2,198.9,68.9,198.3,69.6,197.9z"/>
				<path d="M144.7,192.3c-5.8-2.5-11.7-4.6-17.5-7.2c-2.9-1.3-6-2.2-9-3.2c-0.9-0.3-2-0.7-3-1.1c-0.5,0.1-1.1,0.1-1.6,0.1
					c1.7,0.7,3.4,1.5,5.1,2.1c3,1.1,6,2.1,8.9,3.3c5.6,2.4,11.3,4.1,17,6C144.7,192.6,144.9,192.4,144.7,192.3z"/>
			</g>
			<g class="st31">
				<path class="st13" d="M65.7,262.2c-1.4-2.6-2.7-5.3-4.1-8c-1.4-2.8-2.8-5.5-4.2-8.3c-2.4-4.1-4.6-8.3-6.7-12.7
					c-2.3-4.8-4.4-9.8-6.6-14.7c-0.7-1.5-1.3-3.1-1.9-4.8c-0.4-1-0.9-1.9-1.4-2.9c-0.6-1.3-1.2-2.6-1.8-4c1.4,4.1,2.5,8.5,4,12.6
					c1.8,5.1,4,10.2,6.2,15.1c4.7,10.6,11.2,19.5,17,29.1c0.1,0.1,0.2,0.1,0.3,0C66.2,263.3,66,262.8,65.7,262.2z"/>
				<path class="st13" d="M40.2,254.3c-1.4-4.2-2.4-8.9-3.2-13.4c-0.4-2.2-0.7-4.5-1.1-6.7c0,0.3,0,0.6,0.1,0.9
					c0.3,3.3,0.6,6.6,1,9.9c0.4,2.9,0.8,5.8,1.3,8.7c0,0,0,0.1,0,0.1c0.9,3.5,2.9,6.7,4.8,9.5c1.5,2.1,3,4.2,4.6,6.3
					c1,1.4,2,2.7,3.1,4c0.1,0.1,0.1,0.1,0.2,0C47,267.5,42.7,261.5,40.2,254.3z"/>
				<path class="st13" d="M116,230.9c1.9-0.7,3.8-1.5,5.7-2.3c0.7-0.3,1.3-0.6,2-0.9c2.3-1.4,4.7-2.8,7-4.1c0.9-0.5,1.7-1.1,2.6-1.7
					c-6.5,2.8-13.5,5.1-20.2,6.7c-1.2,0.3-3-0.3-4.2-0.5c-2-0.4-3.9-0.9-5.8-1.6c-1-0.3-1.9-0.6-2.9-0.9c-1.5-0.4-3.1-0.6-4.6-1.1
					c4.8,4.2,10.4,6.6,16.2,7.6C113.2,232.2,114.8,231.3,116,230.9z"/>
				<path class="st13" d="M162.3,259c-1,4.4-1.8,8.9-2.8,13.3c-0.3,1.5-0.6,3-0.9,4.6c2.5-6.6,4.4-13.4,6.2-20.2
					c1.7-6.4,3.8-13.3,4.5-20.2C166.5,243.8,164,251.2,162.3,259z"/>
				<path class="st13" d="M142.6,277.7c1.8-5,3.7-9.9,5.7-14.9c1.6-3.9,3.3-7.7,4.9-11.6c0.1-0.5,0.2-0.9,0.3-1.4
					c-2.3,4.5-5,8.6-7,13.3c-2.3,5.1-3.7,10.5-5,16.1c0,0.1,0,0.2,0,0.2C141.8,278.8,142.2,278.3,142.6,277.7z"/>
				<path class="st13" d="M133.6,248.3c-4.1,3.9-8.3,7.9-12.5,11.5c-2.2,1.9-4.8,3.2-7.2,4.6c-0.1,0-0.1,0.1-0.2,0.1
					c-1.6,1.1-3.2,2.1-4.7,3.5c-0.4,0.3-0.7,0.7-1.1,1c1.5-0.1,3.1-0.7,4.2-1.2c2.8-1.2,5.6-2.7,8.2-4.5c2-1.4,3.9-3.1,5.7-5
					c0.2-0.3,0.5-0.6,0.7-1c2.3-3.2,4.9-6.1,7.2-9.2C133.8,248.1,133.7,248.1,133.6,248.3z"/>
				<path class="st13" d="M74.2,191.2c-1.3,0.3-2.6,0.5-3.9,0.8c-2.7,0.6-5.4,1.4-8.1,2c-2.6,0.6-5.1,1.3-7.7,2.1
					c-1.2,0.4-2.3,0.8-3.5,1.3c-0.4,0.2-1.3,0.7-1.9,0.9c2.7,0,5.4-0.2,8.1-0.6c0.7-0.2,1.4-0.3,2.1-0.5c2-0.5,3.9-1,5.9-1.7
					c0.3-0.1,0.6-0.2,0.9-0.4c1.8-0.8,3.7-1.5,5.5-2.3C72.6,192.3,73.4,191.8,74.2,191.2z"/>
				<path class="st13" d="M99.4,285.9c-0.8-1.6-1.6-3.1-2.4-4.7c-1.1-2-2.2-4.7-3.6-6.8c-0.2-0.2-0.4-0.4-0.6-0.6
					c0.1,0.3,0.2,0.5,0.2,0.8c1.2,2.3,2,5.2,3,7.4c0,0,0,0.1,0.1,0.1c1.5,3,3.2,5.9,4.9,8.7c0.2,0.2,0.4,0.4,0.5,0.6
					C100.9,289.6,100.2,287.8,99.4,285.9z"/>
			</g>
		</g>
	</g>
	<g>
		<g>
			<g>
				<path class="st32" d="M12.1,305c-1.8,0-3.2,0.1-3.9,0.1c-2.9,0.2-4.8,0.4-5,2.4c-0.9,8.5,1.3,15.9,1.3,15.9l2.8-0.7
					c0,0-1.3-12.4-0.2-12.9c0.7-0.1,2.6-0.2,4.9-0.2c0-0.8,0-1.6,0-2.5C12,306.5,12,305.7,12.1,305z"/>
				<path class="st32" d="M26.6,310l0.1-5.2c0,0,0,0-0.1,0C26.6,306.7,26.6,308.4,26.6,310C26.5,310,26.6,310,26.6,310z"/>
				<path class="st33" d="M12.1,305c5.3-0.1,13.6-0.2,14.4-0.2c0-4.3-0.3-9.1-0.8-14.7C20.5,289.2,13.5,294.2,12.1,305z"/>
				<path class="st33" d="M24.3,327.9c0,0,1.9-5.7,2.2-17.9c-0.6,0-8.9-0.3-14.5-0.3C12.7,327.3,24.3,327.9,24.3,327.9z"/>
				<path class="st34" d="M11.9,307.2c0,0.9,0,1.7,0,2.5c5.6,0,13.9,0.3,14.5,0.3c0-1.6,0.1-3.4,0-5.2c-0.9,0-9.1,0.1-14.4,0.2
					C12,305.7,12,306.5,11.9,307.2z"/>
			</g>
			<path class="st33" d="M24.9,329.9l2.6-0.1l0.9-1.7c0,0,4.6-15.6,1.5-38.5l-0.3-1.3l-2.8-0.1C30.1,313.1,24.9,329.9,24.9,329.9z"
				/>
			<path class="st35" d="M24.3,327.9l0.6,2c0,0,5.3-16.8,1.9-41.7c0,0,0,0-1,2C28.2,316,24.3,327.9,24.3,327.9z"/>
		</g>
		<g>
			<path class="st36" d="M7.3,309.9c0,0-0.1-0.3-0.3-0.7c-0.1-0.4-0.3-1-0.5-1.6c-0.2-0.6-0.3-1.2-0.4-1.6c-0.1-0.4-0.1-0.7-0.1-0.7
				s0.1,0.3,0.3,0.7c0.1,0.4,0.3,1,0.5,1.6c0.2,0.6,0.3,1.2,0.4,1.6C7.3,309.6,7.3,309.9,7.3,309.9z"/>
			<path class="st36" d="M6.9,310c0,0,0-0.1-0.1-0.2c-0.1-0.1-0.2-0.3-0.3-0.5c-0.2-0.4-0.5-0.9-0.8-1.4c-0.3-0.5-0.5-1.1-0.7-1.5
				c-0.1-0.2-0.2-0.4-0.2-0.5c0-0.1-0.1-0.2-0.1-0.2s0,0.1,0.1,0.2c0.1,0.1,0.2,0.3,0.3,0.4c0.2,0.4,0.5,0.9,0.8,1.4
				c0.3,0.5,0.5,1.1,0.7,1.5c0.1,0.2,0.2,0.4,0.2,0.5C6.9,309.9,6.9,310,6.9,310z"/>
			<path class="st36" d="M6.8,310.3c0,0-0.1-0.1-0.2-0.1c-0.1-0.1-0.2-0.2-0.4-0.4c-0.3-0.3-0.7-0.8-1.1-1.3c-0.4-0.5-0.8-1-1-1.4
				c-0.1-0.2-0.2-0.4-0.3-0.5c-0.1-0.1-0.1-0.2-0.1-0.2s0.1,0.1,0.2,0.1c0.1,0.1,0.2,0.2,0.4,0.4c0.3,0.3,0.7,0.8,1.1,1.3
				c0.4,0.5,0.8,1,1,1.4c0.1,0.2,0.2,0.4,0.3,0.5C6.8,310.2,6.8,310.3,6.8,310.3z"/>
			<path class="st36" d="M6.7,310.8c0,0-0.1,0-0.2-0.1c-0.1-0.1-0.3-0.2-0.4-0.4c-0.4-0.3-0.8-0.7-1.2-1.2c-0.4-0.5-0.9-0.9-1.2-1.3
				c-0.2-0.2-0.3-0.3-0.4-0.5c-0.1-0.1-0.1-0.2-0.1-0.2s0.1,0,0.2,0.1c0.1,0.1,0.3,0.2,0.4,0.4c0.4,0.3,0.8,0.7,1.2,1.2
				c0.4,0.4,0.9,0.9,1.2,1.3c0.2,0.2,0.3,0.3,0.4,0.5C6.7,310.7,6.7,310.8,6.7,310.8z"/>
		</g>
		<g>
			<path class="st32" d="M5.4,310.5c-0.2,2.9,0.3,9.7,0.5,12.7l1.3-0.3c0,0-1.3-12.4-0.2-12.9c2.5-0.5,19.5,0.1,19.5,0.1l0-2.1
				c-2.3-0.1-7.1-0.3-11.4-0.3C8.7,307.6,5.6,306.8,5.4,310.5z"/>
		</g>
		<path class="st27" d="M54.7,295.9c-1.7,0.2-3.5,0.6-5.3,0.5c-1.4,0-2.6-0.5-3.9-1.1c-1.7-0.8-3.4-1.5-5.1-2.2
			c-1.7-0.7-3.4-1.5-5.2-2.1c-0.9-0.3-1.8-0.5-2.6-0.9c-1.8-0.4-2.8-0.6-2.8-0.6c3.1,22.9-1.5,38.5-1.5,38.5l34.5-3.2
			c0,0,6.3-14.1,1.5-28.4C62.8,296.2,56.2,295.8,54.7,295.9z"/>
		<g>
			<path class="st37" d="M28.3,328l34.5-3.2c0,0,1-2.2,1.9-5.7l-35,2.1C29.1,325.6,28.3,328,28.3,328z"/>
		</g>
		<path class="st38" d="M49.5,296c-1.4,0-2.7-0.5-3.9-1.1c-1.7-0.8-3.4-1.5-5.1-2.3c-1-0.4-2-0.9-3-1.3c5.3,23-1.6,36.8-1.6,36.8
			s3.3-0.1,16.8-0.9c5.3-12.9,2.8-26.8,1.7-31.7C52.7,295.7,51.1,296,49.5,296z"/>
		<path class="st16" d="M19.1,300.1c1.8-2.2,2.5-4.9,1.7-6c-0.8-1.1-3-0.1-4.7,2.1c-1.8,2.2-2.5,4.9-1.7,5.9
			C15.3,303.2,17.4,302.3,19.1,300.1z"/>
		<path class="st16" d="M23.1,293.3c0.3-0.2,0.5-0.5,0.4-0.8c-0.1-0.2-0.4-0.3-0.7-0.1c-0.3,0.2-0.5,0.5-0.4,0.8
			C22.5,293.5,22.8,293.5,23.1,293.3z"/>
		<g class="st7">
			<path class="st39" d="M36,328.1c0,0,3.2-0.1,16.5-0.9c0.7-1.6,1-2.7,1.5-4.4l-16.4,0.7C36.8,326.6,36,328.1,36,328.1z"/>
		</g>
		<path class="st39" d="M32.6,295.5c2.8,1.3,5.6,2.3,8.3,3.9c0,0,0,0.1,0,0.1c-0.3,1.4-0.6,2.8-0.9,4.2c1.3-1.1,2.6-2.4,3.9-3.4
			c0,0,0.1-0.1,0.2,0c2.6,4.2,4.1,9.3,5.8,14.1c1.4-3.8,1.5-8.3,1.6-12.4c0-0.1,0.1-0.1,0.2-0.2c4.5-0.7,9-1.5,13.5-2.5
			c-0.2-0.9-0.5-1.9-0.8-2.8c-1.6-0.3-8.2-0.7-9.6-0.6c-0.1,0-0.2,0-0.3,0c0-0.2-0.1-0.3-0.1-0.4c-1.6,0.2-3.2,0.5-4.8,0.5
			c-1.4,0-2.7-0.5-3.9-1.1c-1.7-0.8-3.4-1.5-5.1-2.3c-1-0.4-2-0.9-3-1.3c0,0.2,0.1,0.4,0.1,0.6c-0.8-0.3-1.6-0.6-2.4-0.9
			c-0.9-0.3-1.8-0.5-2.6-0.9c-1.8-0.4-2.8-0.6-2.8-0.6c0.2,1.7,0.4,3.3,0.6,4.9C31.1,294.8,31.8,295.2,32.6,295.5z"/>
		<g>
			<path class="st37" d="M30.6,289.7c-0.5-0.1-0.7-0.2-0.7-0.2c3.1,22.9-1.5,38.5-1.5,38.5l0.9-0.1C33.6,311,31.2,293.8,30.6,289.7z
				"/>
		</g>
		<g class="st40">
			<path class="st41" d="M11.9,307.4c0,1.2,0,2.2,0.1,3.3l14.5,0.4c0-1,0.1-2,0.1-3.1C21.7,308,16.8,307.9,11.9,307.4z"/>
		</g>
		<polygon class="st38" points="40,304.8 43.4,302 48.9,314.3 42.6,306.7 		"/>
		<path class="st42" d="M56,302.1l8.9-1.3c0,0,0.8,3.6,0.7,5.2l-9.1,0L56,302.1z"/>
		<polygon class="st42" points="31.9,296.2 38,299 39,304.3 32,301.5 		"/>
	</g>
	<g>
		<g>
			<path class="st43" d="M192.2,290.4l18-8.1l-4.4-12.4l3.5-2.2c0,0,3.1,7.4,4.4,11.4c1.3,3.9,1.6,5.4-3.4,7.6c-5,2.2-17,7.3-17,7.3
				L192.2,290.4z"/>
			<path class="st43" d="M213.7,279.1c-1.3-4-4.4-11.4-4.4-11.4l-1.8,1.1c1.1,2.6,2.4,5,3.6,7.6c0.7,1.6,1.6,3.1,2,4.8
				c0.5,2.5-2.1,4-3.5,4.6c-5.5,2.2-11.3,3.8-16.9,6l0.7,2.2c0,0,12-5,17-7.3C215.3,284.4,214.9,283,213.7,279.1z"/>
			<g>
				<polygon class="st27" points="186.7,278.1 177.3,289.5 153.5,299 153.3,324 184.7,318 196.3,309.9 				"/>
				<path class="st27" d="M186.7,278.1l-0.9,1.1c-0.6,7.7-1.4,15.3-0.6,23c0,0.2-0.2,0.4-0.3,0.5c-3.8,3.2-7.5,6.8-11,10.4
					c-0.1,0.1-0.5,0.3-0.5-0.1c0-1.2,0.2-2.3,0.3-3.5c0.2-1.2,0.8-3.1-0.6-2.5c-1.8,0.8-3.5,1.6-5.3,2.4c-3.7,1.7-7.5,3.4-11,5.7
					c-0.2,0.1-0.4,0.1-0.4-0.2c-0.1-4,0.1-8,0.2-12c0-1.7,0.1-3.4,0.1-5.1l-3,1.2l-0.2,25l31.3-6l11.6-8.1L186.7,278.1z"/>
				<path class="st27" d="M188,305.2c-2.1,2.9-4.5,5.5-7.2,7.7c-3,2.4-6.5,2.4-9.7,4.2c-0.2,0.1-0.4,0.1-0.4-0.2
					c0.1-2,0.5-3.9,0.7-5.9c-2.1,3.5-4.1,7.2-7.6,8.6c-3.4,1.3-6.9,1.9-10.4,2.5l0,1.9l31.3-6l11.6-8.1l-3.7-12.1
					C191.2,300.4,189.7,302.9,188,305.2z"/>
				<polygon class="st44" points="198.7,309.8 188.5,276.4 186.3,277.8 196.3,311.2 				"/>
				<polygon class="st45" points="198.7,309.8 188.5,276.4 188.4,276.7 196.3,311.2 				"/>
			</g>
		</g>
		<polygon class="st42" points="158,299.5 177.2,291.7 178.9,295.8 179.3,290 184.6,282.4 181.1,290.7 179.3,301 176.4,294.7 		"/>
	</g>
</g>
<g>
	<path class="st46" d="M184.4,82.2c0,0-0.6-5.8-1.4-8.9c-0.7-3.1-3.8-5.1-3.8-5.1s-43-30.3-44.6-31.1c-1.6-0.7-4.1,2-4.1,2
		S109.8,63,106.8,66.7c-3.1,3.7-3.9,6.3-3.9,6.3c-0.2,0-0.5,0-0.7,0l40.5,38.4c0.4,0.1,0.7,0.1,0.7,0.1l2.2,1c0,0,6,1.7,8.3,2.3
		c2.2,0.6,3.8-1.3,3.8-1.3s22.7-24.1,25.3-26.6C185.4,84.4,184.4,82.2,184.4,82.2z"/>
	<g>
		<path class="st47" d="M150.8,107.8l31.1-34.7c0.7-1.9-1.3-3.7-1.3-3.7l0,0c-0.8-0.7-1.4-1.2-1.4-1.2s-43-30.3-44.6-31.1
			c-1.6-0.7-4.1,2-4.1,2S109.8,63,106.8,66.7c-3.1,3.7-3.9,6.3-3.9,6.3c-0.2,0-0.5,0-0.7,0l40.5,38.4c0.4,0.1,0.7,0.1,0.7,0.1
			l1.5,0.6c0.1,0,0.2,0,0.3,0C147.1,112.4,150.8,107.8,150.8,107.8z"/>
		<path class="st48" d="M184.4,82.2c0,0-0.6-5.8-1.4-8.9c-0.4-1.7-1.5-3-2.4-3.9l0,0c0,0,2,1.8,1.3,3.7l-31.1,34.7
			c0,0-3.7,4.6-5.7,4.4c-0.1,0-0.2,0-0.3,0l0.7,0.3c0,0,6,1.7,8.3,2.3c2.2,0.6,3.8-1.3,3.8-1.3s22.7-24.1,25.3-26.6
			C185.4,84.4,184.4,82.2,184.4,82.2z"/>
	</g>
	<path class="st46" d="M150.9,49c0,0,0.1,0,0.2,0c0.6,0.1,2.1,0.3,2.7-0.1c0.7-0.5,1.8-1.6,1.8-1.6s0.5-0.7,1.5-0.4c1,0.4,7,5,7,5
		s1.4,0.5,0.8,1.8c-0.6,1.3-0.9,2.6-0.9,2.6s-0.3,0.9,0.5,1.8C164.4,58.3,150.9,49,150.9,49z"/>
	<path class="st16" d="M101,73.3c-0.8-0.6-1.4-0.1-2.3,0.1c-1,0.2-2.1,0.4-3.7,0.3c-1.6-0.1-4.3-0.1-5.3,0.5c-1,0.6-2.7,0.7-4.5,1.2
		c-1.8,0.4-2.4,3.3-2.7,4.2c-0.2,1-0.4,2-1.6,2.7c-1.2,0.6-0.8,1.3-1.1,3.1c-0.2,1.8-1.2,3.2-1.2,3.2s0.3-4.8,0.1-5.4
		c-0.2-0.6-2-1.8-2.9-2.1c-0.8-0.3-3.3-1.5-4-1.9c-0.7-0.4-1.7-1.4-2.8-1.7c-1.1-0.3-2.2,0.6-3.4,0.3c-1.2-0.3-2.1-0.4-4.4,0
		c-2.2,0.4-5.1,0.1-6.4,0.1c-1.3,0-0.6,1.8-0.8,2.4c-0.2,0.6,0,1.5-1.4,2.2c-1.4,0.7-1.1,3.5-1.1,3.5s2.4,16.7,2.9,18.1
		c0.4,1.5,2.1,3.6,2.1,3.6s25.7,29.2,27.2,30c1.5,0.8,2.7,0.4,2.7,0.4s42.1-8.3,44.5-8.7c2.3-0.4,2.5-1.9,2.5-1.9l7.1-16.1
		c0.3-0.3,1.2-0.2,1.9-0.1L102.1,73C101.6,73.1,101,73.3,101,73.3z"/>
	<path class="st49" d="M102.3,74.8c0,0-1.3-1.2-2.1-1.1c-0.8,0.1-5.9,1-5.9,1s-3.2,0-4.5,0.6c-1.3,0.6-3.5,0.6-4.2,1.9
		c-0.6,1.3-2.3,5.4-3.9,6.4c-1.6,1-1.1,1.3-1,2.4c0.1,1.1-0.2,2.5-0.9,3.2c-0.7,0.7-1,1.1-1.4,0.8c-0.4-0.3-0.1-1,0-1.2
		c0.1-0.2-0.2-4.7-0.2-5.2c0-0.5,0-0.8-1.8-1.3c-1.8-0.5-4-1.4-4.9-1.8c-0.8-0.4-1.6-0.6-2-1.1c-0.4-0.4-0.3-1.3-1.7-1.1
		c-1.4,0.2-2.1,0.6-2.9,0.3c-0.8-0.3-2.6-0.2-3.8,0.1c-1.2,0.3-3.7,0.3-4.7,0.1c-0.9-0.1-1.7,0.4-1.3,1.7c0.4,1.3,0.2,2-0.3,2.3
		c-0.5,0.3-2.5,0.8-2.2,1.8c0.3,1.1,5.9,7.4,6.3,7.6c0.4,0.3,4.7,0.2,4.3,0.8c-0.4,0.6-3.5,2.6-3.2,3.6c0.3,1,3.4,13.5,3.5,15
		c0.1,1.5,0.8,1.5,1,1.4c0.2-0.1,0.9-0.6,1.2-2.3c0.3-1.7,0.7-2.5,0.9-3.9c0.2-1.4,0.7-3.5,1.1-3.5c0.4-0.1,1.1-0.3,1.7-0.2
		c0.6,0.1,1.9,2,2.8,2.8c0.9,0.8,3.9,4,5,5.5c1.1,1.5,2.4,2.2,2.5,3.4c0.1,1.2-0.6,3.6,0.6,4.5c1.2,0.8,3.5,4.7,4,6.2
		c0.6,1.5,0.8,2.6,1.2,4c0.4,1.4,0.6,1.2,1,1.1c0.4-0.1,1.4-1.1,1.8-2.2c0.4-1.1,1.5-6.2,2.1-6.7c0.6-0.6,0.6-0.6,1.6-0.5
		c1.1,0.1,7.1-0.1,8.3-0.3c1.1-0.1,4.6-0.4,5.7-0.3c1.1,0.1,2.5,0.1,3.3-0.1c0.8-0.2,2.6-1.8,3.9-2c1.3-0.2,1.4-1.1,2.1-0.4
		c0.7,0.7,2.8,2.9,3.8,3c1.1,0.1,1.6-0.1,1.8-0.4s2.3-2.4,3.3-2.9c1-0.5,1.9-1.9,3-2.3c1.1-0.4,0.9-0.6,1.9-0.8
		c1.1-0.1,2-0.1,2.9-0.6c0.9-0.5,2.3-1,3.5-1.1c1.3-0.1,2-1,2.8-1.4c0.7-0.4,1.1-0.6,0.6-1.1C138.8,110.1,102.3,74.8,102.3,74.8z"/>
	<path class="st47" d="M142.6,111.4L102.1,73c-0.6,0.1-1.1,0.3-1.1,0.3c-0.8-0.6-1.4-0.1-2.3,0.1c-1,0.2-2.1,0.4-3.7,0.3
		c-1.6-0.1-4.3-0.1-5.3,0.5c-1,0.6-2.7,0.7-4.5,1.2c-1.8,0.4-2.4,3.3-2.7,4.2c-0.2,1-0.4,2-1.6,2.7c-1.2,0.6-0.8,1.3-1.1,3.1
		c-0.2,1.8-1.2,3.2-1.2,3.2s0.3-4.8,0.1-5.4c-0.2-0.6-2-1.8-2.9-2.1c-0.8-0.3-3.3-1.5-4-1.9c-0.7-0.4-1.7-1.4-2.8-1.7
		c-1.1-0.3-2.2,0.6-3.4,0.3c-1.2-0.3-2.1-0.4-4.4,0c-2.2,0.4-5.1,0.1-6.4,0.1c-1.3,0-0.6,1.8-0.8,2.4c-0.2,0.6,0,1.5-1.4,2.2
		c-0.9,0.5-1.1,2-1.1,2.8c0.1,0.4,0.3,1.3,1,2.3c1.1,1.5,4.5,5.6,4.5,5.6s0.5,0.4,1.1,0.5c0.6,0.1,3.4-0.2,3.4,0.1
		c0,0.4-2.5,2.3-2.8,2.9c-0.4,0.6-0.2,1,0.3,1.8c0.5,0.8,1.2,2.5,1.5,4.7c0.3,2.1,1,2.7,1.1,3.8c0.1,1.1-0.1,2.2,0.3,3
		c0.4,0.8,0.7,3.6,1.5,3.8c0.8,0.2,1.1-0.1,1.5-0.5c0.4-0.4,1.2-2.7,1.2-3.4c0-0.7,0.7-2.8,0.8-3.3c0.1-0.5,0.4-2.1,0.6-2.3
		c0.1-0.2,0.5-0.7,0.7-0.6c0.2,0.1,1.3,0.5,2.3,1.6c1,1.1,3.2,3.7,4.2,5.1c1.1,1.4,2.1,2.8,3,3.5c0.9,0.7,1.1,0.8,1,1.5
		c-0.1,0.6-0.1,2.2-0.3,3.3c-0.1,1.1,0.8,1.6,1.6,2.8c0.7,1.1,3.8,4.9,4.2,6.2c0.4,1.3,1.2,2.6,1.8,3.1c0.6,0.5,0.3-0.1,0.8-0.1
		c0.5,0,1.5-1.8,2-3c0.5-1.3,1.4-4.6,2.2-4.7c0.8-0.1,6.8-0.4,9.1-0.5c2.3-0.1,5-0.1,5.9-0.7c1-0.6,2.8-0.6,3.3-0.2
		c0.6,0.4,1.1-0.1,2-0.5c0.8-0.4,2.8-1.7,3.6-1.5c0.8,0.2,2.5,3.1,4.5,2.9c2-0.2,2.4-0.7,3-1c0.6-0.3,1.9-2.1,3.3-3.1
		c1.4-1,2-1.8,2.9-2.1c0.9-0.4,0.6,0.1,3.3-0.6c2.7-0.6,5-0.8,5.7-1.7c0.7-0.8,1.3-2.2,2.3-2.5c1-0.3,1-0.3,1-0.3s0,0.1,0.1,0.2
		C141.2,111.2,142,111.3,142.6,111.4z"/>
	<path class="st48" d="M95.2,90.8l-32,2.9l-0.2,0.1c-0.9,0.9-3,2.3-2.8,3.2c0.3,1,3.4,13.5,3.5,15c0.1,1.5,0.8,1.5,1,1.4
		c0.2-0.1,0.9-0.6,1.2-2.3c0.3-1.7,0.7-2.5,0.9-3.9c0.2-1.4,0.7-3.5,1.1-3.5c0.4-0.1,1.1-0.3,1.7-0.2c0.6,0.1,1.9,2,2.8,2.8
		c0.9,0.8,3.9,4,5,5.5c1.1,1.5,2.4,2.2,2.5,3.4c0.1,1.2-0.6,3.6,0.6,4.5c1.2,0.8,3.5,4.7,4,6.2c0.6,1.5,0.8,2.6,1.2,4
		c0.4,1.4,0.6,1.2,1,1.1c0.4-0.1,1.4-1.1,1.8-2.2c0.4-1.1,1.5-6.2,2.1-6.7c0.6-0.6,0.6-0.6,1.6-0.5c1.1,0.1,7.1-0.1,8.3-0.3
		c1.1-0.1,4.6-0.4,5.7-0.3c1.1,0.1,2.5,0.1,3.3-0.1c0.8-0.2,2.6-1.8,3.9-2c1.3-0.2,1.4-1.1,2.1-0.4c0.7,0.7,2.8,2.9,3.8,3
		c1.1,0.1,1.6-0.1,1.8-0.4s2.3-2.4,3.3-2.9c1-0.5,1.9-1.9,3-2.3c0,0,0.1,0,0.1,0c-8-7.4-24.8-23-26.2-24.2
		C99.4,90,95.2,90.8,95.2,90.8z"/>
	<path class="st48" d="M135.5,50.3c-1.8,1.9-21.8,25-21.8,25s-1.4,1.4-0.3,2.4c1,1,30.2,27.7,34.1,31.3c5.2-5.3,20.6-22.1,27.5-29.9
		l-36-29.1C139.1,50.1,137.3,48.4,135.5,50.3z"/>
	<g>
		<path class="st50" d="M100.9,73.9c-0.2-0.1-0.5-0.2-0.7-0.1c-0.8,0.1-5.9,1-5.9,1s-3.2,0-4.5,0.6c-1.3,0.6-3.5,0.6-4.2,1.9
			c-0.6,1.3-2.3,5.4-3.9,6.4c-1.6,1-1.1,1.3-1,2.4c0.1,1.1-0.2,2.5-0.9,3.2c-0.7,0.7-1,1.1-1.4,0.8c-0.4-0.3-0.1-1,0-1.2
			c0.1-0.2-0.2-4.7-0.2-5.2c0-0.5,0-0.8-1.8-1.3c-1.8-0.5-4-1.4-4.9-1.8c-0.8-0.4-1.6-0.6-2-1.1c-0.4-0.4-0.3-1.3-1.7-1.1
			c-1.4,0.2-2.1,0.6-2.9,0.3c-0.8-0.3-2.6-0.2-3.8,0.1c-1.2,0.3-3.7,0.3-4.7,0.1c-0.9-0.1-1.7,0.4-1.3,1.7c0.4,1.3,0.2,2-0.3,2.3
			c-0.5,0.3-2.5,0.8-2.2,1.8c0.3,1.1,5.9,7.4,6.3,7.6c0.4,0.3,4.7,0.2,4.3,0.8c-0.1,0.1-0.2,0.3-0.4,0.5l0.2-0.1l32-2.9
			c0,0,1.8-0.4,3.6-0.2l0-0.1L100.9,73.9z"/>
		<path class="st51" d="M139.2,110.6c-0.4-0.5-36.9-35.8-36.9-35.8s-0.7-0.7-1.4-0.9l-2.1,16.6l0,0.1c0.9,0.1,1.9,0.3,2.5,0.8
			c1.5,1.1,18.3,16.8,26.2,24.2c1-0.3,0.8-0.6,1.8-0.8c1.1-0.1,2-0.1,2.9-0.6c0.9-0.5,2.3-1,3.5-1.1c1.3-0.1,2-1,2.8-1.4
			C139.3,111.3,139.7,111.1,139.2,110.6z"/>
	</g>
	<g>
		<path class="st51" d="M178.3,69.2c-1.2-0.8-43.4-30.2-43.4-30.2s-0.6-0.3-1.3-0.2l4,10.6l0,0.1c0.9,0.1,1.6,0.7,1.6,0.7l36,29.1
			c1.7-1.9,2.8-3.2,3.3-3.7c0,0,2.1-2.4,2.1-3.3C180.5,71.3,179.4,70,178.3,69.2z"/>
		<path class="st50" d="M133.6,38.7c-0.4,0.1-0.8,0.2-1.2,0.6c-1.2,1.2-26.4,30.8-26.4,30.8s-2.4,2.4-1.2,4c1.3,1.6,38,35.3,38,35.3
			s1.6,2.1,3.2,1.2c0.2-0.1,0.8-0.7,1.7-1.6c-4-3.6-33.2-30.3-34.1-31.3c-1.1-1.1,0.3-2.4,0.3-2.4s19.9-23.1,21.8-25
			c0.7-0.8,1.4-0.9,2-0.9l0-0.1L133.6,38.7z"/>
	</g>
	<path class="st52" d="M102.8,73.6l38.3,36.6C141.1,110.2,109.3,81.1,102.8,73.6z"/>
	<g class="st4">
		<path class="st53" d="M120.8,112.4c-0.5-0.4-1.6-0.4-2.2-0.3c-0.8,0.1-1.6-0.5-2.5-0.9c-0.2-0.3-0.4-0.6-0.7-0.8
			c-0.8-0.4-1.7-0.9-2.7-0.7c-2.1,0.4-3.9,0.9-4.6,3.2c-0.3,1.2-2.1,1.1-3.1,1.5c-0.8,0.3-1.8,0.7-2.3,1.5c-0.9,1.2-1.1,3.2,1,3.4
			c3.1,0.3,5.6-2.6,8.6-2.1c2.8,0.5,5,1,7.3-0.8C120.8,115.5,122.3,113.5,120.8,112.4z"/>
		<path class="st54" d="M95.7,113.6c-0.1,0-0.1,0.1-0.1,0.1c-0.4,0.1-0.9,0.4-1.2,0.5c-0.9,0.4-1.4,1.6-0.1,1.9
			c1,0.2,2.5-0.2,3.2-1.1C98.2,113.9,96.7,113.4,95.7,113.6z"/>
		<path class="st55" d="M96.1,107.9c-0.5-0.1-1.1-0.1-1.6-0.2c0.1-0.8,0.2-1.6,0.3-2.5c0.3,0.1,0.6,0.1,0.9,0.2c0,0,0.1-0.1,0.1-0.1
			c-0.3-0.1-0.6-0.1-1-0.2c0.2-1.5,0.3-3,0.3-4.4c0,0,0,0,0,0c-0.1,1.5-0.2,2.9-0.4,4.4c-0.2,0-0.5-0.1-0.7-0.1c0,0,0,0,0,0
			c0.2,0.1,0.5,0.1,0.7,0.2c0,0.1,0,0.2,0,0.4c0,0,0,0,0,0c-0.6-0.1-1.2-0.2-1.8-0.3c0,0,0-0.1,0-0.1c0.2-1.5,0.8-3.1,0.6-4.5
			c0,0,0,0,0,0c0,0.8-0.1,1.7-0.4,2.5c-0.4,0-0.8-0.1-1.2-0.1c-0.1,0-0.2,0-0.4,0c0.2-1,0.3-2,0.5-3c0,0,0,0,0,0c-0.2,1-0.3,2-0.5,3
			c-0.3,0-0.6-0.1-0.9-0.2c0,0,0,0,0,0c0.3,0.1,0.6,0.2,0.9,0.3c-0.1,0.6-0.2,1.2-0.4,1.8c-1.2-0.2-2.4-0.4-3.6-0.6c0,0,0,0,0,0
			c1.2,0.3,2.3,0.6,3.6,0.8c-0.1,0.6-0.2,1.3-0.3,1.9c-1.1-0.2-2.2-0.4-3.2-0.7c0,0,0,0,0,0c1,0.3,2.1,0.6,3.2,0.8
			c-0.1,0.7-0.2,1.3-0.3,2c0,0.1,0.1,0,0.1,0c0.1-0.7,0.2-1.3,0.3-2c0.5,0.1,1,0.2,1.5,0.3c0,0.3-0.1,0.6-0.1,0.9
			c0,0-0.1-0.1-0.1-0.1c0,0,0,0,0,0c0,0,0.1,0.1,0.1,0.1c0,0.5-0.1,1.1-0.1,1.6c0,0.1,0.1,0.1,0.1,0c0.1-0.5,0.2-0.9,0.3-1.4
			c0.3,0.1,0.5,0.1,0.8,0.2c0.3,0.1,0.7,0.1,1,0.2c0,0.2,0,0.5-0.1,0.7c0,0.1,0.1,0,0.1,0c0-0.2,0.1-0.4,0.1-0.7
			c0.3,0,0.7,0.1,1,0.1c0.1,0,0.1-0.1,0-0.1c-0.4,0-0.7-0.1-1.1-0.1c0-0.3,0.1-0.7,0.1-1c0.5,0.1,1.1,0.1,1.6,0.1
			C96.1,108,96.2,107.9,96.1,107.9z M91.4,103.2c0.5,0.1,1.1,0.1,1.6,0.1c-0.2,0.7-0.4,1.3-0.5,1.9c0,0,0,0,0,0
			c-0.5-0.1-0.9-0.1-1.4-0.2C91.2,104.4,91.3,103.8,91.4,103.2z M92.2,107.3c-0.5-0.1-1-0.2-1.5-0.2c0.1-0.6,0.2-1.3,0.3-1.9
			c0.5,0.1,0.9,0.2,1.4,0.2C92.3,106.1,92.3,106.7,92.2,107.3z M94.2,108.9c-0.2,0-0.3,0-0.5-0.1c-0.3,0-0.9-0.1-1.3-0.2
			c0-0.3,0.1-0.7,0.1-1c0.6,0.1,1.2,0.2,1.8,0.2C94.3,108.2,94.2,108.5,94.2,108.9z M94.3,107.7c-0.6-0.1-1.2-0.2-1.8-0.2
			c0.1-0.6,0.1-1.3,0.2-1.9c0.6,0.1,1.2,0.2,1.8,0.2c0,0,0,0,0.1,0C94.5,106.3,94.4,107,94.3,107.7z"/>
	</g>
	<path class="st56" d="M152.7,94.2c-0.1,0-0.1,0-0.2,0c-0.1,0-0.2,0.2-0.2,0.3c0,0,0,0,0,0c0,0.2,0.1,0.2,0.2,0.1
		c0.1,0,0.2-0.1,0.2-0.2C152.8,94.4,152.8,94.3,152.7,94.2z"/>
	<g class="st31">
		<path class="st57" d="M146.4,91.9c-0.7,0.1-1.4,0.2-2.1,0.4c0-0.4-0.1-0.9-0.1-1.3c0.6-0.1,1.3-0.2,1.9-0.3c0.1,0,0.1-0.1,0-0.1
			c-0.7,0.1-1.3,0.1-2,0.2c0-0.4,0-0.8-0.1-1.2c0,0-0.1,0-0.1,0c0,0.4,0,0.8,0,1.2c-0.4,0.1-0.8,0.1-1.2,0.2c-0.1-1-0.2-1.9-0.5-2.8
			c0,0,0,0,0,0c0.1,0.9,0.2,1.9,0.2,2.8c-0.1,0-0.1,0-0.2,0c-0.2,0-0.5,0.1-0.7,0.1c-0.1-1.2-0.2-2.4-0.3-3.6c0-0.1-0.1,0-0.1,0
			c0.1,1.2,0.1,2.4,0.2,3.6c-0.4,0.1-0.8,0.1-1.3,0.2c-0.2,0-1.4,0-1.5,0.1c0,0,0-0.1,0,0c0,0-0.1,0.1-0.1,0.1c0,0,0,0.1,0,0.1
			c1-0.1,1.9-0.2,2.9-0.3c0,0.5,0,1,0.1,1.5c-0.8,0.1-1.6,0.3-2.3,0.3c0,0-0.1,0.1,0,0.1c0.8,0,1.6-0.1,2.4-0.2c0,0.3,0,0.6,0.1,0.9
			c-0.1,0-0.2,0-0.3,0c0,0,0,0,0,0c0.1,0,0.2,0.1,0.3,0.1c0,0.8,0.1,1.6,0.2,2.4c0,0.1,0.1,0,0.1-0.1c0-0.8-0.1-1.6-0.1-2.4
			c0.3,0,0.5,0,0.8-0.1c0,0.9,0.1,1.7,0.3,2.6c0,0.2,0.2,0,0.2-0.1c0-0.8,0-1.7,0-2.6c0.4-0.1,0.8-0.1,1.1-0.2
			c0.1,1.4,0.1,2.7,0.2,4.1c0,0.1,0.1,0,0.1,0c0-1.4,0-2.7-0.1-4.1c0.4-0.1,0.8-0.2,1.3-0.3c0.1,0,0.1-0.1,0-0.1
			c-0.4,0.1-0.8,0.2-1.3,0.3c0-0.3,0-0.6-0.1-0.9c0.7-0.2,1.4-0.3,2-0.5C146.4,92,146.5,91.9,146.4,91.9z M144.1,91
			c0,0.4,0,0.9,0,1.3c-0.4,0.1-0.8,0.2-1.1,0.2c0-0.5,0-0.9-0.1-1.4C143.3,91.1,143.7,91.1,144.1,91z M142.6,91.2c0,0.5,0,1,0,1.4
			c-0.3,0.1-0.5,0.1-0.8,0.2c0-0.5-0.1-1-0.1-1.5C142,91.3,142.3,91.3,142.6,91.2z M141.8,93.9c0-0.3,0-0.6,0-0.9
			c0.3,0,0.5-0.1,0.8-0.1c0,0.3,0,0.6,0,1C142.3,93.9,142.1,93.9,141.8,93.9z M143.8,93.6c-0.2,0-0.5,0.1-0.7,0.2c0-0.3,0-0.6,0-1
			c0.4-0.1,0.8-0.2,1.1-0.2c0,0.3,0,0.6,0,0.9C144,93.5,143.9,93.5,143.8,93.6z"/>
		<path class="st57" d="M150.8,96.3c-0.4-0.1-1,0.1-1.4,0.4c-0.1,0.1-0.1,0.1-0.2,0.2c-0.3,0.3-0.6,0.7-0.5,1.2
			c0.1,0.8,1,0.8,1.6,0.5c0.3-0.1,0.7-0.4,0.9-0.6C151.8,97.3,151.5,96.4,150.8,96.3z"/>
		<path class="st55" d="M142.9,80.3c-0.4-1.1-1.9-0.5-2.8-0.6c-0.7-0.1-1.9-0.3-2.5,0.4c-0.4,0.5-0.2,1.2-0.4,1.8
			c-0.2,0.5-0.7,0.9-0.5,1.5c0.3,0.8,1,0.6,1.6,0.4C140.1,83.2,144.2,83.6,142.9,80.3z"/>
	</g>
	<g>
		<path class="st46" d="M86.8,130.7c-0.5,0-0.2,0.6-0.8,0.1c-0.6-0.5-1.3-1.8-1.8-3.1c-0.4-1.3-3.5-5.1-4.2-6.2
			c-0.7-1.1-1.7-1.6-1.6-2.8c0.1-1.1,0.1-2.7,0.3-3.3c0.1-0.6-0.1-0.8-1-1.5c-0.9-0.7-1.9-2.1-3-3.5c-1.1-1.4-3.3-4-4.2-5.1
			c-1-1.1-2.1-1.4-2.3-1.6c-0.2-0.1-0.6,0.4-0.7,0.6c-0.1,0.2-0.4,1.8-0.6,2.3c-0.1,0.5-0.8,2.6-0.8,3.3c0,0.7-0.8,3-1.2,3.4
			c-0.4,0.4-0.7,0.7-1.5,0.5c-0.8-0.2-1.1-3-1.5-3.8c-0.4-0.8-0.2-1.9-0.3-3c-0.1-1.1-0.8-1.7-1.1-3.8c-0.3-2.1-1-3.9-1.5-4.7
			c-0.5-0.8-0.6-1.1-0.3-1.8c0.4-0.6,2.8-2.5,2.8-2.9c0-0.4-2.8-0.1-3.4-0.1c-0.6-0.1-1.1-0.5-1.1-0.5s-3.4-4.1-4.5-5.6
			c-0.7-1-0.9-1.8-1-2.3c0,0.4,0,0.7,0,0.7s2.4,16.7,2.9,18.1c0.4,1.5,2.1,3.6,2.1,3.6s25.7,29.2,27.2,30c0.4,0.3,0.9,0.4,1.2,0.5
			c0,0,0-0.1,0-0.1L86.8,130.7z"/>
		<path class="st48" d="M140.7,111.3c0,0,0,0-1,0.3c-1,0.3-1.6,1.6-2.3,2.5c-0.7,0.8-3,1.1-5.7,1.7c-2.7,0.6-2.3,0.2-3.3,0.6
			c-0.9,0.4-1.5,1.1-2.9,2.1c-1.4,1-2.8,2.8-3.3,3.1c-0.6,0.3-1,0.8-3,1c-2,0.2-3.6-2.7-4.5-2.9c-0.8-0.2-2.8,1.1-3.6,1.5
			c-0.8,0.4-1.4,0.8-2,0.5c-0.6-0.4-2.3-0.4-3.3,0.2c-1,0.6-3.7,0.6-5.9,0.7c-2.3,0.1-8.3,0.4-9.1,0.5c-0.8,0.1-1.7,3.4-2.2,4.7
			c-0.5,1.3-1.5,3-2,3l-1.6,7.5c0,0,0,0,0,0.1c0.9,0.2,1.4,0,1.4,0s42.1-8.3,44.5-8.7c2.3-0.4,2.5-1.9,2.5-1.9l7.1-16.1
			c0,0,0.1,0,0.1-0.1C140.8,111.3,140.7,111.3,140.7,111.3z"/>
	</g>
	<path class="st58" d="M104.9,74.4c0,0-1.1-1.5-0.1-3c1-1.5,27.1-31.6,27.1-31.6s1.3-1.8,2.9-0.9l6.9,4.9c0,0-6.8-4.6-7.9-4.6
		c-1.7,0.1-28.1,32.3-28.1,32.3S104.4,73.1,104.9,74.4z"/>
	<path class="st59" d="M64.3,93.5l32.5-2.8c0,0,2.8-0.4,4,0.5c1.2,0.9,4.2,3.7,4.2,3.7s-3.8-2.9-7-3C96.4,91.8,64.3,93.5,64.3,93.5z
		"/>
	<path class="st60" d="M115.3,79.7c0,0,29.9,27.2,30.1,27.5C145.6,107.5,122.9,85,115.3,79.7z"/>
	<path class="st59" d="M120.3,68.1l14.8-17.3c0,0,1.7-2.1,3.5-1c0,0-1.8-0.4-3.3,1.3C133.8,52.7,120.3,68.1,120.3,68.1z"/>
</g>
<g>
	<g>
		<path d="M33.4,389.3l3.6-0.6c0,0,5,4.9,5.9,5.8c1,0.9,9.1-2.7,9.9-3.2c0.8-0.5,1.3,0.2,3.1,1c1.9,0.8,4.9,0.2,6.6-0.5
			c1.6-0.7,8.7,9.7,10.2,10.4c1.5,0.7,5.9-1.5,5.9-1.5l9.2,4.4c0,0,11.3,2.4,12,2.7c0.7,0.3,4.1,1,6.2,1.8
			c2.1,0.9,7.7,5.4,12.8,10.6c5.1,5.2,25.2,4.6,26.9,4.7c1.8,0,2.5-1.4,2.5-1.4c2.6-2.5,5.8-10.6,6-12.2c0.3-1.7-6.1-7.7-10.7-9.2
			c-4.5-1.6-9.7-0.1-16,2.3c-6.3,2.5-9.6,0.8-9.6,0.8l3.4-2.6l-0.2-2.8c0,0,2.4-1.6,4.2-2.5c1.7-0.9,2.8-3.3,2.8-3.3l7,0.5
			c0,0,3-5.7,4.4-7.5c1.4-1.8,0.9-6.6,0.9-6.6s3-2,3.4-2.6c0.4-0.5-1.7-3.9-1.7-3.9s12.1-10.3,13.7-10.2c1.6,0.1,3.8-1.4,5,0
			c1.2,1.4,6.2,4.5,7.5,6.3c1.3,1.8,2.4,3,4.5,4.3c2.1,1.2,8.6,2.1,10.1,1.4c1.4-0.8,4.8-4.6,6.5-6.2c1.6-1.7,1.3-12,1.6-13.5
			c0.3-1.5-4.5-5.1-9.3-6.5c-4.9-1.4-18.5,1.6-20.7,1.8c-2.2,0.2-7.5-4.4-11.5-7c-4-2.6-13.5-1.8-14.3-1.7c-0.7,0.1-2.2-2-2.7-3.5
			c-0.5-1.5-3.3,0.8-4.5,1.2c-1.2,0.3-6.3-7-7.9-8.1c-1.6-1.1-19.6,1.3-25.4,3.2c-5.8,1.9-13.2,0.8-13.2,0.8
			c-6.7,13.5-13,18.3-13,18.3s-13.8,6.2-17.1,9.9c-3.3,3.7-7.6,8.5-11.5,13C36.2,381.8,33.4,389.3,33.4,389.3z M161,358.5
			c2-1,5.5-3,12.5-3c7,0,11.4,2.9,12.6,3.9c1.2,1,0.4,7.8,0.4,7.8s-6.5,2.9-8,3.2c-1.5,0.3-4.9-2.5-6.9-4.1c-2-1.7-4.6-2.9-5.6-4.4
			C165,360.4,161,358.5,161,358.5z M117.7,412.7c0.8,0.2,10.4-0.3,15.4-1.4c4.9-1.1,9.1-0.5,12.4,1.5c3.3,2,3.3,7.1,3.3,7.1
			s-5.4-0.2-8.7-0.1c-3.2,0.1-10.9-0.7-14-1.4C122.9,417.8,117.5,412.7,117.7,412.7z"/>
		<g>
			<path class="st61" d="M114.9,400.6l1.1-4l4.2-6.7l-4.3-2.1l4.4-1.4l3.5-2.3c1,0.5,6.1,5.9,6.1,5.9l5.6-2.7l0.6-1.4l-0.9-4.1
				c0,0,1.1-2.7,1.3-3c0.2-0.3,0.2-3,0.2-3l-4-2.4l-3.5-0.9l3-1.2c0,0,4.5,0.2,5.7,0.3c1.3,0,3.1,0.7,3.1,0.7s1.1-1.9,2.2-3.4
				c1.1-1.4,6.1-4.1,6.1-4.1l2.5-1.6c0,0,0.1-0.7,1.4-1.7c1.3-1,7.6-3,7.6-3s4.1,1.9,5,3.4c0.9,1.5,3.6,2.7,5.6,4.4
				c2,1.7,5.4,4.5,6.9,4.1c1.5-0.3,8-3.2,8-3.2c0.2,0.9-0.8,5-1.2,6.3c-0.9,0.9-1.8,1.6-2.3,1.9c-1.4,0.8-8-0.1-10.1-1.4
				c-2.1-1.2-3.2-2.5-4.5-4.3c-1.3-1.8-6.3-4.9-7.5-6.3c-1.2-1.4-3.4,0.1-5,0c-1.6-0.1-13.7,10.2-13.7,10.2s2,3.4,1.7,3.9
				c-0.4,0.5-3.4,2.6-3.4,2.6s0.5,4.8-0.9,6.6c-1.4,1.7-4.4,7.5-4.4,7.5l-7-0.5c0,0-1.1,2.4-2.8,3.3c-1.7,0.9-4.2,2.5-4.2,2.5
				l0.2,2.8l-3.4,2.6l-2.7-0.6L114.9,400.6z"/>
			<path class="st62" d="M156.8,363.4c1.3-0.9,2.7-0.9,4.2-1.1c0.7-0.1,1.8,1.2,2.3,1.6c0.9,0.7,1.9,1.3,2.8,2c2.8,2.1,5,6,8.4,7.3
				c2.3,0.8,5.8,1.4,8.1,0.4c2.1-0.9,3-3.1,3.8-5.2c-0.2,1.6-0.9,4.2-1.2,5.3c-0.9,0.9-1.8,1.6-2.3,1.9c-1.4,0.8-8-0.1-10.1-1.4
				c-2.1-1.2-3.2-2.5-4.5-4.3c-1.3-1.8-6.3-4.9-7.5-6.3c-1-1.2-2.8-0.3-4.2-0.1C156.7,363.5,156.8,363.4,156.8,363.4z"/>
			<path class="st62" d="M147.6,366.1c-2,1.7-4.7,3.3-5.6,5.9c-0.2,0.7-0.5,1.4-1.2,1.4c-0.8,0-1.6-0.1-2.4-0.3
				c-1.5-0.4-2.9-0.6-4.5-0.4c-0.8,0.1-1.6,0.2-2.4,0.4l-2.3-0.6l3-1.2c0,0,4.5,0.2,5.7,0.3c1.3,0,3.1,0.7,3.1,0.7s1.1-1.9,2.2-3.4
				c0.9-1.1,3.9-2.9,5.3-3.7C148.3,365.5,148,365.8,147.6,366.1z"/>
			<path class="st62" d="M118.4,393.6c1.9,0.8-1.6,4.5-2.1,5.6c-0.7,1.7-0.1,3.7,0.2,5.5l-1-0.2l-0.5-3.9l1.1-4l2.2-3.4
				C118.1,393.3,118.2,393.6,118.4,393.6z"/>
			<path class="st62" d="M136.7,376.5c0.6,0.2,0.7,0.1,0.5,0.8c-0.3,1-0.4,1.9-0.4,2.9c0,1.2,0,2.3,0.2,3.5c0.4,1.9-0.4,2.6-1.6,3.9
				c-0.8,0.8-1.1,1.9-1.9,2.6c-1,1.1-2.7,0.5-3.9,0.2c-1.2-0.3-2.5-0.6-3.7-0.6c-0.6,0-1.3-1.9-1.6-2.4c-0.1-0.2-0.4-0.2-0.6-0.1
				c-2.1,1.5-3.8,3.4-5.4,5.4l1.9-3.1l-4.3-2.1l4.4-1.4l3.5-2.3c1,0.5,6.1,5.9,6.1,5.9l5.6-2.7l0.6-1.4l-0.9-4.1c0,0,1.1-2.7,1.3-3
				C136.6,378.6,136.7,377.3,136.7,376.5z"/>
			<path class="st61" d="M117.7,412.7c-0.3-0.1,5.1,5.1,8.3,5.8c3.2,0.7,10.8,1.5,14,1.4c3.2-0.1,8.7,0.1,8.7,0.1
				c0.5,2.3-1.3,4.1-2.1,4.8c-0.3,0.1-0.6,0.1-0.9,0.1c-1.8,0-21.8,0.5-26.9-4.7c-4.5-4.6-9.5-8.7-12-10.2c0.2,0,0.4,0.1,0.7,0.2
				C110,411.3,117.7,412.7,117.7,412.7z"/>
			<path class="st62" d="M107.6,410.3c0.9,0.4,2.6,0.8,4.3,1.2c0.1,0.2,0.3,0.4,0.4,0.6c1.2,1.8,6.7,8.6,10.7,9.3
				c4.8,0.8,10.7,2.4,17.2,2.3c1.8,0,5.4-0.2,7.1-1c0.5-0.2,0.9-0.5,1.3-0.8c-0.4,1.4-1.4,2.4-2,2.9c-0.3,0.1-0.6,0.1-0.9,0.1
				c-1.8,0-21.8,0.5-26.9-4.7c-4.5-4.6-9.5-8.7-12-10.2C107.1,410.1,107.4,410.2,107.6,410.3z"/>
			<path class="st61" d="M51.3,369.3c2.7-2.6,11.7-8.4,16.8-11.8c5.1-3.3,7.3-5.8,8.5-6.9c1.3-1.1,4.1-6.4,5.5-9
				c1.1-2.2,2.6-4.6,3-5.3c2.7,0.1,6.5,0,9.7-1.1c5.8-1.9,23.7-4.3,25.4-3.2c1.6,1.1,6.7,8.4,7.9,8.1c1.2-0.3,4.1-2.7,4.5-1.2
				c0.5,1.5,1.9,3.6,2.7,3.5c0.7-0.1,10.3-0.9,14.3,1.7c4,2.6,9.2,7.1,11.5,7c2.2-0.2,15.9-3.2,20.7-1.8c4.9,1.4,9.7,5,9.3,6.5
				c-0.3,1.5,0,11.8-1.6,13.5c-1,1-2.7,2.9-4.2,4.3c0.4-1.3,1.4-5.4,1.2-6.3c0,0,0.8-6.7-0.4-7.8c-1.2-1-5.6-3.9-12.6-3.9
				c-7,0-10.5,1.9-12.5,3c0,0-6.3,2.1-7.6,3c-1.3,1-1.4,1.7-1.4,1.7l-2.5,1.6c0,0-5,2.7-6.1,4.1c-1.1,1.4-2.2,3.4-2.2,3.4
				s-1.8-0.7-3.1-0.7c-1.3,0-5.7-0.3-5.7-0.3l-3,1.2l3.5,0.9l4,2.4c0,0,0,2.7-0.2,3c-0.2,0.3-1.3,3-1.3,3l0.9,4.1l-0.6,1.4l-5.6,2.7
				c0,0-5.1-5.4-6.1-5.9l-3.5,2.3l-4.4,1.4l4.3,2.1l-4.2,6.7l-1.1,4l0.5,3.9l2.7,0.6c0,0,3.2,1.7,9.6-0.8c6.3-2.5,11.5-3.9,16-2.3
				c4.5,1.6,10.9,7.6,10.7,9.2c-0.3,1.7-3.4,9.8-6,12.2c0,0-0.5,1-1.6,1.3c0.8-0.7,2.6-2.6,2.1-4.8c0,0,0-5.1-3.3-7.1
				c-3.3-2-7.4-2.7-12.4-1.5c-4.9,1.1-14.6,1.6-15.4,1.4c0,0-7.7-1.5-10.1-2.5c-0.2-0.1-0.4-0.1-0.7-0.2c-0.3-0.2-0.6-0.3-0.8-0.4
				c-2.1-0.9-5.5-1.5-6.2-1.8c-0.7-0.3-12-2.7-12-2.7l-9.2-4.4c0,0-4.5,2.3-5.9,1.5c-1.5-0.7-8.6-11.1-10.2-10.4
				c-1.6,0.7-4.7,1.2-6.6,0.5c-1.9-0.8-2.4-1.5-3.1-1c-0.8,0.5-8.9,4.2-9.9,3.2c-1-0.9-5.9-5.8-5.9-5.8s6-7.5,7.4-9.4
				C45.8,377.5,48.7,371.9,51.3,369.3z"/>
			<path class="st61" d="M40.1,377.2c3.9-4.5,8.3-9.3,11.5-13c3.3-3.7,17.1-9.9,17.1-9.9s6.3-4.8,13-18.3c0,0,1.4,0.2,3.5,0.3
				c-0.5,0.7-1.9,3.1-3,5.3c-1.4,2.6-4.2,7.9-5.5,9c-1.3,1.1-3.4,3.6-8.5,6.9c-5.1,3.3-14.1,9.2-16.8,11.8c-2.7,2.6-5.5,8.2-6.9,10
				c-1.4,1.9-7.4,9.4-7.4,9.4l-3.6,0.6C33.4,389.3,36.2,381.8,40.1,377.2z"/>
			<path class="st63" d="M37,388.8c0,0,5,4.9,5.9,5.8c1,0.9,9.1-2.7,9.9-3.2c0.8-0.5,1.3,0.2,3.1,1c1.9,0.8,4.9,0.2,6.6-0.5
				c1.6-0.7,8.7,9.7,10.2,10.4c1.5,0.7,5.9-1.5,5.9-1.5l9.2,4.4c0,0,11.3,2.4,12,2.7c0.7,0.3,4.1,1,6.2,1.8c0.2,0.1,0.5,0.2,0.8,0.4
				c0.2,0,0.4,0.1,0.7,0.2c2.5,1,10.1,2.5,10.1,2.5c0.8,0.2,10.4-0.3,15.4-1.4c4.9-1.1,9.1-0.5,12.4,1.5c3.3,2,3.3,7.1,3.3,7.1
				c0.5,2.3-1.3,4.1-2.1,4.8c1.1-0.3,1.6-1.3,1.6-1.3c2.6-2.5,5.8-10.6,6-12.2c0.2-1-2.2-3.7-5.2-6c0.6,1.1,1.1,2.1,1.7,3.2
				c0.5,0.9,1.3,2.1,1.2,3.2c-0.1,1.1-1.2,2.1-1.9,3c-0.2,0.2-0.5,0.2-0.6,0c-1-1.3-1.9-2.6-2.9-3.8c-1.7-2-3.9-2-6.3-1.9
				c-4.3,0.2-8.6,0-12.8,0.1c-1.7,0-3.3,0.1-4.9,0.4c-1.1,0.2-2.8,0.7-3.8,0.2c-2-1-3.5-3.5-3.4-5.8l-0.4-3.3l1.1-4l4.2-6.7
				l-4.3-2.1l4.4-1.4l3.5-2.3c1,0.5,6.1,5.9,6.1,5.9l5.6-2.7l0.6-1.4l-0.9-4.1c0,0,1.1-2.7,1.3-3c0.2-0.3,0.2-3,0.2-3l-4-2.4
				l-3.5-0.9l3-1.2c0,0,4.5,0.2,5.7,0.3c1.3,0,3.1,0.7,3.1,0.7s1.1-1.9,2.2-3.4c1.1-1.4,6.1-4.1,6.1-4.1l2.5-1.6
				c0,0,0.1-0.7,1.4-1.7c1.3-1,7.6-3,7.6-3c2-1,5.5-3,12.5-3c7,0,11.4,2.9,12.6,3.9c1.2,1,0.4,7.8,0.4,7.8c0.2,0.9-0.8,5-1.2,6.3
				c1-0.9,2-2,2.9-3c-0.1-1.4,0-2.8,0-4.1c0.2-2.6,1.3-7.3-1.6-8.7c-2.4-1.1-5.3-1.9-7.8-2.8c-3.2-1.1-6.4-1.6-9.8-1.2
				c-5.6,0.6-10.3,3.3-15.4,5.3c-1.9,0.7-3.5,0-5.4-0.7c-2.6-0.9-5.4-0.9-7.9-1.7c-0.3-0.1-0.3-0.6,0-0.7c2.5-1,4.9-2,7.5-2.7
				c2.8-0.7,5.3-0.2,8.2-0.2c1.3,0,2.7-0.7,3.9-1.1c1.4-0.5,2.9-0.9,4.3-1.3c0.1,0,0.1,0,0.2,0c-1.6,0.3-2.9,0.5-3.4,0.5
				c-2.2,0.2-7.5-4.4-11.5-7c-4-2.6-13.5-1.8-14.3-1.7c-0.7,0.1-2.2-2-2.7-3.5c-0.5-1.5-3.3,0.8-4.5,1.2c-1.2,0.3-6.3-7-7.9-8.1
				c-1.6-1.1-19.6,1.3-25.4,3.2c-3.3,1.1-7,1.2-9.7,1.1c-0.5,0.7-1.9,3.1-3,5.3c-1.4,2.6-4.2,7.9-5.5,9c-1.3,1.1-3.4,3.6-8.5,6.9
				c-5.1,3.3-14.1,9.2-16.8,11.8c-2.7,2.6-5.5,8.2-6.9,10C43,381.3,37,388.8,37,388.8z M114.9,367.4c-0.7,1.4-1.6,2.6-2.5,4
				c-0.7,1.1-0.6,2.2-1.9,3c-1.4,0.8-3.2,1.2-4.7,1.6c-2,0.6-3.9,1.2-5.9,1.8c-0.5,0.1-0.8-0.5-0.3-0.7c2.2-1.2,4.7-2.7,5.8-5.1
				c0.6-1.2,0.5-2.7,0.7-4c0.3-1.7,0.5-3.4,0.7-5.1c0.3-2.1,0.1-3.4,2.1-4.6c1.4-0.8,3.1-1,4.6-1.4c-0.2,0-0.4-0.1-0.6-0.1
				c-2,0.4-4.1,0.6-6.2,0.9c-2,0.3-4,1-5,2.8c-0.7,1.3-0.8,2.9-1,4.3c-0.4,2.4,0.5,5.5-0.7,7.7c-0.6,1-1.5,1.5-2.6,1.9
				c-1,0.5-2,0.9-2.7,1.2c-3.5,1.5-7.3,2.4-11,3.7c-2.1,0.7-3.5,1.8-5.8,1.2c-2.7-0.7-5.1-2.6-7.7-3.6c-3.3-1.2-7.3-0.2-10.7,0.2
				c-3.4,0.4-6.9,0.1-10.2,0.8c-0.4,0.1-0.6-0.5-0.3-0.7c4.7-3.4,9.4-6.9,14.1-10.3c1-0.7,2.1-1.4,3-2.3c0.7-0.7,1.4-1.4,2.1-2.1
				c1.2-1.2,2.6-2,4.5-2.1c4.6-0.1,9.2-0.3,13.8-0.6c2.3-1.7,4-4.5,7.2-4.5c3.6,0,7.2,0.4,10.8,0.1c-0.6-0.1-1.1-0.2-1.7-0.2
				c-1.3-0.1-2.6,0.1-3.9-0.1c-0.7-0.1-1.3-0.8-1.8-1.2c-1-0.9-2.1-1.8-3.2-2.7c-2.5-2-4.9-4.4-7.8-5.7c-0.4-0.2-0.3-0.7,0.1-0.8
				c2-0.4,4-0.7,6-1c-1.3-0.2-2.5-0.2-3.8-0.2c-0.3,0-0.6-0.3-0.4-0.6c1-1.3,1.8-2.8,3-4c1.2-1.2,2.7-1.6,4.4-1.9
				c4.4-0.9,8.8-1.5,13.2-2.1c3.1-0.5,7.4-1.6,10.5-0.4c1.5,0.5,2.5,2.1,3.4,3.2c1.2,1.5,2.3,3.1,3.2,4.8c0.1,0.3-0.1,0.6-0.4,0.6
				c-3.5-0.8-5.9-4-9.8-3.2c-2.1,0.4-4,1.4-6.1,1.9c-0.8,0.2-1.6,0.4-2.4,0.7c0.1,0,0.3,0,0.4,0c2.5-0.2,5.2-0.5,7.7,0.1
				c2,0.5,4,1.6,5.6,3c1,0.3,2,0.6,3.1,0.8c2.7,0.3,5.6-0.4,8.2-0.7c0.1,0,0.2,0,0.3,0.1c2-0.3,4.1-0.7,6.2-0.6
				c3.4,0,6.9,2.2,9.5,4.1c0.3,0.2,0.1,0.7-0.2,0.7c-3.8,0.6-7.5,1.3-11.2,2.2c-1.5,0.4-3,0.9-4.5,1.3c-0.3,0.2-0.7,0.3-1,0.5
				c-2.2,1.2-4.9,2.2-6.8,3.8c1.8,1.2,4,1.8,6,2.6c2.4,1,4.8,1.8,7.1,3.1c0.3,0.2,0.2,0.7-0.2,0.7c-1.7,0-3.3-0.3-5-0.4
				c-2.1-0.1-4.3,0-6.4,0.2C122.4,363.8,116.8,363.7,114.9,367.4z M42.3,386.8c0.4-0.1,0.7-0.3,1.1-0.4c0-0.1,0.1-0.2,0.2-0.3
				c4.6-1.9,9.2-3.9,14-5.3c3.6-1,7.6-2.1,11.3-2c1.6,0.1,2.8,1.1,3.9,2.1c1.6,1.4,3.6,2.1,5.6,2.7c2.9,0.9,6,1.4,8.5,2.9
				c3.4-1.6,6.6-3.7,10.1-5.1c2.2-0.9,4.4-1.4,6.8-1.5c2.3-0.1,4.7,0.4,7.1,0.5c2.7,0.1,5-0.8,7.2-2.4c1.3-0.9,3-2.3,4.7-2.3
				c3,0.1,5.9,3.4,7.9,5.4c0.2,0.2,0,0.6-0.3,0.7c-3.2,0.6-6.4-0.5-9.6-0.2c-1.9,0.2-3.4,1.6-4.9,2.5c-1.8,1-3.7,1.8-5.2,3.1
				c1.5,0.5,3,0.9,4.3,1.9c0.2,0.1,0.2,0.4,0.1,0.6c-1.8,2.4-3.8,4.7-5.8,6.9c-0.5,0.6-1,1.1-1.6,1.7c-0.5,0.5,0.5,1.4,0.7,1.7
				c0.8,1.2,1.5,2.4,2.3,3.6c0.2,0.3,0.1,0.6-0.3,0.7c-2.7,0.4-5.4-0.2-8.2-0.1c-1.8,0.1-3.8,0.4-5.5-0.6c-4.1-2.5-7.1-6.4-10.4-9.8
				c-0.1-0.1-0.1-0.3-0.1-0.4c1.1-2.2,2.9-3.9,4.6-5.6c-1.5,0.7-3.1,1.4-4.7,2.1c-2.2,1.5-4.4,2.9-6.7,4.3c-0.2,0.1-0.5,0.1-0.6-0.2
				c-0.6-1.3-0.8-2.7-1.3-4.1c-0.8-2.4-4.8-1.6-6.6-1.4c-3.9,0.3-7.5,1.6-11.3,2.3c-1.1,0.2-2.2,0.1-3.1-0.5c-0.5-0.3-1-0.8-1.5-1.2
				c-0.8-0.6-2.3,0.5-3.1,0.7c-1.2,0.3-2.6-0.2-3.7-0.5c-2-0.6-3.9-1.5-5.9-1.8C42,387.5,41.9,386.9,42.3,386.8z"/>
		</g>
		<g class="st31">
			<path class="st52" d="M139.9,355.4c1.7-1.3,3.5-2.3,5.4-3.5c3.4-0.6,6.7,0.5,10,0.9c0,0,0.1,0,0.1,0.1c-1.7,0.1-3.5-0.3-5.2-0.1
				c-0.5,0-1.1,0.1-1.6,0.2c-0.9,0.1-1.7,0.2-2.6,0.4c-1,0.3-2,0.7-2.9,1.2c-1.7,0.8-3.4,1.6-5,2.4
				C138.6,356.4,139.2,355.9,139.9,355.4z"/>
			<path class="st52" d="M122.9,346.6c-1.6-0.3-3-0.9-4.4-1.7c-1.4-1-2.6-2-3.9-3.1c2.9,1.4,5.3,3.1,8.8,3.5c1.9,0.2,3.7,0,5.6-0.1
				c1.1-0.1,3.2,0.2,4.5-0.2c-0.3,0.2-0.7,0.4-1,0.6c-0.4,0.1-0.9,0.2-1.3,0.3c-0.5,0.1-0.9,0.2-1.4,0.3c-1.5,0.2-3.1,0.2-4.4,0.3
				C124.5,346.6,123.7,346.6,122.9,346.6z"/>
			<path class="st52" d="M102.5,375.5c-2.7,1.5-5.4,3.1-8,4.6c-1.1,0.7-2.2,1.4-3.3,2.1c0,0-0.1,0.1-0.1,0.1c2-1.7,4.1-3,6.4-4.4
				c1.8-1.1,4.5-2.2,5.7-4c0.8-1.3,0.7-4.3,0.8-5.9c0.1-1.8,0.5-3.7,0.7-5.5c0.1-1.4,0.2-2.4,1.1-3.4c0.1-0.1,0.1-0.1,0.2-0.2
				c0.7-0.3,1.3-0.5,2-0.8c1.8-0.7,3.8-1.1,5.6-1.7c-0.4,0.2-0.7,0.4-1,0.6c-1.6,1-3.2,1.9-4.7,3c-1.4,0.9-1.2,5-1.4,6.6
				c-0.2,1.6-0.4,3.1-0.9,4.6C104.7,373.2,103.8,374.4,102.5,375.5z"/>
			<path class="st52" d="M94.1,354.7c-0.5-0.2-1.3-0.5-1.8-0.5c-2.1,0.3-3.2,2.4-4.7,3.5c-1.4,0.6-3,1-4.5,1.2
				c-1.4,0.1-2.9,0.1-4.1,0.1c-1.4,0.1-2.8,0.2-4.3,0.2c5.2-0.7,11.1-0.4,14.8-4.6c0.6-0.7,1.3-1.9,2.4-1.6c0.9,0.3,1.7,0.6,2.5,0.9
				c0.9,0.3,2.1,1.2,3.1,1.4C96.3,355.4,95.2,355.1,94.1,354.7z"/>
			<path class="st52" d="M66.8,386.8c0.8-0.3,1.5-0.6,2.3-0.9c0.2,0.1,0.4,0.2,0.5,0.3c0.2,0.2,0.5,0.3,0.7,0.5
				c-0.1,0.1-0.3,0.1-0.4,0.2c-0.2,0.1,0.1,0.3,0.2,0.2c0.2-0.1,0.4-0.1,0.6-0.2c0.7,0.4,1.3,0.9,2,1.3c0.1,0.1,0.3,0,0.1-0.1
				c-0.6-0.5-1.1-0.9-1.7-1.3c0.8-0.3,1.6-0.5,2.5-0.7c0.6,0.3,1.1,0.6,1.7,0.9c0.2,0.1,0.3-0.2,0.1-0.3c-0.5-0.2-0.9-0.5-1.4-0.7
				c0.8-0.2,1.6-0.5,2.3-0.7c1,0.6,2,1.3,2.9,2c0,0,0.1,0,0.1,0.1c-0.2-0.3-0.4-0.7-0.5-1c-0.5-0.5-1-0.9-1.7-1.4
				c0.8-0.3,1.5-0.5,2.2-0.8c0.1,0,0-0.1-0.1-0.1c-0.8,0.3-1.6,0.5-2.4,0.8c-0.6-0.4-1.3-0.8-2-1.1c1.1-0.4,2.3-0.9,3.4-1.3
				c0.1,0,0-0.1-0.1-0.1c-1.3,0.4-2.5,0.8-3.7,1.2c-1.8-0.8-3.7-1.3-5.3-1.4c-0.1,0,0,0.1,0,0.1c1.6,0.4,3,0.9,4.4,1.6
				c-0.8,0.3-1.6,0.6-2.4,0.9c-0.9-0.4-2-0.9-2.4-1.5c0,0-0.1,0,0,0c0.5,0.7,1.3,1.2,2.1,1.6c-0.7,0.2-1.3,0.5-2,0.8
				c-0.8-0.4-1.5-0.7-2.3-1.2c-0.1-0.1-0.2,0-0.1,0.1c0.7,0.4,1.4,0.8,2.1,1.2c-0.7,0.3-1.4,0.6-2.1,0.9
				C66.4,386.6,66.6,386.8,66.8,386.8z M72.2,385c-0.1-0.1-0.3-0.1-0.4-0.2c0.8-0.3,1.5-0.6,2.3-0.9c0.6,0.3,1.3,0.7,1.9,1
				c-0.8,0.2-1.6,0.5-2.5,0.7C73.1,385.5,72.7,385.2,72.2,385z M69.4,385.8c0.7-0.3,1.4-0.5,2.1-0.8c0.5,0.3,1.1,0.6,1.6,0.9
				c-0.8,0.2-1.6,0.5-2.4,0.8C70.3,386.3,69.9,386,69.4,385.8C69.4,385.8,69.4,385.8,69.4,385.8z"/>
			<path class="st52" d="M94.2,397.6c0.4,0,0.8-0.1,1.2-0.1c-0.2,0.3-0.3,0.6-0.5,0.9c0,0.1,0.1,0.2,0.2,0.1c0.2-0.3,0.4-0.6,0.6-1
				c1.2-0.1,2.5-0.2,3.7-0.2c-0.4,0.8-0.9,1.7-1.3,2.5c-0.8,0-1.7,0-2.5,0c-0.2,0-0.1,0.2,0.1,0.2c0.8,0.1,1.5,0.1,2.3,0.1
				c-0.2,0.4-0.4,0.8-0.5,1.2c0,0.1,0.2,0.2,0.2,0.1c0.2-0.5,0.4-0.9,0.6-1.3c0.7,0,1.4,0,2,0c-0.3,0.7-0.6,1.3-0.9,2
				c-0.1,0.1,0.2,0.2,0.2,0.1c0.3-0.7,0.7-1.4,1-2.1c0,0,0,0,0.1,0c1.1,0,2.4,0.2,3.5,0c0,0,0,0,0,0c-1.1,0.2-2.3,0-3.4-0.1
				c0.2-0.4,0.4-0.8,0.6-1.2c0.3-0.5,0.6-1,0.8-1.5c0.8,0,1.5,0,2.3,0.1c0.1,0,0-0.1,0-0.1c-0.7-0.1-1.4-0.2-2.1-0.3
				c0.3-0.5,0.6-1.1,0.9-1.6c0,0,0,0,0,0c-0.3,0.6-0.7,1.1-1,1.6c-0.8-0.1-1.6-0.1-2.4-0.1c0.2-0.5,0.4-1,0.6-1.4c0,0,0,0,0,0
				c-0.2,0.5-0.4,1-0.7,1.5c-1.2,0-2.5,0.1-3.7,0.2c0.2-0.4,0.5-0.9,0.6-1.3c0,0,0-0.1-0.1,0c-0.2,0.5-0.5,0.9-0.8,1.4
				c-0.5,0.1-1,0.1-1.5,0.2C93.9,397.4,94.1,397.6,94.2,397.6z M99.6,397.3c0.8,0,1.6,0,2.4,0c-0.3,0.4-0.6,0.9-0.9,1.4
				c-0.2,0.4-0.4,0.8-0.6,1.3c-0.3,0-0.6-0.1-1-0.1c-0.4,0-0.7,0-1.1,0C98.8,399,99.2,398.2,99.6,397.3z"/>
			<path class="st52" d="M49.9,383.1c0.9-0.3,1.8-0.7,2.7-1c0.8-0.2,1.6-0.4,2.3-0.7c0.3-0.1,0.7-0.1,1-0.2c-1.1,0.8-2.7,1.3-4,1.8
				c-2.2,1-4.4,2-6.8,2.5c-0.1,0-0.3,0-0.5-0.1C46.3,384.5,48.1,383.7,49.9,383.1z"/>
			<path class="st52" d="M82.5,402.7c-1-0.4-1.8-1-2.7-1.5c-1.3-0.8-2.6-1.8-3.8-2.8c1.8,0.8,3.6,1.4,5.3,2.4
				c1.1,0.7,2.1,1.4,3.1,2.2C83.7,402.8,83.1,402.8,82.5,402.7z"/>
		</g>
		<path class="st43" d="M152,354.7c2.5,0.1,5.1-0.3,7.5-1.1c2.6-0.9,5-1.9,7.7-2.4c2.4-0.5,4.9-0.9,7.3-1.4c0,0,0,0,0,0
			c2.7-0.3,5.5-0.2,8.1,0.7c2.5,0.9,6.3,2.3,7.4,4.9c0.9,2,0.8,5.7,0.3,7.8c0,0.1-0.3,0-0.3-0.1c-0.6-1.7-0.9-3.4-1.6-5
			c-0.8-1.9-5-3.3-6.9-3.7c-3.8-0.7-7-2.4-11-1.8c-3.9,0.6-7.5,2.2-11.2,3.3c-0.8,0.2-1.6,0.3-2.4,0.3
			C155.2,355.7,153.6,355.3,152,354.7z"/>
		<path class="st43" d="M142.4,349.3c-2.7,0.1-5.4,0.8-8,1.4c-4.8,1.1-9.7,1.5-14.6,2.2c-1.9-2.1-3.8-4.2-5.7-6.4
			c2.7,0.6,5.4,1.3,8.2,1.3c1.2,0,2.3-0.1,3.5-0.2c0.9-0.1,1.8-0.2,2.8-0.4c0.6-0.1,1.3-0.2,1.9-0.3c2.6-0.3,5.2-0.5,7.7-0.7
			c0.8,0.3,1.7,0.4,2.3,0.6c1.8,0.6,3.6,1.4,5.3,2.4C144.7,349.3,143.5,349.3,142.4,349.3z"/>
		<path class="st43" d="M106.3,339.8c-2.1,0.7-4.1,1-6.3,1.2c-0.3,0-0.7,0-1,0c-1.6,0-3.2,0.1-4.9,0.3c-0.4,0-1.3,0.2-2.2,0.3
			c0-0.1,0-0.1,0.1-0.2c0.6-0.6,1.4-1,2.1-1.4c0.8-0.4,1.7-0.9,2.5-1.4c3-0.8,6-1.6,9.1-2.2c4.4-0.9,8.8-0.7,13.3-0.9
			c0.6,0.6,1.2,1.2,1.7,1.9c0.3,0.4,0.6,0.8,1,1.2c0.5,0.6,0.9,1.2,1.4,1.9c-1.8-1.3-4.4-2.1-6.4-2.8c-1-0.4-3.7,0.5-4.8,0.8
			C109.9,338.7,108.1,339.2,106.3,339.8z"/>
		<path class="st43" d="M68.2,365.6c0.8-0.5,1.6-1,2.4-1.5c0.9-0.4,1.8-0.8,2.7-1.2c3.1-1.6,6.9-1.6,10.3-2c2.2-0.3,3.5-0.1,5.3-1.6
			c0.7-0.6,1.4-1.3,2.2-1.9c1.9-0.1,3.8-0.2,5.7-0.1c1.7,0.1,3.5,0.4,5.2,0.4c-2,0.6-4,1-5.9,1.5c-1.2,0.3-3,0.6-3.6,1.9
			c-0.7,1.6-0.8,3.5-1.1,5.2c-0.1,0.8,0.1,2.1,0,3.2c0,0,0,0,0,0c-3.5-1.4-6.9-2.9-10.4-4c0,0,0,0,0,0c-1.5-1-2.4-1.4-4.1-1
			c-3.6,1-7.2,1.5-10.8,2.5C66.7,366.4,67.4,366,68.2,365.6z"/>
		<path class="st43" d="M113.4,383.2c-3,0.4-6,0.5-8.9,1c-5,0.8-10.1,1-15.2,1.8c1.4-0.6,2.8-1.1,4.2-1.6c2.2-0.8,4.3-1.8,6.6-2.5
			c0.2-0.1,0.4-0.1,0.6-0.2c2.8,0,5.5,0.1,8.3,0.3c1.7,0.1,3.4,0.4,5.1,0.7c0.3,0.1,0.7,0.1,1.1,0.2
			C114.6,383,114,383.1,113.4,383.2z"/>
		<path class="st43" d="M131.5,404.6c3.8-0.8,7.6-1.4,11.5-1.3c1.2,0.4,2.3,0.9,3.3,1.4c0.9,1,1.8,2.1,2.5,3.3c0.3,1,0.5,2,0.8,3.1
			c-1.5-1.2-3-2.4-4.5-3.5c-2.3-1.5-5.4-1.1-8-1c-2.5,0-4.9,0-7.3,0.1c-2.3,0.1-4.7,0.6-7,0.4C125.7,406.5,128.5,405.2,131.5,404.6z
			"/>
		<path class="st43" d="M55.4,383.6c2.8-1,5.7-1.8,8.6-2.2c1.6-0.2,3.4-0.3,5-0.7c0.2,0.1,0.4,0.1,0.6,0.2c1.4,0.6,2.7,1.4,4,2.2
			c1.7,1,3.3,2.3,5.1,3c2.2,0.9,4.5,1.2,6.8,1.5c-1.1,0.2-2.1,0.3-3.2,0.6c-1.3,0.3-1.7,0.8-2.9,0.5c-3.5-1-5.9-4.1-9.9-3.6
			c-1.8,0.2-3.6,0.6-5.3,0.8c-1.5,0.2-3.1,0.9-4.6,0.8c-1.5-0.1-2.8-0.7-4.3-0.8c-1.9-0.1-3.7,0.2-5.6,0.2c-0.1,0-0.3-0.1-0.4-0.2
			C51.3,385.1,53.3,384.3,55.4,383.6z"/>
		<path class="st63" d="M44.8,377.9c2-3.5,3.9-6.8,6.8-9.6c3.5-3.3,7.8-5.5,11.9-7.9c3.8-2.3,7.2-5.2,10.5-8.1
			c3.2-2.9,5.5-7.1,7.5-10.9c0,0,0.1,0,0.1,0c-1.4,3.3-3,6.6-5.1,9.4c-1.3,1.7-3.3,3.1-4.9,4.5c-1.6,1.4-3.4,2.6-5.2,3.8
			c-4.2,3-8.9,5.1-13,8.3c-3.7,2.9-5.8,6.8-8.4,10.6C45,378.1,44.8,378,44.8,377.9z"/>
	</g>
	<path class="st62" d="M42.7,384.9c0,0-4.6,2.3-2.5,3.4c2.1,1,42.3,14.3,42.3,14.3s1.8,1.4,4.5,0.4c2.7-1.1,28.8-17.7,28.8-17.7
		s3.4-1.5,2.7-2.7c-0.6-1.3-14.7-2.8-14.7-2.8L42.7,384.9z"/>
	<g>
		<g>
			<path class="st46" d="M83.3,369.7l-46.4,1.9l4.2,12.4c0,0,0.4,2.3,2.8,3.1c2.4,0.8,39.2,14.2,39.2,14.2s0.9,0.3,2.1,0.1
				c0-0.1,0-0.1,0-0.1L83.3,369.7z"/>
			<path class="st48" d="M83.3,369.7l1.8,31.6c0,0,0,0,0,0.1c0.7-0.1,1.6-0.3,2.4-0.9c2.2-1.5,25.6-15.7,25.6-15.7s1.3-0.7,2-2.3
				c0.7-1.6,5.8-13.1,5.8-13.1l0.4-1.2L83.3,369.7z"/>
		</g>
		<g>
			<path class="st48" d="M121.3,368.1l-84.4,3.4l0.9,2.6l45.1,16.3c0,0,1.4,1,3.1,0.1c1.4-0.8,27.5-15.3,33.9-18.8
				c0.6-1.4,1-2.4,1-2.4L121.3,368.1z"/>
		</g>
		<path class="st47" d="M74.8,349.7c0,0-1.8-0.5-3.9,0.5c-2.1,0.9-36.2,16.6-36.2,16.6s-4.3,2-2.4,3.7c1.9,1.7,50.9,18.2,50.9,18.2
			s1.5,0.7,3.2-0.3c1.7-1,35.5-19.5,35.5-19.5s2.1-1.6,0.1-3.1L74.8,349.7z"/>
		<path class="st48" d="M72.1,362.3l-24.5,12c14.1,4.9,34.8,11.9,34.8,11.9s2.5,1,4.9-0.2c1.5-0.7,14.1-7.5,23.1-12.3
			c-8-2.9-33.1-11.8-34.8-12.2C73.4,361.1,72.1,362.3,72.1,362.3z"/>
		<g>
			<path class="st50" d="M72.3,350.8c-1.4,0.5-35.8,16.7-35.8,16.7s-2.9,1.3-1.8,2.2c0.4,0.3,5.8,2.2,12.8,4.7l24.5-12
				c0,0,0.8-0.7,2-0.8l-0.7-10.9C73,350.6,72.7,350.6,72.3,350.8z"/>
			<path class="st51" d="M121,366.9l-46.2-16.2c0,0-0.6-0.2-1.4-0.1l0.7,10.9c0.4,0,0.9,0,1.4,0.1c1.8,0.4,26.8,9.3,34.8,12.2
				c5.2-2.8,9.3-5,9.3-5S121.8,367.8,121,366.9z"/>
		</g>
		<g>
			<g>
				<path class="st64" d="M103.5,374.1c-2.3-0.7-5.2,1.7-6.8,2.3c-1.6,0.6-2.3-0.4-2.1-1.2c0.2-0.8,0-1.9-2.2-2
					c-2.2-0.2-2.8,1.1-2.9,1.7c-0.1,0.6,0.2,1.8-1.2,2.1c-1.5,0.3-1.2-2.3-3.1-1.7c-1.9,0.6-0.5,3-1,3.9c-0.5,0.9-2.9,0.6-4.2-0.2
					c-1.2-0.8,0.2-1.4,0.8-2.4c0.5-1,0.2-1.4-1.2-1.3c-1.5,0.1-0.3-1.2,0-1.9c0.3-0.8,0.2-1.9-2.3-1.6c-2.5,0.2-2.4,2.4-4.1,3.6
					c-1.7,1.2-7.3-0.5-10,0.2c-2.7,0.6-1.2,2.6,0.3,3.3c0.7,0.4,0.8,0.9,0.8,1.3c9.7,3.3,18,6.2,18,6.2s2.5,1,4.9-0.2
					c1.2-0.6,9.7-5.1,17.6-9.4C105,375.7,104.8,374.5,103.5,374.1z"/>
			</g>
			<path class="st64" d="M58.8,373.1c-0.4-0.1-0.8-0.1-1.1-0.1c-0.7,0-1.4,0.3-1.8,0.9c-0.4,0.8,0.6,1.2,1.3,1.3
				c1,0.2,1.9-0.3,2.2-1.2C59.6,373.7,59.3,373.3,58.8,373.1z"/>
			<path class="st64" d="M70.7,367.7c-0.2-0.3-0.6-0.4-1-0.5c0,0,0,0,0,0h0c-0.1,0-0.3,0-0.4,0c0,0-0.1,0-0.1,0c-0.1,0-0.2,0-0.3,0
				c-0.2,0-0.4,0-0.6,0.1c-0.3,0.2-0.9,0.4-1.1,0.8c-0.5,1.2,1.1,1.2,1.9,1.1C69.8,369.2,71.2,368.6,70.7,367.7z"/>
			<path class="st64" d="M83.2,370.3c-1.2,0.4-2.4,0.4-3.4-0.3c-0.8-0.5-0.7-1.3,0-1.8c0.9-0.6,1.9-0.4,2.8,0
				C83.7,368.6,84.7,369.8,83.2,370.3z"/>
			<path class="st64" d="M72.3,370.4c-0.1,0.1-0.3,0-0.4,0c-0.1,0-0.2-0.1-0.2-0.2c0,0,0.1,0,0.1,0c0,0,0.1,0,0.1-0.1
				c0.1-0.1,0.2-0.1,0.3-0.1c0.1,0,0.3,0.1,0.3,0.2C72.5,370.3,72.4,370.4,72.3,370.4z"/>
			<path class="st65" d="M69.8,367.7c-0.1-0.3-0.8-0.4-1.1-0.4c-0.1,0-0.1,0-0.2,0c0,0-0.1,0-0.1,0c-0.2,0-0.3,0.1-0.5,0.2
				c-0.2,0.1-0.6,0.5-0.6,0.8c0.1,0.4,0.6,0.5,0.9,0.5c0.4,0,0.9-0.1,1.2-0.4C69.8,368.3,69.9,368,69.8,367.7z"/>
			<path class="st65" d="M58.7,373.7c-0.1-0.4-0.7-0.5-1.1-0.5c-0.1,0-0.1,0-0.2,0.1c-0.2,0-0.3,0.1-0.4,0.1
				c-0.2,0.1-0.3,0.2-0.4,0.3c-0.2,0.2-0.3,0.4-0.2,0.6c0.1,0.8,1.6,0.5,2,0.2C58.5,374.4,58.8,374.1,58.7,373.7z"/>
			<g>
				<polygon class="st65" points="59,374.1 59,374.1 59,374.1 				"/>
				<path class="st65" d="M59.1,373.9c-0.1,0-0.2,0.2-0.1,0.2c0.1,0,0.1,0,0.2-0.1C59.2,373.9,59.2,373.8,59.1,373.9z"/>
			</g>
			<path class="st65" d="M70.2,367.8c0,0.1-0.1,0.1,0,0.2c0.1,0,0.2,0,0.2-0.1C70.5,367.7,70.3,367.7,70.2,367.8z"/>
			<path class="st65" d="M72.1,370.1c-0.1,0-0.2,0.2-0.1,0.2C72.2,370.3,72.3,370.1,72.1,370.1z"/>
			<path class="st65" d="M82.1,368.6c-0.2-0.3-0.9-0.5-1.4-0.4c-0.3,0-0.8,0.2-0.9,0.4c-0.5,0.6,0.9,0.9,1.2,0.9
				C81.4,369.6,82.5,369.3,82.1,368.6z"/>
			<path class="st65" d="M83.3,369.3c-0.1-0.1-0.2-0.1-0.2,0c-0.2,0.1-0.2,0.4,0,0.3c0,0,0.1,0,0.1,0
				C83.3,369.5,83.4,369.4,83.3,369.3z"/>
			<path class="st65" d="M79.2,375.7c-0.2,0-0.4,0-0.6,0.1c-1.4,0.2-0.3-1.3-0.2-1.5c0.3-0.6,0.3-1.5-0.3-1.9
				c-0.5-0.3-1.6-0.1-2,0.3c-0.3,0.3-0.5,0.6-0.7,1c-0.2,0.3-0.4,0.6-0.6,0.9c-0.5,0.5-1,1.1-1,1c-2.2,1.7-5.4,0.4-7.8,0.2
				c-0.7-0.1-2.3-0.3-3,0.3c-0.4,0.2-0.5,0.8-0.2,1.3c0.4,0.7,1.6,1.1,2.2,1.6c0.2,0.2,0.3,0.6,0.5,0.8c0.3,0.3,0.9,0.4,1.4,0.5
				c1.3,0.4,4,1.4,5.4,0.8c0.3-0.1,0.7-0.4,0.7-0.7c0-1.1-0.5-2,0.2-2.8c0.2-0.1,0.3-0.2,0.5-0.4c1.5-0.8,1.7,1.1,1.7,2.1
				c0,0.7,0.8,0.8,1.3,0.9c0.8,0.1,1.3-0.4,1.7-1.1c0.1-0.1,0.1-0.2,0.2-0.3c0.3-0.6,0.6-1.1,1-1.6c0.2-0.3,0.6-0.5,0.8-0.8
				C80.6,375.6,80,375.6,79.2,375.7z"/>
			<path class="st65" d="M103.2,375c0-0.1-0.1-0.1-0.1-0.2c-0.4-0.5-1.3-0.2-1.8-0.1c-0.7,0.2-1.4,0.7-2,1.1c-0.5,0.4-1.2,1-1.8,1.1
				c-0.5,0.1-1,0.2-1.5,0.2c-0.4,0-0.7-0.1-1-0.3c-1.4-0.7-0.7-2.4-1.8-3.2c-0.6-0.4-1.6-0.3-2.2,0c-1.2,0.6-0.9,2.3-1.7,3.2
				c-0.6,0.6-1.3,0.6-2,0.2c-0.6-0.3-0.9-1.1-1.6-1.3c-0.4-0.1-0.6,0.3-0.7,0.6c-0.1,0.2-0.1,0.4,0,0.6c0,0.2,0,0.3,0,0.4
				c0,0.3,0.1,0.8,0.2,1.1c0.1,0.9-0.9,1.2-1.6,1.3c-0.4,0.1-0.8,0.1-1.2,0c-0.4,0-1.1-0.2-1.5-0.1c-1.3,0.4,0.6,1.8,1,2
				c1.4,0.7-0.8,1.6-1,1.8c-0.3,0.2-0.3,0.4-0.4,0.7c-0.1,0.7,1.4,0.8,1.8,0.9c1.4,0.2,2.9,0.6,4.2-0.3c0.3-0.2,0.5-0.5,0.6-0.8
				c0.1-0.2,0.1-0.4,0.1-0.5c-0.1-1.7,2.1-1.8,3-1.8c2.2,0,4.4-0.6,6.4-1.6c0.8-0.4,1.6-0.9,2.4-1.4c0.8-0.4,1.7-0.7,2.5-1.2
				C102.2,377.2,103.9,376.2,103.2,375z"/>
			<path class="st65" d="M79.6,380.9c-0.6-0.4-1.6-0.6-2.4-0.3c-0.4,0.1-0.8,0.5-0.8,1c-0.1,1.2,1.8,1.5,2.6,1.4
				C79.9,382.8,80.5,381.5,79.6,380.9z"/>
			<path class="st65" d="M75.7,380.9c-0.1-0.2-0.4-0.1-0.5,0.1c-0.1,0.1-0.1,0.2,0,0.3c0.1,0.1,0.2,0.1,0.3,0
				C75.6,381.2,75.8,381,75.7,380.9z"/>
			<path class="st66" d="M57.8,373.4c-0.3-0.1-0.7,0-1,0.1c-0.2,0.1-0.4,0.3-0.4,0.6c0,0.1,0,0.2,0.1,0.3c0.1,0,0.1,0,0.1-0.1
				c0-0.3,0.3-0.5,0.5-0.6c0.1-0.1,0.3-0.2,0.4-0.2C57.6,373.5,57.7,373.5,57.8,373.4C57.8,373.4,57.8,373.4,57.8,373.4z"/>
			<path class="st66" d="M65,375.9c-0.1,0-0.2,0-0.2-0.1c0,0,0,0,0,0c0,0,0,0,0,0c0,0,0,0,0,0c-0.5-0.1-1-0.1-1.4,0.2
				c-0.2,0.1-0.4,0.3-0.4,0.6c0,0.3,0.2,0.5,0.3,0.8c0,0,0.1,0,0.1,0c0,0,0-0.1,0-0.1c0,0,0,0,0,0c0,0,0,0,0,0c0-0.1,0-0.1,0-0.2
				c0-0.3,0.1-0.5,0.4-0.6C64,376.1,64.5,375.9,65,375.9C65,375.9,65,375.9,65,375.9z"/>
			<path class="st66" d="M77.7,372.5c-0.4-0.2-0.8-0.1-1.2,0.1c0,0,0,0-0.1,0c0,0,0,0-0.1,0c-0.3,0.2-0.5,0.4-0.6,0.7
				c-0.7,1-1.2,2-2.3,2.7c0,0-0.1,0-0.1,0c0,0,0,0.1,0,0.1c0.5,0,1.2-0.5,1.5-0.8c0.6-0.6,0.8-1.3,1.3-2
				C76.6,372.9,77.1,372.6,77.7,372.5C77.7,372.6,77.8,372.5,77.7,372.5z"/>
			<path class="st66" d="M85.4,379.2c0-0.1-0.1,0-0.1,0c-0.1,0.5-0.4,0.7-0.8,0.9c-0.4,0.2-0.9,0.4-1.4,0.3c0,0,0,0,0,0c0,0,0,0,0,0
				c0,0,0,0,0,0c0.2,0.3,1.2,0.1,1.4,0c0.4-0.1,0.7-0.4,0.8-0.7C85.4,379.6,85.4,379.4,85.4,379.2z"/>
			<path class="st66" d="M92.8,373.8c-0.7-0.3-1.5-0.1-2,0.4c0,0-0.1,0.1-0.1,0.1c-0.5,0.5-0.6,1.1-0.7,1.7c0,0,0,0,0,0
				c0.2-0.5,0.4-1,0.8-1.4c0.1-0.1,0.1-0.1,0.2-0.2C91.5,374,92.1,373.9,92.8,373.8C92.8,373.8,92.8,373.8,92.8,373.8z"/>
			<path class="st66" d="M98.2,377c-0.4,0.2-0.8,0.2-1.2,0.3c-0.4,0.1-1,0.2-1.4,0.1c0,0,0,0,0,0c0.3,0.3,0.8,0.3,1.2,0.3
				C97.3,377.6,97.7,377.4,98.2,377C98.2,377,98.2,377,98.2,377z"/>
			<path class="st66" d="M68.9,367.5c-0.4,0-0.7,0-1,0.3c-0.1,0.1-0.2,0.2-0.3,0.3c0,0.2,0,0.3,0.1,0.4c0,0,0.1,0,0.1,0
				c0-0.4,0.4-0.6,0.7-0.8c0,0,0,0,0,0C68.6,367.6,68.7,367.6,68.9,367.5C68.9,367.6,68.9,367.5,68.9,367.5z"/>
			<path class="st66" d="M81.2,368.3c-0.3-0.1-0.6-0.1-0.9,0.1c-0.3,0.1-0.5,0.3-0.4,0.6c0,0,0,0,0.1,0
				C80,368.5,80.8,368.5,81.2,368.3C81.2,368.4,81.2,368.3,81.2,368.3z"/>
		</g>
		<path class="st48" d="M76.4,362c-0.5-0.1-0.9-0.2-1.3-0.2l-1.7-10.1v10.2c-0.8,0.2-1.3,0.5-1.3,0.5l-23.3,11.4
			c0,0,21.6-10.1,23.1-10.8c1.5-0.7,2.8-0.8,3.3-0.7c0.5,0.1,4.8,0.9,4.8,0.9L76.4,362z"/>
		<path class="st16" d="M75.2,350.8l44.1,15.5C119.3,366.4,80.8,352,75.2,350.8z"/>
		<path class="st16" d="M37.1,367.1l34-15.8C71.1,351.3,45.8,363.8,37.1,367.1z"/>
	</g>
</g>
</svg>
