<?xml version="1.0" encoding="utf-8"?>
<!-- Generator: Adobe Illustrator 19.2.1, SVG Export Plug-In . SVG Version: 6.00 Build 0)  -->
<svg version="1.1" id="Capa_1" xmlns="http://www.w3.org/2000/svg" xmlns:xlink="http://www.w3.org/1999/xlink" x="0px" y="0px"
	 viewBox="0 0 409.3 567.3" style="enable-background:new 0 0 409.3 567.3;" xml:space="preserve">
<style type="text/css">
	.st0{fill:#FFFFFF;}
	.st1{fill:#3B6A34;}
	.st2{fill:#9DBB4C;}
	.st3{fill:#C7D575;}
	.st4{fill:#5DA13E;}
	.st5{fill:#41863D;}
	.st6{fill:#5CAED9;}
	.st7{fill:#277EBF;}
	.st8{fill:#86B142;}
	.st9{fill:#A7C14B;}
	.st10{fill:#8BC1DE;}
	.st11{fill:#E9C07D;}
	.st12{fill:#DEA26B;}
	.st13{fill:#E8BB32;}
	.st14{fill:#D88D34;}
	.st15{fill:#CD6A37;}
</style>
<path id="XMLID_422_" class="st0" d="M449.4,266.7h-25.7c5.2,0,9.4-4.2,9.4-9.4l0,0c0-5.2-4.2-9.4-9.4-9.4H303.3
	c-5.2,0-9.4,4.2-9.4,9.4l0,0c0,5.2,4.2,9.4,9.4,9.4h13.5c-5.2,0-9.4,4.2-9.4,9.4c0,5.2,4.2,9.4,9.4,9.4h-44.4
	c-5.2,0-9.4,4.2-9.4,9.4c0,5.2,4.2,9.4,9.4,9.4H318c-4.9,0.3-8.8,4.3-8.8,9.3l0,0c0,5.2,4.2,9.4,9.4,9.4h-44.1
	c-5.2,0-9.4,4.2-9.4,9.4c0,5.2,4.2,9.4,9.4,9.4H366c5.2,0,9.4-4.2,9.4-9.4c0-5.2-4.2-9.4-9.4-9.4h57.1c5.2,0,9.4-4.2,9.4-9.4l0,0
	c0-5.2-4.2-9.4-9.4-9.4h-30.9c-4.9-0.3-8.8-4.3-8.8-9.3c0-5.2,4.2-9.4,9.4-9.4h56.6c5.2,0,9.4-4.2,9.4-9.4
	C458.7,270.9,454.6,266.7,449.4,266.7z"/>
<polygon id="XMLID_420_" class="st1" points="118.5,33.3 62.7,161.9 174.4,161.9 "/>
<polygon id="XMLID_418_" class="st1" points="224.9,33.3 169,161.9 280.7,161.9 "/>
<g id="XMLID_341_">
	<g id="XMLID_400_">
		<path id="XMLID_416_" class="st2" d="M210.2,359.9c109.4,0,198-88.6,198-198h-396C12.2,271.2,100.8,359.9,210.2,359.9z"/>
		<path id="XMLID_414_" class="st3" d="M215.3,291.3c71.5,0,129.4-57.9,129.4-129.4H85.9C85.9,233.3,143.9,291.3,215.3,291.3z"/>
		<path id="XMLID_412_" class="st4" d="M210.2,359.9c109.4,0,198-88.6,198-198h-198V359.9z"/>
		<path id="XMLID_410_" class="st2" d="M339.6,161.9H210.2v129.4C281.6,291.3,339.6,233.3,339.6,161.9z"/>
		<g id="XMLID_403_">
			<path id="XMLID_408_" class="st4" d="M405.6,194c1.7-10.5,2.6-21.2,2.6-32.1h-396c0,10.9,0.9,21.7,2.6,32.1H405.6z"/>
			<path id="XMLID_406_" class="st5" d="M405.6,194c0.2-1.3,0.4-2.6,0.6-3.9c0-0.1,0-0.1,0-0.2c0.5-3.6,0.9-7.3,1.2-11
				c0-0.3,0.1-0.7,0.1-1c0.1-0.9,0.1-1.7,0.2-2.6c0-0.7,0.1-1.4,0.1-2.2c0-0.7,0.1-1.4,0.1-2.2c0-0.9,0.1-1.9,0.1-2.8
				c0-0.6,0-1.1,0.1-1.7c0-1.5,0.1-3.1,0.1-4.6h-198V194H405.6z"/>
			<path id="XMLID_404_" class="st4" d="M210.2,161.9V194h125.5c2.6-10.3,4-21,4-32.1H210.2z"/>
		</g>
		<path id="XMLID_401_" class="st2" d="M210.2,161.9H85.9c0,11.1,1.4,21.8,4,32.1h120.2V161.9z"/>
	</g>
	<path id="XMLID_398_" class="st6" d="M209.6,141.9v20h27.5c8,0,14.5,6.5,14.5,14.5v106h94.5V164.6c0-12.6-10.2-22.8-22.8-22.8
		H209.6z"/>
	<path id="XMLID_396_" class="st7" d="M251.1,141.9h-41.5v20h27.5c8,0,14.5,6.5,14.5,14.5v106h22.2V164.6
		C273.9,152.1,263.7,141.9,251.1,141.9z"/>
	<path id="XMLID_395_" class="st0" d="M345,269c-3.8,0-7.4,1.9-9.5,4.9c-1.6-1.3-3.6-2.1-5.6-2.1c-2.1,0-4.2,0.8-5.8,2.1
		c-2.2-3.1-5.7-5-9.6-5c-3.8,0-7.4,1.9-9.5,4.9c-1.6-1.3-3.6-2.1-5.6-2.1c-2.1,0-4.2,0.8-5.8,2.1c-2.2-3.1-5.7-5-9.6-5
		c-3.8,0-7.4,1.9-9.5,4.9c-1.6-1.3-3.6-2.1-5.6-2.1c-2.1,0-4.2,0.8-5.8,2.1c-2.2-3.1-5.7-5-9.6-5c-6.5,0-11.7,5.3-11.7,11.7
		c0,6.5,5.3,11.7,11.7,11.7c3.9,0,7.5-1.9,9.6-5c1.6,1.4,3.6,2.1,5.8,2.1c2.1,0,4.1-0.7,5.6-2.1c2.2,3.1,5.7,4.9,9.5,4.9
		c3.9,0,7.5-1.9,9.6-5c1.6,1.4,3.6,2.1,5.8,2.1c2.1,0,4.1-0.7,5.6-2.1c2.2,3.1,5.7,4.9,9.5,4.9c3.9,0,7.5-1.9,9.6-5
		c1.6,1.4,3.6,2.1,5.8,2.1c2.1,0,4.1-0.7,5.6-2.1c2.2,3.1,5.7,4.9,9.5,4.9c6.5,0,11.7-5.3,11.7-11.7C356.7,274.2,351.5,269,345,269z
		"/>
	<polygon id="XMLID_393_" class="st5" points="65.3,39.4 12.1,161.9 118.5,161.9 	"/>
	<polygon id="XMLID_391_" class="st4" points="171.7,39.4 118.5,161.9 224.9,161.9 	"/>
	<polygon id="XMLID_389_" class="st8" points="102.9,126 100.8,121.1 67.8,154.3 67.8,127.6 92.8,102.6 90.6,97.7 67.8,120.5 
		67.8,93.8 82.5,79.1 80.4,74.2 67.8,86.7 67.8,45.2 65.3,39.4 62.8,45.2 62.8,86.7 50.2,74.2 48.1,79.1 62.8,93.8 62.8,120.5 
		40,97.7 37.9,102.6 62.8,127.6 62.8,154.3 29.8,121.2 27.6,126.2 62.8,161.4 62.8,161.9 63.3,161.9 67.3,161.9 67.8,161.9 
		67.8,161.4 	"/>
	<polygon id="XMLID_387_" class="st9" points="209.3,126 207.2,121.1 174.2,154.3 174.2,127.6 199.2,102.6 197,97.7 174.2,120.5 
		174.2,93.8 188.9,79.1 186.8,74.2 174.2,86.7 174.2,45.2 171.7,39.4 169.2,45.2 169.2,86.7 156.6,74.2 154.5,79.1 169.2,93.8 
		169.2,120.5 146.4,97.7 144.2,102.6 169.2,127.6 169.2,154.3 136.2,121.2 134,126.2 169.2,161.4 169.2,161.9 169.7,161.9 
		173.7,161.9 174.2,161.9 174.2,161.4 	"/>
	<g id="XMLID_384_">
		<path id="XMLID_386_" class="st10" d="M342.9,171.1L342.9,171.1c-1.8,0-3.2,1.5-3.2,3.2v14.2c0,1.8,1.5,3.2,3.2,3.2l0,0
			c1.8,0,3.2-1.5,3.2-3.2v-14.2C346.1,172.6,344.7,171.1,342.9,171.1z"/>
		<circle id="XMLID_385_" class="st10" cx="342.8" cy="197.4" r="3.2"/>
	</g>
	<g id="XMLID_378_">
		<g>
			<path id="XMLID_31_" class="st10" d="M295.9,227.4L295.9,227.4c-1.8,0-3.2,1.5-3.2,3.2v14.2c0,1.8,1.5,3.2,3.2,3.2l0,0
				c1.8,0,3.2-1.5,3.2-3.2v-14.2C299.2,228.9,297.7,227.4,295.9,227.4z"/>
			<circle id="XMLID_30_" class="st10" cx="295.9" cy="253.7" r="3.2"/>
		</g>
	</g>
	<g id="XMLID_369_">
		<g id="XMLID_374_">
			<g>
				<path id="XMLID_17_" class="st10" d="M277.1,167.7L277.1,167.7c-1.8,0-3.2,1.5-3.2,3.2v17.7c0,1.8,1.5,3.2,3.2,3.2l0,0
					c1.8,0,3.2-1.5,3.2-3.2v-17.7C280.4,169.1,278.9,167.7,277.1,167.7z"/>
			</g>
		</g>
		<g id="XMLID_370_">
			<g>
				<path id="XMLID_14_" class="st10" d="M277.1,194.6L277.1,194.6c-1.8,0-3.2,1.5-3.2,3.2v5.5c0,1.8,1.5,3.2,3.2,3.2l0,0
					c1.8,0,3.2-1.5,3.2-3.2v-5.5C280.4,196,278.9,194.6,277.1,194.6z"/>
			</g>
		</g>
	</g>
	<g id="XMLID_355_">
		<g>
			<g id="XMLID_42_">
				<g>
					<path id="XMLID_43_" class="st6" d="M263.1,212.7L263.1,212.7c-1.8,0-3.2,1.5-3.2,3.2v17.7c0,1.8,1.5,3.2,3.2,3.2l0,0
						c1.8,0,3.2-1.5,3.2-3.2V216C266.4,214.2,264.9,212.7,263.1,212.7z"/>
				</g>
			</g>
			<g id="XMLID_40_">
				<g>
					<path id="XMLID_41_" class="st6" d="M263.1,239.6L263.1,239.6c-1.8,0-3.2,1.5-3.2,3.2v5.5c0,1.8,1.5,3.2,3.2,3.2l0,0
						c1.8,0,3.2-1.5,3.2-3.2v-5.5C266.4,241.1,264.9,239.6,263.1,239.6z"/>
				</g>
			</g>
		</g>
	</g>
	<g id="XMLID_342_">
		<g id="XMLID_351_">
			<g>
				<path id="XMLID_12_" class="st10" d="M317,236.2L317,236.2c-1.8,0-3.2-1.5-3.2-3.2v-17.7c0-1.8,1.5-3.2,3.2-3.2l0,0
					c1.8,0,3.2,1.5,3.2,3.2v17.7C320.2,234.7,318.8,236.2,317,236.2z"/>
			</g>
		</g>
		<g id="XMLID_347_">
			<g>
				<path id="XMLID_10_" class="st10" d="M317,183.1L317,183.1c-1.8,0-3.2-1.5-3.2-3.2v-17.7c0-1.8,1.5-3.2,3.2-3.2l0,0
					c1.8,0,3.2,1.5,3.2,3.2v17.7C320.2,181.7,318.8,183.1,317,183.1z"/>
			</g>
		</g>
		<g id="XMLID_343_">
			<g>
				<path id="XMLID_9_" class="st10" d="M317,209.3L317,209.3c-1.8,0-3.2-1.5-3.2-3.2v-5.5c0-1.8,1.5-3.2,3.2-3.2l0,0
					c1.8,0,3.2,1.5,3.2,3.2v5.5C320.2,207.8,318.8,209.3,317,209.3z"/>
			</g>
		</g>
	</g>
</g>
<g id="XMLID_338_">
	<path id="XMLID_340_" class="st0" d="M115.8,240.8H88c5.2,0,9.4-4.2,9.4-9.4c0-5.2-4.2-9.4-9.4-9.4H40c-5.2,0-9.4-4.2-9.4-9.4
		c0-5,3.9-9.1,8.8-9.3h18.9c5.2,0,9.4-4.2,9.4-9.4l0,0c0-5.2-4.2-9.4-9.4-9.4H-9c-5.2,0-9.4,4.2-9.4,9.4l0,0c0,5,3.9,9.1,8.8,9.3
		h-33.5c-5.2,0-9.4,4.2-9.4,9.4c0,5.2,4.2,9.4,9.4,9.4h18.8c-5.2,0-9.4,4.2-9.4,9.4c0,5.2,4.2,9.4,9.4,9.4h82.6
		c-5.2,0-9.4,4.2-9.4,9.4v0c0,5.2,4.2,9.4,9.4,9.4h57.4c5.2,0,9.4-4.2,9.4-9.4v0C125.1,245,120.9,240.8,115.8,240.8z"/>
	<circle id="XMLID_339_" class="st0" cx="88.7" cy="194" r="9.6"/>
</g>
<g id="XMLID_331_">
	<path id="XMLID_336_" class="st11" d="M322.5,363.2L264.9,392h-91.4c-5.2,0-9.8-4-9.9-9.2c-0.2-5.4,4.2-9.8,9.5-9.8h35
		c19.6,0,35.5-15.9,35.5-35.5H109c-35.6,0-64.5,28.9-64.5,64.5v165.9h90.6V452c0-8.7,7.1-15.8,15.8-15.8h114.9v0.3l110-57.5v0
		C365.5,359.9,341.6,352.8,322.5,363.2z"/>
	<path id="XMLID_334_" class="st12" d="M145.3,392h28.2c-5.2,0-9.8-4-9.9-9.2c-0.2-5.4,4.2-9.8,9.5-9.8h-28.2
		c-5.4,0-9.7,4.4-9.5,9.8C135.5,388,140.1,392,145.3,392z"/>
	<path id="XMLID_332_" class="st12" d="M135.1,567.8V452c0-8.7,7.1-15.8,15.8-15.8h-28.2c-8.7,0-15.8,7.1-15.8,15.8v115.8H135.1z"/>
</g>
<g id="XMLID_315_">
	<g id="XMLID_318_">
		<path id="XMLID_325_" class="st13" d="M345.3,64.6l8.6-8.6l-9.1-9.1l3.1-11.7l-12.4-3.3l-3.1-11.7L320,23.4l-8.6-8.6l-9.1,9.1
			l-11.7-3.1l-3.3,12.4l-11.7,3.1l3.3,12.4l-8.6,8.6l9.1,9.1l-3.1,11.7l12.4,3.3l3.1,11.7l12.4-3.3l8.6,8.6l9.1-9.1l11.7,3.1
			l3.3-12.4l11.7-3.1L345.3,64.6z"/>
		<circle id="XMLID_323_" class="st14" cx="312.1" cy="56.3" r="24.6"/>
	</g>
	<polygon id="XMLID_317_" class="st14" points="344.8,46.9 347.9,35.2 335.5,31.9 332.4,20.1 320,23.4 312.1,15.5 312.1,97.7 
		312.7,98.4 321.8,89.3 333.5,92.5 336.8,80.1 348.6,76.9 345.3,64.6 353.8,56 	"/>
	<path id="XMLID_316_" class="st15" d="M336.7,56.3c0-13.6-11-24.6-24.6-24.6v49.2C325.7,80.9,336.7,69.9,336.7,56.3z"/>
</g>
<circle id="XMLID_306_" class="st0" cx="20.9" cy="-23.5" r="8.8"/>
<circle id="XMLID_303_" class="st0" cx="-24.8" cy="63.1" r="8.8"/>
</svg>
