<?xml version="1.0" encoding="utf-8"?>
<!-- Generator: Adobe Illustrator 19.2.1, SVG Export Plug-In . SVG Version: 6.00 Build 0)  -->
<svg version="1.1" id="Capa_1" xmlns="http://www.w3.org/2000/svg" xmlns:xlink="http://www.w3.org/1999/xlink" x="0px" y="0px"
	 viewBox="0 0 536 576" style="enable-background:new 0 0 536 576;" xml:space="preserve">
<style type="text/css">
	.st0{fill:none;}
	.st1{fill:#53B3C3;}
	.st2{fill:#1FA2DC;}
	.st3{fill:#5D9E49;}
	.st4{fill:#70CCE1;}
	.st5{fill:#4AB8E9;}
	.st6{fill:#7DC25F;}
	.st7{fill:#F78F22;}
	.st8{fill:#F8A54E;}
	.st9{fill:#F3C83D;}
	.st10{fill:#F69229;}
	.st11{fill:#F8A34F;}
	.st12{fill:#FFD23F;}
	.st13{fill:#9DCEE3;}
	.st14{fill:#FFFFFF;}
</style>
<g id="Background">
</g>
<g id="Objects">
	<g>
		<g>
			<g>
				<g>
					<g>
						<path class="st0" d="M84.6,277.5L84.6,277.5L84.6,277.5z"/>
						<path class="st1" d="M437.6,366.9l-6.1,12.6L408,389.6l9.2,10.6v4.9H409l-3.7-7.4h-1.8l0.5,9.5l5.1,5.5v7.4L398.5,410
							l2.8-16.4l-17-14.4l-12.4,8.7L360.6,408l-5.1-22.6l-12-14.7l-18.4-3.3l-10.1-7.3l0.9,7.3l11.1,12l-22.6,14l-2.3-13l-9.7-13
							l2.3,19.4l9.7,10.8l13.4,7.4l-23.5,30.6v21.2l-9.7,18.9l-2.3,12.9l-21.2,9.7l-10.6-20.7l3.2-27.6l-8.7-18l0.5-19.8l-13.2-0.5
							l-14,2.3l-8.8-14.3l-9.5-10.6v-12.9l7.2-14.3l25-13.8h16.9l5.1,7.4l15.2-0.9l12.4,3.7l7.8-4.6l-0.9-8.8l-9.7-2.3l4.6-6
							l13.4-2.3l5.1-6l-5.1-2.8l-22.2,0.5v10.6l-11,8.3L262,332l-9.2-6l2.8,2.3l-1.4,10.6l-7.8-2.3L242,326v-11.5l9-4.6l13.8-5.4
							l10.1-5.4l-2.7-7.7l-14.3,3.6l-12.4,9.5l-5.5-5.4l14.7-12.3l20.2-6.9l55.8,4.1l72.2-16.5c0.7,1,1.4,2,2.1,3.1
							c0.3,0.4,0.6,0.8,0.8,1.3c0.5,0.7,1,1.5,1.5,2.2c0.3,0.4,0.6,0.8,0.8,1.3L247,2c0,0-97.3,153.5-162.4,275.5l0,0l0,0l7.9-0.6
							l-14,11.3c-2.2,4.1-4.2,8.3-6.1,12.6l20.1,11.7l5-17.8h24l8.3,17.8l-13.2,9.9l1.7,9.1l-5.8,7.4H104l-3.3,12.4l-6.6,5.8
							l0.8,15.7l-15.7-14.1l-20.7,14.1l11.6,14.9h9.1l12.4,11.6l-7.4,5.8l-11.6-11.6l-15.7-4.1l-0.5-0.4
							c2.5,43.8,19.7,83.6,46.8,114.6l0.8-6.6l6.6-28.1l-14.9-11.6l-8.3-14.1l7.4-21.5v-16.5l9.1-7.4l23.6,7.4l10.3,12.4l0.8,13.2
							l29,5l-10.8,36l-17.4,13.6v14.1l-24.3,16.7c34.3,32.7,80.7,52.7,131.7,52.7c89.2,0,164.1-61.2,185.1-143.9l-6.1,5.2l-4.1-12.4
							l8.3-5.1l2.2,11.3l0,0c3.7-14.8,5.6-30.2,5.6-46.1C437.9,374.2,437.8,370.5,437.6,366.9z M232.3,341l-16.5,4v-9.2l10.4-7.4
							h6.1V341z M215.7,310v-10.8h8.3v5.4l8.3,5.4H215.7z M146.2,295.1l-9.1-8.3l2.5-11.2l-9.9-8.7l-25.6-0.8l40.5-9.9l55.4,5
							l-10.8,15.7L146.2,295.1z M402.5,432.9l-10.6-18.4l15.2,9.7l6.9,14.3L402.5,432.9z"/>
						<path class="st1" d="M56.4,388.7c-0.1-1.7-0.2-3.4-0.2-5.1C56.2,385.3,56.3,387,56.4,388.7z"/>
						<path class="st1" d="M437.4,364.2c0,0.4,0.1,0.8,0.1,1.2C437.5,365.1,437.4,364.6,437.4,364.2z"/>
						<path class="st2" d="M433.5,337.1c0.6,2.9,1.2,5.9,1.7,8.9C434.7,343,434.2,340.1,433.5,337.1z"/>
						<path class="st3" d="M72.6,393.5l11.6,11.6l7.4-5.8l-12.4-11.6h-9.1l-11.6-14.9l20.7-14.1l15.7,14.1l-0.8-15.7l6.6-5.8
							l3.3-12.4h8.3l5.8-7.4l-1.7-9.1l13.2-9.9l-8.3-17.8h-24l-5,17.8l-20.1-11.7l0,0c-0.6,1.4-1.3,2.9-1.9,4.3
							c0,0.1-0.1,0.1-0.1,0.2c-0.6,1.4-1.1,2.8-1.7,4.2c0,0.1-0.1,0.2-0.1,0.3c-0.5,1.4-1,2.8-1.5,4.1c-0.1,0.2-0.1,0.3-0.2,0.5
							c-0.5,1.3-0.9,2.7-1.4,4c-0.1,0.2-0.1,0.4-0.2,0.6c-0.4,1.3-0.8,2.6-1.2,3.9c-0.1,0.3-0.2,0.5-0.2,0.8
							c-0.4,1.3-0.7,2.5-1.1,3.8c-0.1,0.3-0.2,0.6-0.3,0.9c-0.3,1.2-0.6,2.5-0.9,3.7c-0.1,0.4-0.2,0.7-0.3,1.1
							c-0.3,1.2-0.6,2.4-0.8,3.6c-0.1,0.4-0.2,0.8-0.3,1.2c-0.2,1.2-0.5,2.3-0.7,3.5c-0.1,0.4-0.2,0.9-0.3,1.3
							c-0.2,1.1-0.4,2.3-0.6,3.4c-0.1,0.5-0.2,1-0.2,1.5c-0.2,1.1-0.3,2.2-0.5,3.3c-0.1,0.5-0.2,1-0.2,1.6c-0.1,1.1-0.3,2.2-0.4,3.3
							c-0.1,0.6-0.1,1.1-0.2,1.7c-0.1,1.1-0.2,2.2-0.3,3.2c-0.1,0.6-0.1,1.2-0.2,1.7c-0.1,1.1-0.1,2.2-0.2,3.3
							c0,0.6-0.1,1.1-0.1,1.7c-0.1,1.2-0.1,2.3-0.1,3.5c0,0.5,0,1-0.1,1.5c0,1.7-0.1,3.4-0.1,5c0,1.8,0,3.7,0.1,5.5
							c0,0.1,0,0.1,0,0.2c0.1,1.7,0.1,3.4,0.2,5.1c0,0.1,0,0.2,0,0.2l0,0l0.5,0.4L72.6,393.5z"/>
						<path class="st3" d="M92.5,276.9l-7.9,0.6l0,0l0,0c-2.1,3.5-4.2,7-6.1,10.6l0,0L92.5,276.9z"/>
						<polygon class="st3" points="200,261.2 144.6,256.2 104,266.1 129.7,267 139.6,275.6 137.1,286.8 146.2,295.1 189.2,276.9 
													"/>
						<path class="st3" d="M139.6,485.3l17.4-13.6l10.8-36l-29-5l-0.8-13.2l-10.3-12.4l-23.6-7.4l-9.1,7.4v16.5l-7.4,21.5l8.3,14.1
							l14.9,11.6l-6.6,28.1l-0.8,6.6c0,0.1,0.1,0.1,0.1,0.2c0.9,1,1.8,2.1,2.7,3.1l0.1,0.1c0.9,1,1.9,2,2.8,3c0.3,0.3,0.6,0.6,1,1
							c0.7,0.7,1.4,1.4,2.1,2.1c1,1,2.1,2.1,3.2,3.1l0,0l24.3-16.7L139.6,485.3L139.6,485.3z"/>
						<polygon class="st3" points="224,299.2 215.7,299.2 215.7,310 232.3,310 224,304.6 						"/>
						<polygon class="st3" points="215.7,335.7 215.7,344.9 232.3,341 232.3,328.4 226.1,328.4 						"/>
						<path class="st3" d="M405.8,272c-0.3-0.4-0.6-0.8-0.8-1.3c-0.7-1-1.4-2.1-2.1-3.1l-72.2,16.5l-55.8-4.1l-20.2,6.9L240,299.2
							l5.5,5.4l12.4-9.5l14.3-3.6l2.7,7.7l-10.1,5.4L251,310l-9,4.6v11.5l4.4,10.6l7.8,2.3l1.4-10.6l-2.8-2.3l9.2,6l1.8,12.9l11-8.3
							v-10.6l22.2-0.5l5.1,2.8l-5.1,6l-13.4,2.3l-4.6,6l9.7,2.3l0.9,8.8l-7.8,4.6l-12.4-3.7l-15.2,0.9l-5.1-7.4h-16.9l-25,13.8
							l-7.2,14.3v12.9l9.5,10.6l8.8,14.3l14-2.3l13.2,0.5L245,432l8.7,18l-3.2,27.6l10.6,20.7l21.2-9.7l2.3-12.9l9.7-18.9v-21.2
							l23.5-30.6l-13.4-7.4l-9.7-10.8l-2.3-19.4l9.7,13l2.3,13l22.6-14l-11.1-12l-0.9-7.3l10.1,7.3l18.4,3.3l12,14.7l5.1,22.6
							l11.1-20.3l12.4-8.7l17,14.4l-2.8,16.4L409,420v-7.4l-5.1-5.5l-0.5-9.5h1.8l3.7,7.4h8.3v-4.9l-9.2-10.6l23.5-10.1l6.1-12.6
							l0,0c0-0.5-0.1-0.9-0.1-1.4c0-0.4-0.1-0.8-0.1-1.2c-0.1-1.3-0.2-2.6-0.3-3.9c0-0.2,0-0.3,0-0.5c-0.1-1-0.2-2-0.3-3.1
							c0-0.2-0.1-0.4-0.1-0.7c-0.4-3.1-0.8-6.2-1.3-9.2c0-0.3-0.1-0.6-0.1-0.9c-0.5-3-1.1-6-1.7-8.9c-0.1-0.3-0.1-0.6-0.2-0.9
							c-0.2-0.9-0.4-1.8-0.6-2.7c-0.1-0.3-0.2-0.6-0.2-1c-0.4-1.7-0.9-3.4-1.3-5.1c-0.1-0.3-0.1-0.5-0.2-0.8
							c-0.2-0.8-0.5-1.7-0.7-2.5c-0.1-0.4-0.3-0.9-0.4-1.3c-0.2-0.8-0.5-1.6-0.7-2.4c-0.1-0.2-0.1-0.3-0.2-0.5
							c-0.5-1.6-1.1-3.2-1.6-4.8c-0.2-0.5-0.4-1-0.5-1.5c-0.3-0.7-0.5-1.5-0.8-2.2c-0.2-0.6-0.4-1.1-0.6-1.7
							c-0.4-1.1-0.9-2.2-1.3-3.3c-0.3-0.6-0.5-1.2-0.8-1.9c-0.3-0.6-0.5-1.3-0.8-1.9s-0.5-1.2-0.8-1.9c-0.3-0.6-0.5-1.2-0.8-1.8
							c-0.5-1.1-1-2.1-1.5-3.2c-0.3-0.6-0.5-1.1-0.8-1.6c-0.3-0.7-0.7-1.4-1-2c-0.3-0.5-0.6-1.1-0.8-1.6c-0.5-0.9-0.9-1.7-1.4-2.6
							c-0.3-0.6-0.6-1.2-1-1.8c-0.4-0.8-0.9-1.6-1.3-2.4c-0.3-0.5-0.6-1-0.8-1.5c-0.4-0.8-0.9-1.5-1.3-2.3c-0.2-0.4-0.5-0.8-0.7-1.2
							c-0.7-1.1-1.3-2.1-2-3.2c-0.3-0.4-0.5-0.8-0.8-1.3C406.8,273.4,406.3,272.7,405.8,272z"/>
						<path class="st3" d="M430.1,412.6l-8.3,5.1l4.1,12.4l6.1-5.2l0,0c0.1-0.3,0.2-0.7,0.2-1l0,0L430.1,412.6z"/>
						<polygon class="st3" points="391.9,414.5 402.5,432.9 414,438.4 407.1,424.2 						"/>
					</g>
					<g>
						<polygon class="st4" points="264.8,304.6 274.9,299.2 272.2,291.5 257.9,295.1 247,303.4 247,312 251,310 						"/>
						<path class="st4" d="M254.7,286.9l20.2-6.9l55.8,4.1l72.2-16.5c0.7,1,1.4,2,2.1,3.1c0.3,0.4,0.6,0.8,0.8,1.3
							c0.5,0.7,1,1.5,1.5,2.2c0.3,0.4,0.6,0.8,0.8,1.3L247,2c0,0,0,0,0,0.1v291.3L254.7,286.9z"/>
						<polygon class="st4" points="254.2,355.5 269.4,354.6 281.8,358.3 289.7,353.7 288.8,344.9 279.1,342.6 283.7,336.7 
							297,334.4 302.1,328.4 297,325.6 274.9,326.1 274.9,336.7 263.9,344.9 262,332 252.8,326.1 255.6,328.4 254.2,339 247,336.8 
							247,348.2 249.1,348.2 						"/>
						<path class="st4" d="M437.6,366.9l-6.1,12.6L408,389.6l9.2,10.6v4.9H409l-3.7-7.4h-1.8l0.5,9.5l5.1,5.5v7.4L398.5,410
							l2.8-16.4l-17-14.4l-12.4,8.7L360.6,408l-5.1-22.6l-12-14.7l-18.4-3.3l-10.1-7.3l0.9,7.3l11.1,12l-22.6,14l-2.3-13l-9.7-13
							l2.3,19.4l9.7,10.8l13.4,7.4l-23.5,30.6v21.2l-9.7,18.9l-2.3,12.9l-21.2,9.7l-10.6-20.7l3.2-27.6l-6.7-13.8v132.7l0,0
							c89.2,0,164.1-61.2,185.1-143.9l-6.1,5.2l-4.1-12.4l8.3-5.1l2.2,11.3l0,0c3.7-14.8,5.6-30.2,5.6-46.1
							C437.9,374.2,437.8,370.5,437.6,366.9z M402.5,432.9l-10.6-18.4l15.2,9.7l6.9,14.3L402.5,432.9z"/>
						<path class="st5" d="M433.5,337.1c0.6,2.9,1.2,5.9,1.7,8.9C434.7,343,434.2,340.1,433.5,337.1z"/>
						<path class="st6" d="M405.8,272c-0.3-0.4-0.6-0.8-0.8-1.3c-0.7-1-1.4-2.1-2.1-3.1l-72.2,16.5l-55.8-4.1l-20.2,6.9l-7.7,6.4
							v10.1l10.9-8.3l14.3-3.6l2.7,7.7l-10.1,5.4L251,310l-4,2v24.8l7.2,2.1l1.4-10.6l-2.8-2.3l9.2,6l1.8,12.9l11-8.3V326l22.2-0.5
							l5.1,2.8l-5.1,6l-13.4,2.3l-4.6,6l9.7,2.3l0.9,8.8l-7.8,4.6l-12.4-3.7l-15.2,0.9l-5.1-7.4H247V436l6.7,13.8l-3.2,27.6
							l10.6,20.7l21.2-9.7l2.3-12.9l9.7-18.9v-21.2l23.5-30.6l-13.4-7.4l-9.7-10.8l-2.3-19.4l9.7,13l2.3,13l22.6-14l-11.1-12
							l-0.9-7.3l10.1,7.3l18.4,3.3l12,14.7l5.1,22.6l11.1-20.3l12.4-8.7l17,14.4l-2.8,16.4L409,420v-7.4l-5.1-5.5l-0.5-9.5h1.8
							l3.7,7.4h8.3v-4.9l-9.2-10.6l23.5-10.1l6.1-12.6l0,0c0-0.5-0.1-0.9-0.1-1.4c0-0.4-0.1-0.8-0.1-1.2c-0.1-1.3-0.2-2.6-0.3-3.9
							c0-0.2,0-0.3,0-0.5c-0.1-1-0.2-2-0.3-3.1c0-0.2-0.1-0.4-0.1-0.7c-0.4-3.1-0.8-6.2-1.3-9.2c0-0.3-0.1-0.6-0.1-0.9
							c-0.5-3-1.1-6-1.7-8.9c-0.1-0.3-0.1-0.6-0.2-0.9c-0.2-0.9-0.4-1.8-0.6-2.7c-0.1-0.3-0.2-0.6-0.2-1c-0.4-1.7-0.9-3.4-1.3-5.1
							c-0.1-0.3-0.1-0.5-0.2-0.8c-0.2-0.8-0.5-1.7-0.7-2.5c-0.1-0.4-0.3-0.9-0.4-1.3c-0.2-0.8-0.5-1.6-0.7-2.4
							c-0.1-0.2-0.1-0.3-0.2-0.5c-0.5-1.6-1.1-3.2-1.6-4.8c-0.2-0.5-0.4-1-0.5-1.5c-0.3-0.7-0.5-1.5-0.8-2.2
							c-0.2-0.6-0.4-1.1-0.6-1.7c-0.4-1.1-0.9-2.2-1.3-3.3c-0.3-0.6-0.5-1.2-0.8-1.9c-0.3-0.6-0.5-1.3-0.8-1.9s-0.5-1.2-0.8-1.9
							c-0.3-0.6-0.5-1.2-0.8-1.8c-0.5-1.1-1-2.1-1.5-3.2c-0.3-0.6-0.5-1.1-0.8-1.6c-0.3-0.7-0.7-1.4-1-2c-0.3-0.5-0.6-1.1-0.8-1.6
							c-0.5-0.9-0.9-1.7-1.4-2.6c-0.3-0.6-0.6-1.2-1-1.8c-0.4-0.8-0.9-1.6-1.3-2.4c-0.3-0.5-0.6-1-0.8-1.5c-0.4-0.8-0.9-1.5-1.3-2.3
							c-0.2-0.4-0.5-0.8-0.7-1.2c-0.7-1.1-1.3-2.1-2-3.2c-0.3-0.4-0.5-0.8-0.8-1.3C406.8,273.4,406.3,272.7,405.8,272z"/>
						<path class="st6" d="M430.1,412.6l-8.3,5.1l4.1,12.4l6.1-5.2l0,0c0.1-0.3,0.2-0.7,0.2-1l0,0L430.1,412.6z"/>
						<polygon class="st6" points="391.9,414.5 402.5,432.9 414,438.4 407.1,424.2 						"/>
					</g>
				</g>
			</g>
			<g>
				<g>
					<path class="st7" d="M514.8,161.5l19.7-12.8L514.8,136c1.2,4,1.8,8.3,1.8,12.7C516.6,153.2,516,157.4,514.8,161.5z"/>
					<path class="st8" d="M514,133.3l8.4-21.9l-23.5,1.3C505.7,118,511,125.1,514,133.3z"/>
					<path class="st8" d="M498.9,184.7l23.4,1.3l-8.4-21.9C511,172.4,505.7,179.5,498.9,184.7z"/>
					<path class="st9" d="M514,164.1c0.3-0.9,0.6-1.7,0.9-2.6c1.2-4,1.8-8.3,1.8-12.8c0-4.4-0.6-8.7-1.8-12.7
						c-0.3-0.9-0.5-1.8-0.9-2.6c-3-8.2-8.2-15.4-15-20.6c-0.7-0.6-1.5-1.1-2.2-1.6c-6.9-4.7-15.3-7.6-24.2-7.9c-0.5,0-0.9,0-1.4,0
						s-0.9,0-1.4,0c-9,0.3-17.3,3.1-24.2,7.9c-0.8,0.5-1.5,1.1-2.2,1.6c-6.8,5.3-12,12.4-15,20.6c-0.3,0.9-0.6,1.7-0.9,2.6
						c-1.2,4-1.8,8.3-1.8,12.7c0,4.4,0.6,8.7,1.8,12.8c0.3,0.9,0.5,1.8,0.9,2.6c3,8.2,8.2,15.4,15,20.6c0.7,0.6,1.5,1.1,2.2,1.6
						c6.9,4.7,15.3,7.6,24.2,7.9c0.5,0,0.9,0,1.4,0s0.9,0,1.4,0c9-0.3,17.3-3.1,24.2-7.9c0.8-0.5,1.5-1.1,2.2-1.6
						C505.7,179.5,511,172.4,514,164.1z"/>
					<path class="st7" d="M490.7,209.1l6-22.7c-6.9,4.7-15.3,7.6-24.2,7.9L490.7,209.1z"/>
					<path class="st7" d="M490.7,88.4l-18.2,14.8c9,0.3,17.3,3.1,24.2,7.9L490.7,88.4z"/>
					<path class="st8" d="M451.5,88.4l-6,22.7c6.9-4.7,15.3-7.6,24.2-7.9L451.5,88.4z"/>
					<path class="st8" d="M451.5,209.1l18.2-14.8c-9-0.3-17.3-3.1-24.2-7.9L451.5,209.1z"/>
					<path class="st7" d="M443.2,112.7l-23.4-1.3l8.4,21.9C431.2,125.1,436.4,118,443.2,112.7z"/>
					<path class="st7" d="M428.2,164.1l-8.4,21.9l23.4-1.3C436.4,179.5,431.2,172.4,428.2,164.1z"/>
					<path class="st8" d="M427.4,136l-19.7,12.7l19.7,12.8c-1.2-4-1.8-8.3-1.8-12.8C425.6,144.3,426.2,140,427.4,136z"/>
				</g>
				<g>
					<path class="st10" d="M514.8,161.5l19.7-12.8L514.8,136c1.2,4,1.8,8.3,1.8,12.7C516.6,153.2,516,157.4,514.8,161.5z"/>
					<path class="st11" d="M514,133.3l8.4-21.9l-23.5,1.3C505.7,118,511,125.1,514,133.3z"/>
					<path class="st11" d="M498.9,184.7l23.4,1.3l-8.4-21.9C511,172.4,505.7,179.5,498.9,184.7z"/>
					<path class="st12" d="M514,164.1c0.3-0.9,0.6-1.7,0.9-2.6c1.2-4,1.8-8.3,1.8-12.8c0-4.4-0.6-8.7-1.8-12.7
						c-0.3-0.9-0.5-1.8-0.9-2.6c-3-8.2-8.2-15.4-15-20.6c-0.7-0.6-1.5-1.1-2.2-1.6c-6.9-4.7-15.3-7.6-24.2-7.9c-0.5,0-0.9,0-1.4,0
						l0,0v91.1l0,0c0.5,0,0.9,0,1.4,0c9-0.3,17.3-3.1,24.2-7.9c0.8-0.5,1.5-1.1,2.2-1.6C505.7,179.5,511,172.4,514,164.1z"/>
					<path class="st10" d="M490.7,209.1l6-22.7c-6.9,4.7-15.3,7.6-24.2,7.9L490.7,209.1z"/>
					<path class="st10" d="M490.7,88.4l-18.2,14.8c9,0.3,17.3,3.1,24.2,7.9L490.7,88.4z"/>
				</g>
			</g>
			<g>
				<path class="st13" d="M184.6,164.5h-1.4c-1.2-26.4-22.9-47.4-49.5-47.4c-11.2,0-21.5,3.7-29.8,9.9c-3.2-0.9-6.6-1.3-10.1-1.3
					c-7.8,0-15,2.3-21.1,6.3c-3.7-1.3-7.7-2-11.8-2c-19.5,0-35.5,15.3-36.6,34.5h-4.6c-2.7,0-4.8,2.2-4.8,4.8c0,2.7,2.2,4.8,4.8,4.8
					h165c2.7,0,4.8-2.2,4.8-4.8C189.4,166.7,187.2,164.5,184.6,164.5z"/>
				<path class="st14" d="M188.6,168.5h-1.4c-1.2-26.4-22.9-47.4-49.5-47.4c-11.2,0-21.5,3.7-29.8,9.9c-3.2-0.9-6.6-1.3-10.1-1.3
					c-7.8,0-15,2.3-21.1,6.3c-3.7-1.3-7.7-2-11.8-2c-19.5,0-35.5,15.3-36.6,34.5h-4.6c-2.7,0-4.8,2.2-4.8,4.8c0,2.7,2.2,4.8,4.8,4.8
					h165c2.7,0,4.8-2.2,4.8-4.8C193.4,170.7,191.2,168.5,188.6,168.5z"/>
			</g>
			<g>
				<path class="st13" d="M197.4,348.6h-3.3c-1.1-14.6-13.3-26.1-28.2-26.1c-5.6,0-10.8,1.6-15.2,4.4c-5.2-4.7-12-7.8-19.4-8.3
					c-6.7-5.5-15.3-8.9-24.7-8.9c-7.8,0-15,2.3-21.1,6.3c-3.7-1.3-7.7-2-11.8-2c-19.5,0-35.5,15.3-36.6,34.5h-4.6
					c-2.7,0-4.8,2.2-4.8,4.8c0,2.7,2.2,4.8,4.8,4.8h165c2.7,0,4.8-2.2,4.8-4.8C202.2,350.7,200.1,348.6,197.4,348.6z"/>
				<path class="st14" d="M201.4,352.6h-3.3c-1.1-14.6-13.3-26.1-28.2-26.1c-5.6,0-10.8,1.6-15.2,4.4c-5.2-4.7-12-7.8-19.4-8.3
					c-6.7-5.5-15.3-8.9-24.7-8.9c-7.8,0-15,2.3-21.1,6.3c-3.7-1.3-7.7-2-11.8-2c-19.5,0-35.5,15.3-36.6,34.5h-4.6
					c-2.7,0-4.8,2.2-4.8,4.8c0,2.7,2.2,4.8,4.8,4.8h165c2.7,0,4.8-2.2,4.8-4.8C206.2,354.7,204.1,352.6,201.4,352.6z"/>
			</g>
			<g>
				<path class="st13" d="M483.5,215h-7.9c-0.8-16-10.7-29.5-24.6-35.7c-10.1-11.9-25.2-19.5-42-19.5c-17.6,0-33.3,8.3-43.4,21.1
					c-1.9-0.3-3.9-0.5-5.9-0.5c-19.5,0-35.5,15.3-36.6,34.5h-4.6c-2.7,0-4.8,2.2-4.8,4.8c0,2.7,2.2,4.8,4.8,4.8h165
					c2.7,0,4.8-2.2,4.8-4.8C488.3,217.2,486.1,215,483.5,215z"/>
				<path class="st14" d="M487.5,219h-7.9c-0.8-16-10.7-29.5-24.6-35.7c-10.1-11.9-25.2-19.5-42-19.5c-17.6,0-33.3,8.3-43.4,21.1
					c-1.9-0.3-3.9-0.5-5.9-0.5c-19.5,0-35.5,15.3-36.6,34.5h-4.6c-2.7,0-4.8,2.2-4.8,4.8c0,2.7,2.2,4.8,4.8,4.8h165
					c2.7,0,4.8-2.2,4.8-4.8C492.3,221.2,490.1,219,487.5,219z"/>
			</g>
		</g>
	</g>
</g>
</svg>
