<?xml version="1.0" encoding="utf-8"?>
<!-- Generator: Adobe Illustrator 19.2.1, SVG Export Plug-In . SVG Version: 6.00 Build 0)  -->
<svg version="1.1" id="Layer_1" xmlns="http://www.w3.org/2000/svg" xmlns:xlink="http://www.w3.org/1999/xlink" x="0px" y="0px"
	 viewBox="0 0 369 540" style="enable-background:new 0 0 369 540;" xml:space="preserve">
<style type="text/css">
	.st0{fill:#66BF00;}
	.st1{fill:#58AB23;}
	.st2{fill:#B9873C;}
	.st3{fill:#A3682D;}
	.st4{fill:#FFE5BA;}
	.st5{fill:#FFD686;}
</style>
<path class="st0" d="M39.6,133.2c-2.4,0.9-4.3,2.8-5.2,5.2c-8.8,24.5-3.3,53,16.3,72.7c19.6,19.6,48.1,25.1,72.7,16.3
	c2.4-0.9,4.3-2.8,5.2-5.2c8.8-24.5,3.3-53-16.3-72.7C92.6,129.9,64.2,124.4,39.6,133.2z"/>
<g>
	<path class="st1" d="M58.4,202.3c-18.8-18.8-24.6-45.8-17.3-69.6c-0.5,0.2-1,0.3-1.5,0.5c-2.4,0.9-4.3,2.8-5.2,5.2
		c-8.8,24.5-3.3,53,16.3,72.7c19.6,19.6,48.1,25.1,72.7,16.3c2.4-0.9,4.3-2.8,5.2-5.2c0.4-1,0.7-2,1-3
		C105.4,227.2,77.7,221.6,58.4,202.3z"/>
	<path class="st1" d="M174.7,260.1L45.9,131.3c-2.1,0.5-4.2,1.2-6.3,1.9c-2.4,0.9-4.3,2.8-5.2,5.2c-0.5,1.5-1,3-1.5,4.6l129.4,129.4
		c1.7,1.7,3.9,2.5,6.2,2.5c2.2,0,4.5-0.8,6.2-2.5C178.1,269,178.1,263.5,174.7,260.1z"/>
</g>
<path class="st0" d="M172.2,28.8c-2.3-1.1-5-1.1-7.3,0C141.3,40,125,63.9,125,91.7s16.3,51.8,39.8,62.9c2.3,1.1,5,1.1,7.3,0
	c23.5-11.2,39.8-35.1,39.8-62.9S195.7,40,172.2,28.8z"/>
<g>
	<path class="st1" d="M172.2,140.6c-2.3,1.1-5,1.1-7.3,0c-21.5-10.2-37-31.1-39.5-55.9c-0.2,2.3-0.4,4.7-0.4,7
		c0,27.8,16.3,51.8,39.8,62.9c2.3,1.1,5,1.1,7.3,0c23.5-11.2,39.8-35.1,39.8-62.9c0-2.4-0.1-4.7-0.4-7
		C209.2,109.4,193.7,130.4,172.2,140.6z"/>
	<path class="st1" d="M172.2,28.8c-2.3-1.1-5-1.1-7.3,0c-1.5,0.7-2.9,1.4-4.3,2.2v292.8c0,5.2,4.6,9.3,9.8,8.6
		c4.3-0.5,7.6-4.3,7.6-8.6V31.9C176.1,30.8,174.2,29.8,172.2,28.8z"/>
</g>
<path class="st0" d="M297.4,133.2c2.4,0.9,4.3,2.8,5.2,5.2c8.8,24.5,3.3,53-16.3,72.7c-19.6,19.6-48.1,25.1-72.7,16.3
	c-2.4-0.9-4.3-2.8-5.2-5.2c-8.8-24.5-3.3-53,16.3-72.7C244.4,129.9,272.9,124.4,297.4,133.2z"/>
<g>
	<path class="st1" d="M278.7,202.3c18.8-18.8,24.6-45.8,17.3-69.6c0.5,0.2,1,0.3,1.5,0.5c2.4,0.9,4.3,2.8,5.2,5.2
		c8.8,24.5,3.3,53-16.3,72.7c-19.6,19.6-48.1,25.1-72.7,16.3c-2.4-0.9-4.3-2.8-5.2-5.2c-0.4-1-0.7-2-1-3
		C231.7,227.2,259.4,221.6,278.7,202.3z"/>
	<path class="st1" d="M302.6,138.4c-0.9-2.4-2.8-4.3-5.2-5.2c-2.1-0.7-4.2-1.4-6.3-1.9L162.4,260.1c-3.4,3.4-3.4,8.9,0,12.3
		c1.7,1.7,3.9,2.5,6.2,2.5c2.2,0,4.5-0.8,6.2-2.5L304.1,143C303.6,141.4,303.2,139.9,302.6,138.4z"/>
</g>
<path class="st2" d="M282.7,419.5c0-62.5-50.6-113.1-113.1-113.1S56.5,357,56.5,419.5c0,18.8,4.6,36.6,12.7,52.2H270
	C278.1,456.1,282.7,438.3,282.7,419.5z"/>
<path class="st3" d="M204.4,454.3c-60.1,0-111.8-35.9-135-87.3c-8.3,15.7-12.9,33.6-12.9,52.5c0,18.8,4.6,36.6,12.7,52.2H270
	c6.3-12,10.4-25.3,12-39.4C259.4,446.3,232.9,454.3,204.4,454.3z"/>
<path class="st4" d="M18.7,413.8c6.9-6.3,16.4-4,24.3,0.9c14.9,9.1,67.3,42.7,67.3,42.7l67.7-6.2l13.4-13.4c2.3-2.3,1.4-6.2-1.7-7.2
	c-9-2.9-25.6-8.1-41.2-12.6c-7.3-2.1-12.6-8.7-12.5-16.3c0.2-9.5,8-17.2,17.5-17.1c0,0,79.2,15.8,113.5,21.6
	c10.7,1.8,20.5,6.9,28.2,14.6l61.2,61.2c3.4,3.4,3.4,8.9,0,12.3l-43.1,43.1c-3.4,3.4-8.9,3.4-12.3,0l-30.8-30.8l-151.5-6.1
	c-1.5-0.1-3-0.5-4.3-1.3L18.1,439C11.1,432,11.3,420.6,18.7,413.8z"/>
<path class="st5" d="M120.7,483.1L14.4,419.9c-2.7,6.3-1.5,14,3.7,19.1l96.5,60.3c1.3,0.8,2.8,1.3,4.3,1.3l151.5,6.1l30.8,30.8
	c3.4,3.4,8.9,3.4,12.3,0l12.5-12.5l-42.1-37.5L120.7,483.1z"/>
</svg>
